<?xml version="1.0" encoding="utf-8"?>
<!-- Generator: Adobe Illustrator 26.0.0, SVG Export Plug-In . SVG Version: 6.00 Build 0)  -->
<svg version="1.1" id="Layer_1" xmlns="http://www.w3.org/2000/svg" xmlns:xlink="http://www.w3.org/1999/xlink" x="0px" y="0px"
	 viewBox="0 0 289 109.9" style="enable-background:new 0 0 289 109.9;" xml:space="preserve">
<style type="text/css">
	.st0{fill:#F9B715;stroke:#FFFFFF;stroke-width:3;stroke-miterlimit:10;}
	.st1{fill:#3D1A0F;}
	.st2{fill:#FFFFFF;}
</style>
<path class="st0" d="M92.7,39.6c-1.6,5.1-0.2,10.1,1.4,15.9c2,7.2,4.3,15.4,1.2,25.7C89.6,100.4,75,102.8,68,104
	c-6.9,1.1-12,3.3-13.8,5.9h-3.5c-0.7-1-3.4-3.9-12.1-5.4C26,102.5,14.9,99.5,5.9,83.9C1.7,76.7,4,66.3,6.3,56.4
	c2.9-12.6,5.3-23.6-4.7-27L0,28.8L31.2-1.1l0.2,2.2c0,0.4,1.1,10.5,20.3,11.4c8,0.4,13.9-1.1,17.6-4.5c3.5-3.1,3.7-6.9,3.7-6.9L73-1
	l1.6,1.4l31.6,28l-1.9,0.4C103.9,28.8,95.5,30.8,92.7,39.6z"/>
<g>
	<g id="XMLID_26_">
		<path id="XMLID_940_" class="st1" d="M51,61.1C51,61,50.9,61,51,61.1C50.9,61,50.9,61,50.8,61c-0.1,0-0.2,0-0.6,0.3
			c-0.3,0.2-0.7,0.5-1.2,0.9c-1,0.8-2.3,1.9-3.6,3.1c-0.4,0.3-0.7,0.7-1.1,1l-0.1,0.1c-1.1,1-2,1.8-2.7,2.4c-0.8,0.7-1,1-1.1,1.1
			c0,0-0.1,0-0.1,0L38.1,72c-0.1,0-0.2,0-0.3,0c-0.5,0-0.9,0.3-1.1,0.8l0,0.1c-0.2,0.5-0.2,0.5-0.8,1.1c-0.1,0.1-0.2,0.3-0.4,0.4
			c0,0-0.1,0.1-0.1,0.1c0,0.1,0.1,0.1,0.2,0.1h0c0.5,0,2.3-0.5,2.9-1.1c0.3-0.3,0.4-0.6,0.3-0.8l2.4-2c0,0,0.1-0.1,0.1-0.1
			c0.8-0.5,2.7-2.2,4.7-4l0.4-0.3c1.3-1.2,2.6-2.4,3.5-3.3c0.4-0.5,0.8-0.8,1-1.1C51,61.3,51.1,61.2,51,61.1L51,61.1z M40.9,70.5
			l-2.3,1.9c-0.1-0.1-0.2-0.2-0.3-0.3l2.2-2c0,0,0.1,0.1,0.1,0.1C40.7,70.3,40.9,70.4,40.9,70.5L40.9,70.5z M41.4,70l-0.3-0.3
			c0,0,0.1-0.1,0.2-0.2c0.2-0.2,0.4-0.4,0.7-0.7c0.6-0.6,1.5-1.4,2.5-2.3l0,0c0.4-0.3,0.7-0.6,1.1-1c1.2-1.1,2.4-2.1,3.4-2.9
			c0.9-0.7,1.3-0.9,1.4-1c-0.1,0.2-0.4,0.5-1.1,1.3c-0.8,0.9-2,1.9-3.2,3.1l-0.3,0.3C44,67.9,42.2,69.5,41.4,70L41.4,70z"/>
		<g id="XMLID_901_">
			<g>
				<path id="XMLID_00000039134176738766790980000015618162334903911069_" class="st1" d="M29.3,64.6c0.5,1.2,0.8,2.5,0.8,3.8
					c0,1.3-0.3,2.6-0.8,3.8c-0.5,1.2-1.2,2.2-2.1,3.1c-0.8,0.8-1.6,1.4-2.6,1.8l0.3,1.5l-0.2,0c-0.8,0.1-1.5,0.2-2.2,0.3l0.3,3.4
					c0.9,0,1.7,0.1,2.4,0.2c0.6,0.1,1.2,0.2,1.5,0.3c0.2,0.1,0.3,0.1,0.5,0.2c0.2,0.1,0.3,0.2,0.3,0.4c0,0.1-0.1,0.3-0.3,0.4
					c-0.1,0.1-0.3,0.1-0.5,0.2c-0.4,0.1-0.9,0.2-1.5,0.3c-1.3,0.2-3.1,0.2-4.9,0.2c-1.9,0-3.6-0.1-4.9-0.2c-0.6-0.1-1.2-0.2-1.5-0.3
					c-0.2-0.1-0.3-0.1-0.5-0.2c-0.2-0.1-0.3-0.2-0.3-0.4c0-0.1,0.1-0.3,0.3-0.4c0.1-0.1,0.3-0.1,0.5-0.2c0.4-0.1,0.9-0.2,1.5-0.3
					c0.7-0.1,1.5-0.1,2.4-0.2l0.8-3.5c-0.2,0-0.4-0.1-0.6-0.1c-1.7-0.3-3.2-1-4.5-1.9c-0.9-0.6-1.6-1.4-2.3-2.3
					c-0.5-0.7-0.9-1.5-1.3-2.4c-0.6-1.5-0.7-2.6-0.7-2.6l0,0l0,0c0-2,0.4-3.8,1-5.4c0.5-1.3,1.2-2.4,2.1-3.4
					c0.8-0.9,1.6-1.4,2.1-1.7c0.6-0.4,1-0.5,1-0.5l0.2-0.1l0.7,0.9c0,0,0.1,0,0.1,0c1.2-0.5,2.5-0.8,3.8-0.8s2.6,0.3,3.8,0.8
					c1.2,0.5,2.2,1.2,3.1,2.1C28.1,62.4,28.8,63.4,29.3,64.6L29.3,64.6z M29.6,68.4c0-1.9-0.5-3.6-1.5-5c0,0.1,0,0.2,0,0.3
					c-0.1,0.1-0.2,0.2-0.5,0.2c-0.2,0-0.4-0.1-0.4-0.1c-0.3-0.2-0.5-0.4-0.6-0.7c0-0.1-0.1-0.2-0.1-0.2c0,0,0,0-0.1,0
					c0,0-0.1,0-0.1,0c-0.1,0-0.2-0.1-0.2-0.1c-0.1-0.1-0.2-0.1-0.3-0.1c-0.1,0-0.2,0.1-0.3,0.1c-0.1,0-0.2,0.1-0.3,0.1
					c-0.2,0-0.3,0-0.5-0.1c-0.1,0-0.3-0.1-0.3,0c0,0,0,0,0,0c0,0,0.1,0.1,0.2,0.2c0.2,0.1,0.3,0,0.5,0c0.1,0,0.1,0,0.2-0.1
					c0,0,0,0,0,0c0.3-0.1,0.6,0,0.9,0.2c0.2,0.2,0.3,0.4,0.2,0.7c-0.1,0.4-0.4,0.8-0.7,1c-0.1,0.1-0.3,0.1-0.4,0.1c0,0-0.1,0-0.1,0
					c-0.4-0.1-0.9-0.3-1.2-0.5c-0.1,0-0.2-0.1-0.3-0.1c-0.2-0.1-0.3-0.2-0.4-0.3c-0.1-0.1-0.1-0.1-0.2-0.2c0,0-0.1-0.1-0.1-0.1
					c-0.2-0.1-0.3-0.2-0.4-0.4c0,0-0.1-0.1-0.1-0.1c-0.1-0.2-0.2-0.3-0.3-0.4c-0.2-0.1-0.2,0-0.4,0c-0.1,0-0.1,0.1-0.2,0.1
					c-0.1,0.1-0.2,0.1-0.3,0.1c-0.2,0-0.3-0.1-0.4-0.2c0,0,0,0-0.1-0.1c-0.1-0.1-0.2-0.1-0.3-0.1c0,0-0.1,0-0.1,0.1c0,0,0,0.1,0,0.1
					c0,0.1,0,0.3-0.2,0.4c-0.1,0.1-0.2,0.1-0.3,0c-0.1,0-0.2-0.1-0.2-0.2c0,0.1-0.1,0.1-0.1,0.1c-0.1,0-0.1,0-0.2,0
					c0.1,0.1,0.1,0.2,0.1,0.4c0,0.1-0.2,0.2-0.4,0.3c-0.1,0-0.1,0-0.2,0c0,0-0.1,0-0.1-0.1c-0.1,0-0.1,0-0.2-0.1l-0.1-0.1l0.1-0.1
					c0,0,0,0,0.1-0.1c0.1-0.1,0.1-0.2,0.1-0.2c0,0-0.2,0-0.2,0c-0.1,0-0.1,0-0.2,0c-0.1,0-0.1,0-0.2-0.1c-0.1,0-0.2-0.1-0.3,0
					c0,0,0,0,0,0.1c0,0.1,0,0.1-0.1,0.2c-0.1,0.1-0.2,0.1-0.2,0.1c0,0-0.1,0-0.1,0c-0.2,0.1-0.2,0.2-0.3,0.4c0,0.1-0.1,0.2-0.1,0.2
					c0,0,0,0-0.1,0.1c0,0-0.1,0.1-0.1,0.1c0,0,0,0-0.1,0c-0.1,0.1-0.7,0.3-0.9,0.1c-0.1,0-0.2-0.1-0.1-0.4c0-0.3,0.2-0.4,0.4-0.6
					c0.2-0.2,0.3-0.3,0.3-0.5c0-0.1,0-0.1,0-0.2c0-0.2,0-0.3,0.2-0.5c0.1,0,0.1-0.1,0.1-0.1c0,0,0,0,0,0c0,0,0,0,0,0
					c0,0,0-0.1,0-0.1c0-0.1-0.1-0.1,0-0.2c0.1-0.1,0.2-0.2,0.2-0.2c0,0,0.1,0,0.1,0c0,0,0,0,0.1-0.1c0,0,0,0,0.1-0.1
					c0.1-0.1,0.2-0.2,0.4-0.3c-0.3,0-0.7-0.1-0.8-0.3l-0.1-0.1l0.1,0c0,0,0-0.2,0-0.3c0-0.1,0-0.3,0-0.4c0.1-0.2,0.3-0.4,0.7-0.5
					c0.1,0,0.3,0,0.5,0c0.2,0,0.4,0,0.5,0c0.1,0,0.1-0.2,0.2-0.3c0,0,0-0.1,0-0.1c-4.3,0.9-7.5,4.7-7.5,9.2c0,1.2,0.2,2.3,0.6,3.3
					c-0.1,0-0.1,0-0.2,0l0.1,0.2c0.1,0,0.1,0,0.2,0c0,0,0,0,0,0c0.7,1.8,2,3.2,3.6,4.3c0.1,0.1,0.1,0.2,0.1,0.3l0.2,0
					c0,0,0-0.1,0-0.1c1.4,0.8,3,1.3,4.8,1.3C25.4,77.8,29.6,73.6,29.6,68.4L29.6,68.4z M27.9,63.6c0-0.1-0.1-0.3-0.1-0.4
					c0-0.1-0.1-0.2-0.1-0.2c0-0.1-0.1-0.2-0.1-0.3c-1.7-2.2-4.4-3.6-7.4-3.6c-0.6,0-1.1,0-1.6,0.1c0,0.1,0,0.1-0.1,0.2
					c-0.1,0.2-0.1,0.4-0.3,0.5C18,60,17.8,60,17.5,60c-0.1,0-0.3,0-0.4,0c-0.1,0-0.4,0.1-0.5,0.3c0,0.1,0,0.2,0,0.3
					c0,0.1,0,0.3-0.1,0.4c0,0,0.1,0.1,0.2,0.1c0.2,0,0.3,0,0.4,0c0.1-0.1,0.2-0.2,0.2-0.4c0-0.1,0-0.2,0.1-0.3l0-0.1l0.1,0
					c0.2,0,0.4,0,0.4,0.1c0.1,0.1,0.1,0.3,0,0.4c-0.1,0.2-0.3,0.3-0.5,0.4c0,0-0.1,0-0.1,0.1c-0.2,0.1-0.4,0.2-0.5,0.4
					c0,0,0,0,0,0.1c0,0-0.1,0.1-0.1,0.1c-0.1,0-0.1,0-0.2,0.1c0,0-0.1,0-0.1,0c0,0,0,0,0,0.1c0,0.1,0.1,0.2,0,0.3
					c0,0.1-0.1,0.2-0.2,0.2c0,0,0,0-0.1,0c-0.1,0.1-0.1,0.1-0.1,0.1c0,0,0,0.1,0,0.1c0,0,0,0.1,0,0.2c0,0.3-0.2,0.5-0.3,0.7
					c-0.1,0.1-0.3,0.3-0.3,0.4c0,0.1,0,0.1,0,0.1c0,0,0.1,0,0.3,0c0.1,0,0.3-0.1,0.4-0.1c0.2-0.1,0.2-0.2,0.3-0.4
					c0.1-0.2,0.1-0.4,0.4-0.5c0,0,0.1,0,0.1-0.1c0.1,0,0.1,0,0.2-0.1c0,0,0,0,0-0.1c0-0.1,0-0.1,0.1-0.2c0.2-0.1,0.4-0.1,0.5,0
					c0.1,0,0.1,0,0.2,0c0,0,0.1,0,0.1,0c0.2,0,0.3,0,0.4,0.1c0.1,0.1,0.1,0.2,0.1,0.3c0,0,0,0.1-0.1,0.1c0,0,0.1,0,0.2,0
					c0.1,0,0.2-0.1,0.2-0.1c0,0,0-0.1-0.1-0.2c-0.1-0.1-0.1-0.2-0.2-0.3l0-0.1c-0.1,0-0.4-0.1-0.4-0.2c0-0.1,0-0.2,0.1-0.3
					c0.2-0.1,0.5-0.1,0.6,0c0.2,0.1,0.4,0.2,0.5,0.3c0.1,0.1,0.1,0.2,0.1,0.3c0,0.1,0,0.1,0.1,0.2c0.1,0,0.1,0,0.1,0
					c0,0,0-0.1,0.1-0.2c0-0.1,0-0.1,0-0.2c0.1-0.2,0.2-0.2,0.3-0.2c0.2,0,0.4,0,0.5,0.1c0,0,0.1,0,0.1,0.1c0.2,0.2,0.2,0.2,0.5,0.1
					c0.1,0,0.1-0.1,0.2-0.1c0.1-0.1,0.3-0.2,0.6-0.1c0.2,0.1,0.3,0.3,0.4,0.5c0,0,0,0.1,0.1,0.1c0.1,0.2,0.2,0.2,0.3,0.3
					c0,0,0.1,0.1,0.1,0.1c0.1,0.1,0.2,0.1,0.3,0.2c0.1,0.1,0.2,0.2,0.4,0.3c0.1,0,0.2,0.1,0.3,0.1c0.4,0.2,0.8,0.4,1.2,0.5
					c0.1,0,0.3,0,0.4-0.1c0.3-0.2,0.6-0.6,0.6-0.9c0-0.2,0-0.4-0.2-0.5c-0.2-0.2-0.4-0.2-0.7-0.2c-0.1,0-0.1,0-0.2,0
					c-0.2,0.1-0.4,0.1-0.6,0C24.2,63,24,62.8,24,62.6c0-0.1,0-0.2,0.2-0.2c0.1-0.1,0.3,0,0.5,0c0.1,0,0.3,0.1,0.4,0.1
					c0.1,0,0.2-0.1,0.2-0.1c0.1-0.1,0.3-0.1,0.4-0.1c0.2,0,0.3,0.1,0.4,0.1c0.1,0,0.1,0.1,0.2,0.1c0,0,0.1,0,0.1,0
					c0.2,0.1,0.3,0.1,0.4,0.4c0.1,0.3,0.2,0.5,0.5,0.6C27.5,63.6,27.8,63.7,27.9,63.6L27.9,63.6z M26.8,83.5
					c-0.2-0.1-0.7-0.2-1.9-0.4c-0.8-0.1-1.8-0.1-2.8-0.2c-0.5,0.1-1,0.1-1.5,0.1c-0.3,0-0.6,0-1,0c-0.3,0-0.7-0.1-0.9-0.1
					c-1.1,0-2.1,0.1-3,0.2c-1.2,0.1-1.7,0.3-1.9,0.4c0.2,0.1,0.7,0.2,1.9,0.4c1.3,0.1,2.9,0.2,4.6,0.2c1.7,0,3.3-0.1,4.6-0.2
					C26.1,83.8,26.6,83.6,26.8,83.5L26.8,83.5z M24.3,78.4l-0.2-0.9c0,0-0.1,0-0.1,0.1c-1.2,0.5-2.5,0.8-3.8,0.8
					c-1.3,0-2.6-0.3-3.8-0.8c-1.2-0.5-2.2-1.2-3.1-2.1c-0.9-0.9-1.6-2-2.1-3.1c-0.5-1.2-0.8-2.5-0.8-3.8c0-1.3,0.3-2.6,0.8-3.8
					c0.5-1.2,1.2-2.2,2.1-3.1c0.8-0.8,1.6-1.4,2.6-1.9l-0.4-0.5c-0.2,0.1-0.4,0.2-0.7,0.4c-0.5,0.3-1.2,0.8-2,1.7
					c-1.3,1.5-2.9,4.1-3,8.4c0,0.1,0.2,1.2,0.7,2.5c0.5,1.3,1.5,3.1,3.4,4.5C16.4,78.5,19.9,79.1,24.3,78.4L24.3,78.4z M22.3,82.5
					L22,79.2c-0.4,0-0.7,0-1.1,0c-0.6,0-1.2,0-1.8-0.1l-0.8,3.4c0.1,0,0.2,0,0.4,0.1c0.5,0,1.1,0,1.6,0c0.6,0,1.2,0,1.8,0
					C22.2,82.5,22.2,82.5,22.3,82.5L22.3,82.5z M19.1,62.8C19.1,62.7,19.1,62.7,19.1,62.8C19.1,62.7,19.1,62.7,19.1,62.8
					c-0.2-0.1-0.2-0.1-0.3,0c0,0,0,0,0,0c0,0,0.1,0,0.1,0C18.9,62.8,19,62.8,19.1,62.8C19.1,62.8,19.1,62.8,19.1,62.8L19.1,62.8z
					 M18.7,62.5c0.1,0,0.2,0,0.3,0c-0.1,0-0.2-0.1-0.2-0.1c-0.2-0.1-0.3,0-0.4,0c0,0,0,0,0,0.1c0,0,0.2,0.1,0.3,0.1
					C18.6,62.5,18.7,62.5,18.7,62.5L18.7,62.5z M17.8,60.8c0-0.1,0-0.1,0-0.2c0,0-0.1-0.1-0.1-0.1c0,0.1,0,0.1,0,0.2
					c0,0.1,0,0.2-0.1,0.3C17.7,61,17.8,60.9,17.8,60.8z"/>
				<path id="XMLID_00000035530329392102399730000010534645878598507448_" class="st1" d="M27.9,69c0,0.3,0.1,1.4-0.4,1.7
					c-0.1,0-0.1,0.1-0.2,0.1c-0.1,0-0.1,0-0.2-0.1c-0.4-0.3-0.6-1.4-0.4-2.1c0-0.1,0.1-0.3,0.2-0.3l-0.1,0c0-0.2,0.1-0.3,0.3-0.4
					c0.2-0.1,0.4,0,0.5,0.2C27.8,68.3,27.8,68.6,27.9,69C27.9,68.9,27.9,68.9,27.9,69L27.9,69z M27.3,70.5c0.2-0.2,0.3-0.9,0.3-1.5
					c0,0,0,0,0-0.1c0-0.2,0-0.5-0.2-0.7c0,0-0.1-0.1-0.1-0.1l0,0.2c-0.2,0-0.3,0.1-0.4,0.4c-0.1,0.3-0.1,0.7,0,1.1
					C27,70.2,27.2,70.4,27.3,70.5C27.3,70.5,27.3,70.5,27.3,70.5L27.3,70.5z"/>
				<path id="XMLID_00000037690118202565140160000001169520281900646544_" class="st1" d="M24.9,83.2c1.2,0.1,1.7,0.3,1.9,0.4
					c-0.2,0.1-0.7,0.2-1.9,0.4c-1.3,0.1-2.9,0.2-4.6,0.2S17,84,15.7,83.9c-1.2-0.1-1.7-0.3-1.9-0.4c0.2-0.1,0.7-0.2,1.9-0.4
					c0.9-0.1,1.9-0.2,3-0.2c0.3,0,0.6,0.1,0.9,0.1c0.3,0,0.7,0,1,0c0.6,0,1.1,0,1.5-0.1C23.1,83,24.1,83.1,24.9,83.2L24.9,83.2z"/>
				<path id="XMLID_00000160174396632877434000000013890407006329223612_" class="st1" d="M26.1,68.7c0.4,0.4,0.2,0.8,0,1.1
					c-0.1,0.1-0.1,0.2-0.2,0.4c-0.1,0.3,0,0.5,0.1,0.7c0,0.1,0.1,0.3,0.1,0.5c0.1,0.7,0,1.2-0.2,1.5c-0.2,0.2-0.4,0.5-0.6,0.7
					c-0.1,0.1-0.1,0.1-0.2,0.2c-0.1,0.1-0.2,0.2-0.3,0.3c-0.1,0.1-0.2,0.1-0.3,0.1c-0.3,0-0.4-0.2-0.5-0.4c0-0.1-0.1-0.1-0.1-0.2
					c-0.1-0.1-0.2-0.2-0.3-0.3c-0.2-0.2-0.4-0.3-0.5-0.5c0-0.1-0.1-0.1-0.1-0.2c-0.1-0.1-0.1-0.2-0.2-0.3c0,0-0.1-0.1-0.2-0.2
					c-0.2-0.1-0.5-0.3-0.5-0.5c0-0.1,0-0.2,0.1-0.2c0,0,0-0.1,0-0.1c0,0,0-0.1,0-0.2c0,0,0,0,0-0.1c0-0.2-0.1-0.4-0.2-0.6
					c-0.1-0.2-0.1-0.3-0.3-0.3c0,0-0.1,0-0.2,0c-0.2,0-0.5,0-0.6-0.2c-0.1-0.1-0.1-0.2,0-0.3c0-0.1,0-0.1,0-0.2
					c-0.1-0.1-0.3-0.3-0.5-0.3C20,69,19.9,69,19.7,69c-0.3,0-0.6,0.1-0.9,0.5C18.5,69.8,18,70,17.5,70c-0.1,0-0.2,0-0.2,0
					c-0.1,0-0.1,0-0.2-0.1c0,0-0.1,0-0.1,0c0,0,0,0,0,0c0,0-0.1,0-0.1,0c-0.1,0-0.1,0-0.2,0c0,0,0,0-0.1,0c-0.2,0-0.3-0.1-0.4-0.2
					c-0.1-0.1-0.1-0.1-0.2-0.2c-0.1,0-0.1,0-0.2-0.1c-0.2-0.1-0.3-0.1-0.4-0.4c0-0.2-0.1-0.3-0.2-0.5l0,0c-0.2-0.3-0.2-0.3,0-0.7
					c0.1-0.2,0.1-0.3,0.1-0.5c0-0.3,0.1-0.6,0.1-0.9c0-0.1,0.1-0.3,0.1-0.4c0-0.1,0-0.1,0-0.2c0-0.1,0-0.3,0.1-0.4
					c0.1-0.1,0.2-0.2,0.3-0.3c0,0,0.1-0.1,0.1-0.1c0.1-0.1,0.2-0.3,0.3-0.4c0.1-0.1,0.1-0.2,0.2-0.3c0.1-0.1,0.1-0.1,0.2-0.2
					c0.3-0.3,0.9-0.5,1.3-0.5c0.1,0,0.1,0,0.2,0l0,0c0.1,0.1,0.2,0.1,0.3,0.1c0.1,0,0.1,0.1,0.2,0.1c0.1,0.1,0.3,0.2,0.4,0.2
					c0,0,0.1,0,0.1,0c0.1,0,0.2-0.1,0.4-0.2c0.1-0.1,0.2-0.2,0.3-0.2c0.1,0,0.1,0,0.2-0.1c0.4-0.1,0.7-0.3,1.2-0.3c0,0,0,0,0.1,0
					c0.4,0,0.7,0.2,1,0.5c0.1,0.1,0.1,0.1,0.2,0.2c0.2,0.2,0.5,0.3,0.8,0.5c0.3,0.2,0.6,0.3,0.9,0.6c0.2,0.2,0.3,0.2,0.5,0.2
					c0.1,0,0.3-0.1,0.6-0.2c0,0,0,0,0.1,0c0.1,0,0.2-0.1,0.3-0.1c0.1,0,0.2,0,0.3,0.3c0.1,0.3,0,0.6-0.1,0.9
					c-0.1,0.2-0.1,0.4-0.2,0.6c-0.1,0.3-0.3,0.6-0.2,1c0,0.3,0.3,0.6,0.5,0.9C26,68.5,26,68.6,26.1,68.7L26.1,68.7z M25.9,69.6
					c0.2-0.3,0.3-0.5,0-0.8c-0.1-0.1-0.1-0.1-0.2-0.2c-0.3-0.3-0.6-0.6-0.6-1.1c0-0.4,0.1-0.7,0.3-1.1c0.1-0.2,0.1-0.4,0.2-0.5
					c0.1-0.2,0.1-0.5,0.1-0.7c0-0.1,0-0.1-0.1-0.1c0,0-0.1,0-0.2,0.1c0,0,0,0-0.1,0c-0.3,0.1-0.5,0.2-0.6,0.2
					c-0.2,0-0.4-0.1-0.7-0.3c-0.3-0.2-0.6-0.4-0.9-0.5c-0.3-0.1-0.6-0.3-0.8-0.5c-0.1-0.1-0.2-0.1-0.2-0.2c-0.3-0.2-0.5-0.4-0.9-0.4
					c0,0,0,0,0,0c-0.4,0-0.7,0.2-1.1,0.3c-0.1,0-0.1,0-0.2,0.1c-0.1,0-0.2,0.1-0.3,0.2c-0.1,0.1-0.3,0.2-0.5,0.2c0,0-0.1,0-0.1,0
					c-0.2,0-0.4-0.1-0.6-0.2c-0.1-0.1-0.2-0.1-0.3-0.1c-0.1,0-0.2-0.1-0.3-0.1c-0.4,0-1,0.2-1.2,0.5c-0.1,0.1-0.2,0.3-0.3,0.4
					c-0.1,0.2-0.2,0.4-0.3,0.5c-0.1,0.1-0.1,0.1-0.2,0.1c-0.1,0.1-0.2,0.1-0.2,0.2c0,0.1-0.1,0.2-0.1,0.3c0,0.1,0,0.1,0,0.2
					c0,0.1-0.1,0.3-0.1,0.4c-0.1,0.3-0.1,0.6-0.1,0.9c0,0.2,0,0.4-0.1,0.6c-0.1,0.1-0.1,0.2-0.1,0.2c0,0,0,0.1,0.1,0.2l0,0
					c0.1,0.2,0.2,0.4,0.2,0.6c0,0.2,0.1,0.2,0.2,0.3c0,0,0.1,0,0.2,0.1c0.1,0,0.2,0.1,0.3,0.2c0.1,0.1,0.2,0.1,0.3,0.2c0,0,0,0,0,0
					c0,0,0.1,0,0.1,0c0.1,0,0.1,0,0.2,0c0,0,0,0,0,0c0.1,0,0.1,0,0.2,0.1c0,0,0.1,0,0.1,0c0.1,0,0.1,0,0.2,0c0.4,0,0.9-0.2,1.2-0.5
					c0.4-0.4,0.7-0.5,1.1-0.5c0.2,0,0.3,0,0.5,0.1c0.2,0.1,0.4,0.2,0.6,0.4c0.1,0.1,0.1,0.3,0.1,0.4c0,0.1,0,0.1,0,0.1
					c0,0.1,0.3,0.1,0.4,0.1c0.1,0,0.1,0,0.2,0c0.3,0.1,0.4,0.2,0.5,0.4c0.1,0.2,0.2,0.4,0.2,0.7c0,0,0,0,0,0.1c0,0.1,0,0.2,0,0.3
					c0,0.1,0,0.1-0.1,0.2c0,0,0,0.1,0,0.1c0,0.1,0.2,0.2,0.4,0.4c0.1,0.1,0.2,0.1,0.2,0.2c0.1,0.1,0.2,0.3,0.3,0.4
					c0,0,0.1,0.1,0.1,0.2c0.1,0.2,0.3,0.3,0.5,0.5c0.1,0.1,0.2,0.2,0.3,0.3c0.1,0.1,0.1,0.1,0.2,0.2c0.1,0.2,0.2,0.3,0.4,0.3
					c0.1,0,0.1,0,0.2-0.1c0.1-0.1,0.2-0.2,0.2-0.3c0.1-0.1,0.2-0.2,0.2-0.3c0.2-0.2,0.4-0.4,0.5-0.6c0.2-0.3,0.3-0.7,0.2-1.4
					c0-0.1-0.1-0.3-0.1-0.4c-0.1-0.3-0.2-0.5-0.1-0.9C25.8,69.9,25.8,69.7,25.9,69.6L25.9,69.6z"/>
				<path id="XMLID_00000045611713126632162810000013625881955980645775_" class="st1" d="M23.1,61.1c0.1,0.1,0.2,0.2,0.2,0.3
					c0,0.2-0.1,0.3-0.3,0.3c-0.1,0-0.2,0-0.2-0.1c0,0,0,0,0,0l0,0c-0.2-0.1-0.4-0.1-0.5-0.3c0,0-0.1-0.1-0.1-0.1
					c-0.1-0.1-0.1-0.1-0.3-0.2c0,0-0.1,0-0.1,0c-0.1,0-0.3-0.1-0.4-0.2c0-0.1,0-0.2,0-0.3c0.1-0.2,0.2-0.2,0.3-0.2
					c0.2,0,0.4,0.2,0.7,0.4c0.1,0.1,0.3,0.3,0.3,0.3c0,0,0,0,0.1,0C23,61,23.1,61.1,23.1,61.1L23.1,61.1z M23.1,61.4
					c0-0.1,0-0.1-0.2-0.1c0,0-0.1,0-0.1,0c-0.1,0-0.3-0.2-0.5-0.3c-0.2-0.2-0.4-0.4-0.5-0.4c0,0-0.1,0-0.1,0.1c0,0.1,0,0.1,0,0.1
					c0,0,0.1,0.1,0.2,0.1c0,0,0.1,0,0.1,0c0.2,0.1,0.3,0.1,0.4,0.2c0,0,0,0.1,0.1,0.1c0.1,0.1,0.3,0.2,0.4,0.2l0,0c0,0,0,0,0,0
					C22.9,61.4,23,61.4,23.1,61.4C23,61.4,23,61.4,23.1,61.4C23.1,61.4,23.1,61.4,23.1,61.4L23.1,61.4z"/>
				<path id="XMLID_00000145023923223633885710000014179055034418466214_" class="st1" d="M22,79.2l0.3,3.3c-0.1,0-0.1,0-0.2,0
					c-0.6,0-1.2,0-1.8,0c-0.5,0-1.1,0-1.6,0c-0.1,0-0.3,0-0.4-0.1l0.8-3.4c0.6,0.1,1.2,0.1,1.8,0.1C21.3,79.2,21.6,79.2,22,79.2
					L22,79.2z"/>
				<path id="XMLID_00000037663266400386671000000010291442247694702253_" class="st1" d="M21.6,61.2c0.1,0.1,0.1,0.2,0,0.3
					c0,0.2-0.1,0.2-0.3,0.2c0,0-0.1,0-0.1,0c0,0-0.1,0-0.1,0c0,0,0,0,0,0c-0.1,0-0.1,0-0.2,0.1c0,0-0.1,0.1-0.2,0.1
					c-0.1,0.1-0.2,0.1-0.4,0.1c-0.1,0-0.3,0-0.4-0.1c-0.1,0-0.3-0.2-0.3-0.3c0-0.1,0-0.1,0.1-0.2c0.1-0.1,0.2-0.1,0.3-0.1
					c0.1,0,0.1,0,0.2,0c0.1,0,0.1,0,0.2,0c0,0,0.1,0,0.1,0c0,0,0,0,0-0.1c0-0.1,0.1-0.1,0.2-0.2c0,0,0,0,0.1,0c0.1,0,0.2,0,0.2,0
					c0,0,0.1,0,0.1,0c0,0,0,0,0.1,0C21.4,61.1,21.5,61.1,21.6,61.2L21.6,61.2z M21.4,61.4C21.4,61.3,21.4,61.3,21.4,61.4
					c0-0.1-0.1-0.1-0.2-0.1c0,0-0.1,0-0.1,0c-0.1,0-0.1,0-0.2,0c-0.1,0-0.1,0-0.2,0c0,0,0,0,0,0c0,0-0.1,0-0.1,0c0,0,0,0,0,0
					c0,0,0,0.1-0.1,0.1c-0.1,0.1-0.2,0.1-0.2,0.1c-0.1,0-0.1,0-0.2,0c-0.1,0-0.1,0-0.1,0c0,0-0.1,0-0.1,0c0,0,0,0,0,0
					c0,0,0,0.1,0.2,0.1c0.1,0,0.2,0.1,0.3,0.1c0.1,0,0.2,0,0.3-0.1c0,0,0.1-0.1,0.1-0.1c0.1-0.1,0.1-0.1,0.3-0.2c0,0,0,0,0,0
					c0.1,0,0.1,0,0.2,0C21.3,61.4,21.3,61.4,21.4,61.4C21.4,61.4,21.4,61.4,21.4,61.4z"/>
				<path id="XMLID_00000103242367210624425690000009245915811067506075_" class="st1" d="M18.4,63.6c0,0,0.1,0,0.1,0.1
					c-0.1,0-0.3,0-0.3-0.1l0,0C18.2,63.6,18.3,63.6,18.4,63.6z"/>
				<path id="XMLID_00000059311868325707361950000016217939512556132240_" class="st1" d="M16.6,64c0,0.1-0.1,0.1-0.2,0.2
					C16.5,64.2,16.5,64.1,16.6,64C16.6,64.1,16.6,64.1,16.6,64z"/>
				<path id="XMLID_00000163058492408918355080000007144299272419472284_" class="st1" d="M15.4,76.6l-0.2,0c0-0.1,0-0.2-0.1-0.3
					C15.2,76.4,15.3,76.4,15.4,76.6C15.4,76.5,15.4,76.6,15.4,76.6L15.4,76.6z"/>
				<path id="XMLID_00000068645549542408741260000015028561502067928220_" class="st1" d="M15.2,76c0.1,0.1,0.2,0.3,0.2,0.5
					c-0.1-0.1-0.2-0.1-0.3-0.2c0,0-0.1-0.1-0.1-0.1c-0.1-0.1-0.1-0.2-0.2-0.3c-0.2-0.3,0-0.5,0.1-0.6c0.1-0.1,0.1-0.1,0.1-0.2
					c0-0.1-0.1-0.2-0.2-0.2c-0.1-0.1-0.3-0.3-0.3-0.5c0-0.1,0-0.2,0-0.3c0-0.1,0-0.2,0-0.3c0-0.1-0.1-0.1-0.1-0.2
					c-0.1-0.1-0.1-0.2-0.2-0.3c0-0.1-0.1-0.2-0.1-0.3c0-0.2-0.1-0.3-0.4-0.3c-0.1,0-0.2,0-0.3,0.1c-0.2,0.1-0.4,0.2-0.7-0.1
					c-0.1-0.2-0.1-0.3-0.1-0.4c0-0.1,0-0.1,0-0.1c0,0-0.1-0.1-0.2-0.1c-0.1,0-0.2,0-0.2,0c-0.1,0-0.2,0-0.3,0c-0.1,0-0.2,0-0.3-0.1
					c0-0.1-0.1-0.2-0.1-0.3c0.1,0,0.1,0,0.2,0.1c0.1,0,0.1,0.1,0.2,0.1c0.1,0,0.2,0,0.2,0c0.1,0,0.2,0,0.3,0c0.2,0,0.3,0.1,0.4,0.2
					c0.1,0.1,0.1,0.2,0.1,0.3c0,0.1,0,0.2,0.1,0.3c0.1,0.1,0.2,0.1,0.4,0c0.1,0,0.3-0.1,0.4-0.1c0.5,0,0.5,0.3,0.6,0.5
					c0,0.1,0,0.2,0.1,0.2c0,0.1,0.1,0.1,0.1,0.2c0.1,0.1,0.1,0.2,0.2,0.3c0,0.1,0,0.3,0,0.4c0,0.1,0,0.1,0,0.2
					c0,0.2,0.1,0.3,0.3,0.4c0.1,0.1,0.2,0.2,0.2,0.4c0.1,0.2-0.1,0.4-0.1,0.5c-0.1,0.1-0.1,0.1,0,0.3C15,75.9,15.1,75.9,15.2,76
					L15.2,76z"/>
				<path id="XMLID_00000023277470268158920610000018014669718720226218_" class="st1" d="M11.5,72C11.5,72,11.5,72,11.5,72
					c-0.1,0-0.2-0.1-0.2,0l-0.1-0.2c0.1,0,0.1,0,0.2,0C11.4,71.8,11.5,71.9,11.5,72L11.5,72z"/>
			</g>
		</g>
		<g id="XMLID_890_">
			<g>
				<g id="XMLID_00000165199899499805574560000003593230995307003782_">
					<path id="XMLID_00000117650046759040921470000013903178457044643468_" class="st1" d="M43.2,79.7c0,0,0,0.1,0,0.2
						c0,0.1,0,0.2,0,0.2c0,0.1,0,0.2,0,0.3c0,0.2,0,0.3,0,0.4c0,0.1,0,0.2,0,0.3c0,0,0,0,0,0c0,0,0,0,0,0c0,0,0,0,0,0c0,0,0,0,0,0
						c0-0.1,0-0.2,0-0.3c0-0.1,0-0.3,0-0.4c0-0.2,0-0.3,0-0.4c0-0.1,0-0.1,0-0.2c0-0.1,0-0.2,0-0.2C43.1,79.7,43.1,79.7,43.2,79.7
						C43.1,79.7,43.1,79.6,43.2,79.7C43.1,79.6,43.2,79.6,43.2,79.7C43.2,79.7,43.2,79.7,43.2,79.7L43.2,79.7z"/>
					<path id="XMLID_00000138538987700230290470000005498184047092576433_" class="st1" d="M44,79.6c0.2,0.4,0.4,0.8,0.6,1.3
						c0,0,0.1,0.1,0.1,0.3l0,0.1c0,0,0,0,0,0c0,0,0-0.1,0-0.2c0,0,0-0.2,0-0.6c0-0.3,0-0.6,0-0.8c0,0,0,0,0,0c0,0,0,0,0,0
						c0,0,0,0,0,0c0,0,0,0,0,0c0,0.1,0,0.3,0,0.4c0,0.2,0,0.3,0,0.5c0,0.2,0,0.3,0,0.4c0,0.2,0,0.2,0,0.2c0,0.1,0,0.1,0,0.1
						c0,0,0,0,0,0.1c0,0,0,0.1-0.1,0c0,0,0,0,0,0l0,0l0,0l0,0l0,0l0,0l0,0l-0.1-0.1c-0.1-0.1-0.1-0.2-0.1-0.2
						c-0.2-0.4-0.4-0.8-0.6-1.2c0,0.5,0,1,0,1.5c0,0,0,0,0,0c0,0,0,0,0,0c0,0,0,0,0,0c0,0,0,0,0,0c0-0.6,0-1.2,0-1.7
						C43.9,79.6,43.9,79.6,44,79.6C43.9,79.6,43.9,79.6,44,79.6C43.9,79.6,43.9,79.6,44,79.6C44,79.6,44,79.6,44,79.6L44,79.6z"/>
					<path id="XMLID_00000152235594367170310640000017953808155715860411_" class="st1" d="M45.8,79.7c0,0.2,0,0.5,0,0.8v0.1
						c0,0,0-0.1,0.1-0.1l0.1-0.1l0.1-0.1l0.4-0.5c0,0,0,0,0,0c0,0,0,0,0,0c0,0,0,0,0,0c0,0,0,0,0,0L46,80.4l0,0.1
						c0,0,0.1,0.2,0.2,0.4c0.1,0.2,0.2,0.4,0.3,0.5c0,0,0,0,0,0c0,0,0,0,0,0c0,0,0,0,0,0c0,0,0,0,0,0c-0.1-0.1-0.1-0.2-0.2-0.3
						l-0.2-0.3c-0.1-0.1-0.1-0.2-0.1-0.3c-0.1,0.1-0.1,0.2-0.2,0.3c0,0.2,0,0.4,0,0.5c0,0,0,0,0,0c0,0,0,0,0,0c0,0,0,0,0,0
						c0,0,0,0,0,0c0-0.1,0-0.3,0-0.5c0-0.2,0-0.3,0-0.4c0-0.3,0-0.6,0-0.8C45.7,79.6,45.7,79.6,45.8,79.7
						C45.7,79.6,45.7,79.6,45.8,79.7C45.7,79.6,45.7,79.6,45.8,79.7C45.8,79.6,45.8,79.7,45.8,79.7L45.8,79.7z"/>
				</g>
				<path id="XMLID_00000070101261851429168640000014232903392583050393_" class="st1" d="M48.7,81.6l-0.1-3.7
					c0.1-0.1,0.3-0.5,0.2-0.9c-0.1-0.4-0.4-0.6-0.8-0.9l-0.7-0.9c0-0.5,0-0.6,0-0.7c0.1,0,0.3,0,0.4-0.1l0.2,0l-0.1-2.6l-0.1,0
					c0,0-1.1-0.5-2.6-0.5c-0.9,0-1.8,0.2-2.6,0.5l-0.1,0l-0.4,2.6l0.2,0c0,0,0.2,0,0.6,0.1v0.7l-0.6,0.8c-0.2,0.1-0.8,0.3-1,0.7
					c-0.1,0.3-0.1,0.7,0.2,1.1l0.1,3.9c-0.1,0.2-0.4,0.6-0.1,1.2l0,0l0,0c0,0,1.1,0.8,3.3,0.8h0c1.3,0,2.7-0.3,4.2-0.8l0.1,0l0-0.1
					C48.8,82.7,49,81.9,48.7,81.6L48.7,81.6z M42.2,74.2l0.3-2c0.8-0.3,1.6-0.4,2.4-0.4c1.2,0,2.1,0.3,2.4,0.4l0.1,2
					c-0.2,0-0.4,0.1-0.6,0.1l0.1-1.4l-0.2,0l-0.1,1.5c-0.1,0-0.3,0-0.4,0c-0.1,0-0.1,0-0.2,0l0.1-1.5l-0.2,0l-0.1,1.5
					c-0.1,0-0.3,0-0.4,0l0.1-1.5l-0.2,0l-0.1,1.5c-0.2,0-0.3,0-0.5,0l0.1-1.5l-0.2,0l-0.1,1.5c-0.1,0-0.3,0-0.4,0l0.1-1.5l-0.2,0
					L44,74.4l0,0c-0.2,0-0.3,0-0.5,0l0.1-1.5l-0.2,0l-0.1,1.5l0.1,0c-0.2,0-0.5,0-0.6-0.1l0.1-1.4l-0.2,0l-0.1,1.4
					C42.5,74.2,42.3,74.2,42.2,74.2L42.2,74.2z M42.1,76.5L42.1,76.5l0.8-1v-0.7c0.1,0,0.3,0,0.6,0c0.4,0,0.8,0.1,1.4,0.1h0
					c0.5,0,1,0,1.5-0.1c0.3,0,0.5,0,0.6,0c0,0.2,0,0.5,0,0.7l0,0.1l0.9,1l0,0c0.2,0.1,0.4,0.2,0.5,0.3c-0.1,0-0.3,0-0.4,0
					c-0.3,0-0.5,0-0.8,0c-0.4,0.1-0.7,0-1-0.1c-0.2-0.1-0.4-0.1-0.7-0.1c-0.5,0-0.9,0-1.3,0c-0.2,0-0.4,0.1-0.6,0.1
					c-0.1,0-0.3,0.1-0.4,0.1c-0.3,0-0.5,0.1-0.8,0c0,0,0,0,0,0c-0.1,0-0.2-0.1-0.3-0.1C41.9,76.5,42.1,76.5,42.1,76.5L42.1,76.5z
					 M43.9,82c-1.1-0.1-2-0.2-2.3-0.3l-0.1-3.2c0.4,0.1,1.1,0.2,2.1,0.3c0.4,0,0.9,0.1,1.5,0.1c1,0,2.1-0.1,3.2-0.3l0.1,3
					C46.9,82.1,45.1,82.1,43.9,82L43.9,82z"/>
			</g>
		</g>
		<g id="XMLID_889_">
			<g>
				<path id="XMLID_00000161612037800430897920000001098287834126149252_" class="st1" d="M85.5,83.2c0,0,0-0.3,0-0.9l0.1,0.1l0-0.4
					c0-0.1-0.4-10.2-0.6-14.3c-0.1-1.2-0.8-2.2-2.3-2.8c-1.4-0.7-3.4-1-5.5-1c-1.9,0-3.6,0.4-4.6,1.1c-0.9-0.6-2.5-1-4.5-1
					c-2.1,0-4.1,0.4-5.6,1.1c-1.6,0.8-2.4,1.9-2.4,3.1c0,0.2,0,0.5,0,0.7c0,0.2,0,0.3,0,0.5c0,4.1,0.1,14.2,0.1,14.3l0,0.4l0.3-0.2
					c0,0,0.1-0.1,0.4-0.2c0.6-0.2,9.8-2.6,12.1-2.6l0,0l0,0c2.3,0.2,11.6,2.2,12.3,2.4l0.3,0.2L85.5,83.2L85.5,83.2z M73.2,79.7
					c0-0.3,0-0.6,0-0.8c0.8-0.1,1.5-0.2,2.4-0.1c4.5,0.2,8.5,2.6,9.5,3.3c0,0.3,0,0.6,0,0.8c-0.5-0.3-1.4-0.9-2.6-1.4
					c-1.7-0.8-4.2-1.7-6.9-1.8C74.7,79.5,73.9,79.6,73.2,79.7L73.2,79.7z M73.2,80.1c0.7-0.1,1.5-0.2,2.3-0.1c2.6,0.1,5.1,1,6.8,1.8
					c0.8,0.4,1.4,0.7,1.9,1c-2.6-0.6-8.8-1.9-11-2.1C73.2,80.5,73.2,80.3,73.2,80.1L73.2,80.1z M77.2,64.2c2,0,4,0.3,5.3,1
					c1.3,0.6,2,1.5,2,2.5c0.2,3.6,0.5,11.9,0.6,13.9c-1.2-0.8-5.2-3.1-9.6-3.3c-0.8,0-1.6,0-2.3,0.1c0.1-2.2,0.1-4.3,0-6.2
					c0-2.2-0.1-3.9-0.3-5.2c0-0.4-0.1-1.4-0.2-1.9C73.6,64.6,75.3,64.3,77.2,64.2L77.2,64.2z M60.5,68.9c0-0.3,0-0.5,0-0.8
					c0-1.4,1.2-2.3,2.2-2.7c1.4-0.7,3.4-1.1,5.4-1.1c1.8,0,3.4,0.3,4.2,0.9l0.1,0.1c0,0.5,0.1,1.4,0.2,1.8l0,0
					c0.2,1.3,0.3,2.9,0.3,5.2c0,1.3,0,2.8,0,5c0,0.1,0,0.2,0,0.3c0,0.3,0,0.6,0,0.9l0,0l0,0c-0.3,0-0.6-0.1-0.9-0.1
					c-3.1-0.1-6.1,1-8,1.9c-1.5,0.7-2.7,1.4-3.3,1.8C60.6,80.3,60.5,72.8,60.5,68.9L60.5,68.9z M60.5,82.6c0.2-0.2,1.6-1.1,3.5-2
					c1.9-0.9,4.9-1.9,7.8-1.8c0.3,0,0.6,0,0.9,0.1c0,0.3,0,0.6,0,0.8c-0.3,0-0.6-0.1-0.9-0.1c-3.1-0.1-6.1,1-8,1.9
					c-1.5,0.7-2.7,1.4-3.3,1.8C60.5,83.1,60.5,82.9,60.5,82.6L60.5,82.6z M64,81.9c1.9-0.9,4.9-1.9,7.8-1.8c0.3,0,0.6,0,0.9,0.1
					l0,0.1l0,0c0,0.1,0,0.3,0,0.4c-2.1,0.1-7.9,1.6-10.6,2.3C62.6,82.6,63.3,82.2,64,81.9L64,81.9z"/>
				<path id="XMLID_00000000206870049959269240000002740181184677652382_" class="st1" d="M61.8,67.8l0,11.5c0,0,2-1.3,4.2-1.6
					c-0.2-2.9-0.2-11-0.2-11L61.8,67.8L61.8,67.8z"/>
				<path id="XMLID_00000146499654228381452380000009569041513680424115_" class="st1" d="M66.4,67.7c0-0.2,0.2-0.4,0.4-0.5
					c0.3-0.1,0.3,0.2,0.6,0.2c0.4,0.1,0.6-0.5,1.1-0.3c0.2,0.1,0.2,0.2,0.5,0.2c0.2,0,0.3-0.3,0.5-0.4c0.4-0.1,0.5,0.3,1-0.1
					c0.2,0.3,0.7,0.3,0.8,0"/>
				<path id="XMLID_00000067208938477471208190000003980459694516285844_" class="st1" d="M66.5,69c0.1-0.2,0.3-0.5,0.6-0.5
					c0.3,0,0.4,0.3,0.7,0.2c0.3,0,0.3-0.3,0.6-0.4c0.3,0,0.4,0.2,0.7,0.2c0.3,0,0.4-0.3,0.7-0.3c0.1,0,0.2,0.2,0.3,0.2
					c0.2,0,0.2-0.2,0.4-0.2c0.3-0.1,0.2,0,0.6,0c0.3,0,0.5,0,0.7-0.2"/>
				<path id="XMLID_00000089567172539776713120000018384381763819351471_" class="st1" d="M66.6,70.3c-0.1-0.6,1,0,1.2,0
					c0.2,0,0.4-0.4,0.6-0.4c0.3-0.1,0.4,0.2,0.7,0.2c0.4,0.1,0.5-0.2,0.8-0.3c0.4-0.1,0.4,0.1,0.7,0.1c0.3,0,0.4-0.3,0.7-0.3
					c0.2,0,0.4,0.3,0.6,0.1"/>
				<path id="XMLID_00000008854386293900436790000016264398421617225373_" class="st1" d="M66.8,71.9c0-0.2,0.2-0.4,0.4-0.5
					c0.3-0.1,0.3,0.2,0.6,0.2c0.4,0.1,0.6-0.5,1.1-0.3c0.2,0.1,0.2,0.2,0.5,0.2c0.2,0,0.3-0.3,0.5-0.4c0.4-0.1,0.5,0.3,1-0.1
					c0.2,0.3,0.7,0.3,0.8,0"/>
				<path id="XMLID_00000024688405499010367620000016483575502897531558_" class="st1" d="M66.9,73.2c0.1-0.2,0.3-0.5,0.6-0.5
					c0.3,0,0.4,0.3,0.7,0.2c0.3,0,0.3-0.3,0.6-0.4c0.3,0,0.4,0.2,0.7,0.2c0.3,0,0.4-0.3,0.7-0.3c0.1,0,0.2,0.2,0.3,0.2
					c0.2,0,0.2-0.2,0.4-0.2c0.3-0.1,0.2,0,0.6,0c0.3,0,0.5,0,0.7-0.2"/>
				<path id="XMLID_00000125596703984767427390000011445386842542636930_" class="st1" d="M67,74.6c-0.1-0.6,1,0,1.2,0
					c0.2,0,0.4-0.4,0.6-0.4c0.3-0.1,0.4,0.2,0.7,0.2c0.4,0.1,0.5-0.2,0.8-0.3c0.4-0.1,0.4,0.1,0.7,0.1c0.3,0,0.4-0.3,0.7-0.3
					c0.2,0,0.4,0.3,0.6,0.1"/>
				<path id="XMLID_00000029043541528166364500000001794600010431237776_" class="st1" d="M74.6,66.9c0.1-0.2,0.3-0.4,0.6-0.4
					c0.4,0,0.4,0.2,0.7,0.3c0.6,0.1,0.9-0.4,1.6-0.2c0.3,0.1,0.3,0.3,0.6,0.3c0.3,0,0.5-0.3,0.8-0.3c0.6,0,1.8,1.3,2.5,1
					c0.2,0.4,0.8,0.3,1.1,0.1"/>
				<path id="XMLID_00000136384615272473189200000008626151337403394957_" class="st1" d="M74.6,68.2c0.1-0.2,0.5-0.4,0.8-0.4
					c0.4,0,0.5,0.3,0.9,0.3c0.3,0,0.5-0.3,0.8-0.3c0.4,0,0.6,0.3,0.9,0.3c0.3,0,0.6-0.2,0.9-0.2c0.1,0,0.2,0.2,0.4,0.2
					c0.2,0,1.5,0.8,1.7,0.7c0.4-0.1,0.3,0,0.7,0.1c0.3,0.1,0.7,0,0.9-0.2"/>
				<path id="XMLID_00000171706354149396968280000004097586372337498777_" class="st1" d="M74.6,69.5c0-0.6,1.3,0.1,1.6,0.1
					c0.3,0,0.5-0.3,0.8-0.3c0.4,0,0.5,0.2,0.9,0.3c0.5,0.1,0.7-0.1,1.1-0.2c0.5-0.1,1.7,1,2.1,1.1c0.4,0.1,0.6-0.2,0.9-0.2
					c0.3,0,0.5,0.4,0.8,0.1"/>
				<path id="XMLID_00000023252187136211020270000011658794415551381172_" class="st1" d="M74.6,71.1c0.1-0.2,0.3-0.4,0.6-0.4
					c0.4,0,0.4,0.2,0.7,0.3c0.6,0.1,0.9-0.4,1.6-0.2c0.3,0.1,0.3,0.3,0.6,0.3c0.3,0,0.5-0.3,0.8-0.3c0.6,0,1.8,1.3,2.5,1
					c0.2,0.4,0.8,0.3,1.1,0.1"/>
				<path id="XMLID_00000104683499410410363030000009981623982644219277_" class="st1" d="M74.5,72.5c0.1-0.2,0.5-0.4,0.8-0.4
					c0.4,0,0.5,0.3,0.9,0.3c0.3,0,0.5-0.3,0.8-0.3c0.4,0,0.6,0.3,0.9,0.3c0.3,0,0.6-0.2,0.9-0.2c0.1,0,0.2,0.2,0.4,0.2
					c0.2,0,1.5,0.8,1.7,0.7c0.4-0.1,0.3,0,0.7,0.1c0.3,0.1,0.7,0,0.9-0.2"/>
				<path id="XMLID_00000154411969563781695810000010230358322053094304_" class="st1" d="M74.6,73.8c0-0.6,1.3,0.1,1.6,0.1
					c0.3,0,0.5-0.3,0.8-0.3c0.4,0,0.5,0.2,0.9,0.3c0.5,0.1,0.7-0.1,1.1-0.2c0.5-0.1,1.7,1,2.1,1.1c0.4,0.1,0.6-0.2,0.9-0.2
					c0.3,0,0.5,0.4,0.8,0.1"/>
				<path id="XMLID_00000010992431130043670760000014135506962479965569_" class="st1" d="M74.5,75.3c0-0.6,1.3,0.1,1.6,0.1
					c0.3,0,0.5-0.3,0.8-0.3c0.4,0,0.5,0.2,0.9,0.3c0.5,0.1,0.7-0.1,1.1-0.2c0.5-0.1,1.7,1,2.1,1.1c0.4,0.1,0.6-0.2,0.9-0.2
					c0.3,0,0.5,0.4,0.8,0.1"/>
			</g>
		</g>
	</g>
	<g id="XMLID_916_">
		<g>
			<g id="XMLID_00000060729217274348980910000007151211957447355064_">
				<path class="st1" d="M74.7,44.5l-1.8-9L51.2,46.9L30,35.5l-1.8,9.8c0,0-0.1,0.7-0.1,1.1c0,3.4,14.3,11.2,22.9,11.2
					c9.7,0,24.1-7.7,24.1-11.2C75,46,74.9,45.6,74.7,44.5z"/>
			</g>
			<g id="XMLID_00000020366615441203352550000017087865828308824977_">
				<polygon class="st1" points="51.4,45.5 18.1,27.6 51.5,18.2 84.8,27.5 				"/>
			</g>
			<polygon id="XMLID_00000146493183804104129590000013960269222157420170_" class="st2" points="18.4,28.7 16.4,46.7 18.3,50.1 
				20.2,46.7 			"/>
		</g>
	</g>
</g>
<g>
	<g>
		<path class="st2" d="M149,53.5h-5.7l-10.4-19h0l0.1,19h-5V26.2h5.8l10.4,19h0l-0.1-19h5V53.5z"/>
		<path class="st2" d="M172.3,53.5h-4.7l-0.3-2.6h0c-1.4,2.1-3.3,3.2-5.9,3.2c-5.1,0-7.7-3.6-7.7-10.8c0-3.3,0.6-5.9,1.9-7.9
			c1.3-2,3.3-3,6-3c2.7,0,4.6,1,5.6,3.1h0l0.2-2.5h4.8V53.5z M167.1,45v-3.3c0-1.4-0.4-2.6-1.1-3.6c-0.8-0.9-1.7-1.4-2.7-1.4
			c-1.4,0-2.4,0.5-3.1,1.5c-0.7,1-1,2.2-1,3.8v2.6c0,1.6,0.3,2.9,1,3.8c0.7,0.9,1.6,1.4,2.9,1.4c1.2,0,2.2-0.5,2.9-1.4
			C166.7,47.5,167.1,46.3,167.1,45z"/>
		<path class="st2" d="M188.5,53.2c-1.4,0.6-3,0.9-4.8,0.9c-3.8,0-5.7-2-5.6-5.9l0-10.9h-4.4V33h4.4l0-5.1l5.3-0.6l0,5.7h5.1v4.3
			h-5.1l0,10c0,0.9,0.2,1.6,0.5,1.9c0.4,0.4,0.9,0.6,1.7,0.6c0.4,0,0.8,0,1.2-0.1c0.4-0.1,0.8-0.2,1-0.3l0.4-0.1L188.5,53.2z"/>
		<path class="st2" d="M209.4,45.7c0,2.5-0.9,4.5-2.6,6.1c-1.7,1.6-4.2,2.3-7.5,2.3c-2.8,0-5.3-0.6-7.6-1.7l0.2-4.8
			c2.3,1.4,4.6,2.1,7,2.1c1.7,0,2.9-0.3,3.7-1c0.8-0.7,1.2-1.6,1.2-2.7c0-1.6-1.4-2.9-4.1-3.9l-1.1-0.4c-2.4-0.8-4.1-1.9-5.2-3.2
			c-1.1-1.3-1.6-3-1.6-5.3c0-2.3,0.8-4.2,2.5-5.6c1.7-1.4,4-2.1,6.9-2.1c2.5,0,4.8,0.5,6.9,1.4l-0.2,4.7c-2.3-1.1-4.4-1.6-6.3-1.6
			c-1.4,0-2.4,0.3-3.2,0.8c-0.7,0.5-1.1,1.3-1.1,2.4c0,0.9,0.3,1.7,1,2.2c0.7,0.6,1.7,1.1,3.1,1.6l1.1,0.4c2.4,0.8,4.1,1.8,5.2,3.1
			C208.8,41.9,209.4,43.6,209.4,45.7z"/>
		<path class="st2" d="M232.1,53.5h-5.3V41c0-2.6-1.1-3.9-3.4-3.9c-1.1,0-2.1,0.4-3,1.1c-0.8,0.8-1.3,1.7-1.3,2.7v12.6h-5.3V24.6
			h5.3v10.7h0c0.1-0.1,0.1-0.2,0.3-0.3s0.4-0.3,0.8-0.7c0.4-0.3,0.8-0.6,1.3-0.9s1-0.5,1.7-0.7c0.7-0.2,1.4-0.3,2.2-0.3
			c2.1,0,3.7,0.6,4.9,1.7c1.2,1.1,1.7,2.9,1.7,5.2V53.5z"/>
		<path class="st2" d="M255.7,45.7c0,2.8-0.7,5-2.2,6.4c-1.5,1.4-3.8,2.1-7,2.1c-3.1,0-5.3-0.7-6.7-2.1s-2.2-3.5-2.2-6.4V33h5.3
			v12.3c0,3,1.3,4.5,3.8,4.5c2.5,0,3.7-1.5,3.7-4.5V33h5.3V45.7z"/>
		<path class="st2" d="M266.8,53.5h-5.3V24.6h5.3V53.5z"/>
		<path class="st2" d="M289,42.3l-0.1,2.4h-12.5v0.5c0,1.3,0.4,2.5,1.2,3.4c0.8,0.9,2.1,1.4,3.8,1.4c2.2,0,4.3-0.5,6.3-1.5l0.2,4.1
			c-1.8,1-4.2,1.6-7.1,1.6c-3.6,0-6.1-0.9-7.5-2.7s-2.1-4.5-2.1-8c0-7.3,3.2-10.9,9.6-10.9c2.8,0,4.9,0.8,6.3,2.4
			C288.3,36.5,289,39,289,42.3z M284,41.1c0-0.7,0-1.3-0.1-1.8c-0.1-0.5-0.2-1.1-0.5-1.6c-0.2-0.5-0.6-0.9-1.1-1.2
			c-0.5-0.3-1.1-0.4-1.8-0.4c-1.4,0-2.4,0.5-3.1,1.5c-0.7,1-1.1,2.2-1.1,3.6H284z"/>
	</g>
	<g>
		<path class="st2" d="M132.6,71.8c1.2-0.2,2.6-0.3,4.2-0.3c2.8,0,4.8,0.7,6.1,1.9c1.3,1.2,2.1,3,2.1,5.4c0,2.5-0.8,4.5-2.2,5.9
			c-1.4,1.4-3.7,2.2-6.7,2.2c-1.4,0-2.6-0.1-3.5-0.2V71.8z M134.5,85.1c0.5,0.1,1.2,0.1,2,0.1c4.2,0,6.4-2.3,6.4-6.4
			c0-3.6-2-5.8-6.1-5.8c-1,0-1.8,0.1-2.3,0.2V85.1z"/>
		<path class="st2" d="M149.6,72.8c0,0.7-0.5,1.2-1.3,1.2c-0.7,0-1.2-0.5-1.2-1.2c0-0.7,0.5-1.2,1.2-1.2
			C149.2,71.5,149.6,72.1,149.6,72.8z M147.4,86.7V75.8h2v10.9H147.4z"/>
		<path class="st2" d="M162,75.8c0,0.8-0.1,1.7-0.1,3v6.3c0,2.5-0.5,4-1.5,5c-1.1,1-2.6,1.3-4,1.3c-1.3,0-2.7-0.3-3.6-0.9l0.5-1.5
			c0.7,0.4,1.8,0.9,3.2,0.9c2,0,3.5-1.1,3.5-3.8v-1.2h0c-0.6,1-1.8,1.8-3.5,1.8c-2.7,0-4.6-2.3-4.6-5.3c0-3.7,2.4-5.8,4.9-5.8
			c1.9,0,2.9,1,3.4,1.9h0l0.1-1.6H162z M160,80.1c0-0.3,0-0.6-0.1-0.9c-0.4-1.1-1.3-2.1-2.8-2.1c-1.9,0-3.2,1.6-3.2,4.1
			c0,2.1,1.1,3.9,3.2,3.9c1.2,0,2.3-0.8,2.7-2c0.1-0.3,0.2-0.7,0.2-1.1V80.1z"/>
		<path class="st2" d="M167.3,72.8c0,0.7-0.5,1.2-1.3,1.2c-0.7,0-1.2-0.5-1.2-1.2c0-0.7,0.5-1.2,1.2-1.2
			C166.8,71.5,167.3,72.1,167.3,72.8z M165.1,86.7V75.8h2v10.9H165.1z"/>
		<path class="st2" d="M172.7,72.7v3.1h2.8v1.5h-2.8v5.9c0,1.3,0.4,2.1,1.5,2.1c0.5,0,0.9-0.1,1.1-0.1l0.1,1.5
			c-0.4,0.2-1,0.3-1.8,0.3c-0.9,0-1.7-0.3-2.1-0.8c-0.6-0.6-0.8-1.5-0.8-2.8v-5.9h-1.7v-1.5h1.7v-2.6L172.7,72.7z"/>
		<path class="st2" d="M183.8,86.7l-0.2-1.4h-0.1c-0.6,0.9-1.8,1.6-3.3,1.6c-2.2,0-3.3-1.5-3.3-3.1c0-2.6,2.3-4.1,6.5-4v-0.2
			c0-0.9-0.2-2.5-2.5-2.5c-1,0-2.1,0.3-2.8,0.8l-0.4-1.3c0.9-0.6,2.2-1,3.6-1c3.3,0,4.1,2.3,4.1,4.4v4.1c0,0.9,0,1.9,0.2,2.6H183.8z
			 M183.5,81.2c-2.2,0-4.6,0.3-4.6,2.4c0,1.3,0.9,1.9,1.9,1.9c1.4,0,2.3-0.9,2.6-1.8c0.1-0.2,0.1-0.4,0.1-0.6V81.2z"/>
		<path class="st2" d="M188.6,70.8h2v15.9h-2V70.8z"/>
		<path class="st2" d="M200.4,86.7l-3.8-15.1h2.1l1.8,7.7c0.4,1.9,0.9,3.8,1.1,5.2h0c0.2-1.5,0.7-3.3,1.2-5.3l2-7.6h2l1.8,7.7
			c0.4,1.8,0.8,3.6,1.1,5.2h0c0.3-1.7,0.7-3.3,1.2-5.2l2-7.6h2l-4.3,15.1h-2l-1.9-7.9c-0.5-1.9-0.8-3.4-1-4.9h0
			c-0.3,1.5-0.6,3-1.2,4.9l-2.2,7.9H200.4z"/>
		<path class="st2" d="M222.1,86.7l-0.2-1.4h-0.1c-0.6,0.9-1.8,1.6-3.3,1.6c-2.2,0-3.3-1.5-3.3-3.1c0-2.6,2.3-4.1,6.5-4v-0.2
			c0-0.9-0.2-2.5-2.5-2.5c-1,0-2.1,0.3-2.8,0.8l-0.4-1.3c0.9-0.6,2.2-1,3.6-1c3.3,0,4.1,2.3,4.1,4.4v4.1c0,0.9,0,1.9,0.2,2.6H222.1z
			 M221.8,81.2c-2.2,0-4.6,0.3-4.6,2.4c0,1.3,0.9,1.9,1.9,1.9c1.4,0,2.3-0.9,2.6-1.8c0.1-0.2,0.1-0.4,0.1-0.6V81.2z"/>
		<path class="st2" d="M226.9,70.8h2v15.9h-2V70.8z"/>
		<path class="st2" d="M232.2,70.8h2v15.9h-2V70.8z"/>
		<path class="st2" d="M238.6,81.6c0,2.7,1.8,3.8,3.7,3.8c1.4,0,2.3-0.2,3-0.6l0.3,1.4c-0.7,0.3-1.9,0.7-3.6,0.7
			c-3.3,0-5.3-2.2-5.3-5.5c0-3.3,1.9-5.9,5.1-5.9c3.5,0,4.5,3.1,4.5,5.1c0,0.4,0,0.7-0.1,0.9H238.6z M244.4,80.2
			c0-1.3-0.5-3.2-2.7-3.2c-2,0-2.9,1.8-3,3.2H244.4z"/>
		<path class="st2" d="M251.1,72.7v3.1h2.8v1.5h-2.8v5.9c0,1.3,0.4,2.1,1.5,2.1c0.5,0,0.9-0.1,1.1-0.1l0.1,1.5
			c-0.4,0.2-1,0.3-1.8,0.3c-0.9,0-1.7-0.3-2.1-0.8c-0.6-0.6-0.8-1.5-0.8-2.8v-5.9h-1.7v-1.5h1.7v-2.6L251.1,72.7z"/>
	</g>
</g>
</svg>
