<?xml version="1.0" encoding="utf-8"?>
<!-- Generator: Adobe Illustrator 26.0.0, SVG Export Plug-In . SVG Version: 6.00 Build 0)  -->
<svg version="1.1" id="Layer_1" xmlns="http://www.w3.org/2000/svg" xmlns:xlink="http://www.w3.org/1999/xlink" x="0px" y="0px"
	 viewBox="0 0 291.8 115.8" style="enable-background:new 0 0 291.8 115.8;" xml:space="preserve">
<style type="text/css">
	.st0{fill:#F9B715;stroke:#FFFFFF;stroke-width:3;stroke-miterlimit:10;}
	.st1{fill:#3D1A0F;}
	.st2{fill:#FFFFFF;}
</style>
<path class="st0" d="M95.6,44C93.9,49,95.3,54,96.9,59.8c2,7.2,4.3,15.4,1.2,25.7c-5.7,19.3-20.3,21.7-27.3,22.8
	c-6.9,1.1-12,3.3-13.8,5.9h-3.5c-0.7-1-3.4-3.9-12.1-5.4c-12.5-2.1-23.6-5.1-32.7-20.7C4.5,81,6.8,70.7,9.1,60.8
	c2.9-12.6,5.3-23.6-4.7-27l-1.6-0.5L34,3.3l0.2,2.2c0,0.4,1.1,10.5,20.3,11.4c8,0.4,13.9-1.1,17.6-4.5c3.5-3.1,3.7-6.9,3.7-6.9
	l0.1-2.1l1.6,1.4l31.6,28l-1.9,0.4C106.7,33.2,98.4,35.2,95.6,44z"/>
<g>
	<g id="XMLID_26_">
		<path id="XMLID_940_" class="st1" d="M53.8,65.5C53.8,65.4,53.8,65.4,53.8,65.5c-0.1-0.1-0.1-0.1-0.1-0.1c-0.1,0-0.2,0-0.6,0.3
			c-0.3,0.2-0.7,0.5-1.2,0.9c-1,0.8-2.3,1.9-3.6,3.1c-0.4,0.3-0.7,0.7-1.1,1l-0.1,0.1c-1.1,1-2,1.8-2.7,2.4c-0.8,0.7-1,1-1.1,1.1
			c0,0-0.1,0-0.1,0l-2.4,2.1c-0.1,0-0.2,0-0.3,0c-0.5,0-0.9,0.3-1.1,0.8l0,0.1c-0.2,0.5-0.2,0.5-0.8,1.1c-0.1,0.1-0.2,0.3-0.4,0.4
			c0,0-0.1,0.1-0.1,0.1c0,0.1,0.1,0.1,0.2,0.1h0c0.5,0,2.3-0.5,2.9-1.1c0.3-0.3,0.4-0.6,0.3-0.8l2.4-2c0,0,0.1-0.1,0.1-0.1
			c0.8-0.5,2.7-2.2,4.7-4l0.4-0.3c1.3-1.2,2.6-2.4,3.5-3.3c0.4-0.5,0.8-0.8,1-1.1C53.9,65.7,53.9,65.6,53.8,65.5L53.8,65.5z
			 M43.7,74.9l-2.3,1.9c-0.1-0.1-0.2-0.2-0.3-0.3l2.2-2c0,0,0.1,0.1,0.1,0.1C43.6,74.7,43.7,74.8,43.7,74.9L43.7,74.9z M44.2,74.3
			L44,74c0,0,0.1-0.1,0.2-0.2c0.2-0.2,0.4-0.4,0.7-0.7c0.6-0.6,1.5-1.4,2.5-2.3l0,0c0.4-0.3,0.7-0.6,1.1-1c1.2-1.1,2.4-2.1,3.4-2.9
			c0.9-0.7,1.3-0.9,1.4-1c-0.1,0.2-0.4,0.5-1.1,1.3c-0.8,0.9-2,1.9-3.2,3.1l-0.3,0.3C46.8,72.3,45,73.9,44.2,74.3L44.2,74.3z"/>
		<g id="XMLID_901_">
			<g>
				<path id="XMLID_00000142142349172005147730000003831820070171594943_" class="st1" d="M32.1,69c0.5,1.2,0.8,2.5,0.8,3.8
					c0,1.3-0.3,2.6-0.8,3.8c-0.5,1.2-1.2,2.2-2.1,3.1c-0.8,0.8-1.6,1.4-2.6,1.8l0.3,1.5l-0.2,0c-0.8,0.1-1.5,0.2-2.2,0.3l0.3,3.4
					c0.9,0,1.7,0.1,2.4,0.2c0.6,0.1,1.2,0.2,1.5,0.3c0.2,0.1,0.3,0.1,0.5,0.2c0.2,0.1,0.3,0.2,0.3,0.4s-0.1,0.3-0.3,0.4
					c-0.1,0.1-0.3,0.1-0.5,0.2c-0.4,0.1-0.9,0.2-1.5,0.3C26.7,88.9,25,89,23.1,89c-1.9,0-3.6-0.1-4.9-0.2c-0.6-0.1-1.2-0.2-1.5-0.3
					c-0.2-0.1-0.3-0.1-0.5-0.2c-0.2-0.1-0.3-0.2-0.3-0.4c0-0.1,0.1-0.3,0.3-0.4c0.1-0.1,0.3-0.1,0.5-0.2c0.4-0.1,0.9-0.2,1.5-0.3
					c0.7-0.1,1.5-0.1,2.4-0.2l0.8-3.5c-0.2,0-0.4-0.1-0.6-0.1c-1.7-0.3-3.2-1-4.5-1.9c-0.9-0.6-1.6-1.4-2.3-2.3
					c-0.5-0.7-0.9-1.5-1.3-2.4c-0.6-1.5-0.7-2.6-0.7-2.6l0,0l0,0c0-2,0.4-3.8,1-5.4c0.5-1.3,1.2-2.4,2.1-3.4
					c0.8-0.9,1.6-1.4,2.1-1.7c0.6-0.4,1-0.5,1-0.5l0.2-0.1l0.7,0.9c0,0,0.1,0,0.1,0c1.2-0.5,2.5-0.8,3.8-0.8s2.6,0.3,3.8,0.8
					c1.2,0.5,2.2,1.2,3.1,2.1C30.9,66.8,31.6,67.8,32.1,69L32.1,69z M32.4,72.8c0-1.9-0.5-3.6-1.5-5c0,0.1,0,0.2,0,0.3
					c-0.1,0.1-0.2,0.2-0.5,0.2c-0.2,0-0.4-0.1-0.4-0.1c-0.3-0.2-0.5-0.4-0.6-0.7c0-0.1-0.1-0.2-0.1-0.2c0,0,0,0-0.1,0
					c0,0-0.1,0-0.1,0c-0.1,0-0.2-0.1-0.2-0.1c-0.1-0.1-0.2-0.1-0.3-0.1c-0.1,0-0.2,0.1-0.3,0.1c-0.1,0-0.2,0.1-0.3,0.1
					c-0.2,0-0.3,0-0.5-0.1c-0.1,0-0.3-0.1-0.3,0c0,0,0,0,0,0c0,0,0.1,0.1,0.2,0.2c0.2,0.1,0.3,0,0.5,0c0.1,0,0.1,0,0.2-0.1
					c0,0,0,0,0,0c0.3-0.1,0.6,0,0.9,0.2c0.2,0.2,0.3,0.4,0.2,0.7c-0.1,0.4-0.4,0.8-0.7,1c-0.1,0.1-0.3,0.1-0.4,0.1c0,0-0.1,0-0.1,0
					c-0.4-0.1-0.9-0.3-1.2-0.5c-0.1,0-0.2-0.1-0.3-0.1c-0.2-0.1-0.3-0.2-0.4-0.3c-0.1-0.1-0.1-0.1-0.2-0.2c0,0-0.1-0.1-0.1-0.1
					c-0.2-0.1-0.3-0.2-0.4-0.4c0,0-0.1-0.1-0.1-0.1c-0.1-0.2-0.2-0.3-0.3-0.4c-0.2-0.1-0.2,0-0.4,0c-0.1,0-0.1,0.1-0.2,0.1
					c-0.1,0.1-0.2,0.1-0.3,0.1c-0.2,0-0.3-0.1-0.4-0.2c0,0,0,0-0.1-0.1c-0.1-0.1-0.2-0.1-0.3-0.1c0,0-0.1,0-0.1,0.1c0,0,0,0.1,0,0.1
					c0,0.1,0,0.3-0.2,0.4c-0.1,0.1-0.2,0.1-0.3,0c-0.1,0-0.2-0.1-0.2-0.2c0,0.1-0.1,0.1-0.1,0.1c-0.1,0-0.1,0-0.2,0
					c0.1,0.1,0.1,0.2,0.1,0.4c0,0.1-0.2,0.2-0.4,0.3c-0.1,0-0.1,0-0.2,0c0,0-0.1,0-0.1-0.1c-0.1,0-0.1,0-0.2-0.1l-0.1-0.1l0.1-0.1
					c0,0,0,0,0.1-0.1c0.1-0.1,0.1-0.2,0.1-0.2c0,0-0.2,0-0.2,0c-0.1,0-0.1,0-0.2,0c-0.1,0-0.1,0-0.2-0.1c-0.1,0-0.2-0.1-0.3,0
					c0,0,0,0,0,0.1c0,0.1,0,0.1-0.1,0.2c-0.1,0.1-0.2,0.1-0.2,0.1c0,0-0.1,0-0.1,0c-0.2,0.1-0.2,0.2-0.3,0.4c0,0.1-0.1,0.2-0.1,0.2
					c0,0,0,0-0.1,0.1c0,0-0.1,0.1-0.1,0.1c0,0,0,0-0.1,0c-0.1,0.1-0.7,0.3-0.9,0.1c-0.1,0-0.2-0.1-0.1-0.4c0-0.3,0.2-0.4,0.4-0.6
					c0.2-0.2,0.3-0.3,0.3-0.5c0-0.1,0-0.1,0-0.2c0-0.2,0-0.3,0.2-0.5c0.1,0,0.1-0.1,0.1-0.1c0,0,0,0,0,0c0,0,0,0,0,0
					c0,0,0-0.1,0-0.1c0-0.1-0.1-0.1,0-0.2c0.1-0.1,0.2-0.2,0.2-0.2c0,0,0.1,0,0.1,0c0,0,0,0,0.1-0.1c0,0,0,0,0.1-0.1
					c0.1-0.1,0.2-0.2,0.4-0.3c-0.3,0-0.7-0.1-0.8-0.3L19,65.3l0.1,0c0,0,0-0.2,0-0.3c0-0.1,0-0.3,0-0.4c0.1-0.2,0.3-0.4,0.7-0.5
					c0.1,0,0.3,0,0.5,0c0.2,0,0.4,0,0.5,0c0.1,0,0.1-0.2,0.2-0.3c0,0,0-0.1,0-0.1c-4.3,0.9-7.5,4.7-7.5,9.2c0,1.2,0.2,2.3,0.6,3.3
					c-0.1,0-0.1,0-0.2,0l0.1,0.2c0.1,0,0.1,0,0.2,0c0,0,0,0,0,0c0.7,1.8,2,3.2,3.6,4.3c0.1,0.1,0.1,0.2,0.1,0.3l0.2,0
					c0,0,0-0.1,0-0.1c1.4,0.8,3,1.3,4.8,1.3C28.2,82.2,32.4,78,32.4,72.8L32.4,72.8z M30.7,68c0-0.1-0.1-0.3-0.1-0.4
					c0-0.1-0.1-0.2-0.1-0.2c0-0.1-0.1-0.2-0.1-0.3c-1.7-2.2-4.4-3.6-7.4-3.6c-0.6,0-1.1,0-1.6,0.1c0,0.1,0,0.1-0.1,0.2
					c-0.1,0.2-0.1,0.4-0.3,0.5c-0.2,0.1-0.4,0.1-0.7,0.1c-0.1,0-0.3,0-0.4,0c-0.1,0-0.4,0.1-0.5,0.3c0,0.1,0,0.2,0,0.3
					c0,0.1,0,0.3-0.1,0.4c0,0,0.1,0.1,0.2,0.1c0.2,0,0.3,0,0.4,0c0.1-0.1,0.2-0.2,0.2-0.4c0-0.1,0-0.2,0.1-0.3l0-0.1l0.1,0
					c0.2,0,0.4,0,0.4,0.1c0.1,0.1,0.1,0.3,0,0.4c-0.1,0.2-0.3,0.3-0.5,0.4c0,0-0.1,0-0.1,0.1c-0.2,0.1-0.4,0.2-0.5,0.4
					c0,0,0,0,0,0.1c0,0-0.1,0.1-0.1,0.1c-0.1,0-0.1,0-0.2,0.1c0,0-0.1,0-0.1,0c0,0,0,0,0,0.1c0,0.1,0.1,0.2,0,0.3
					c0,0.1-0.1,0.2-0.2,0.2c0,0,0,0-0.1,0C19,67.1,19,67.1,19,67.1c0,0,0,0.1,0,0.1c0,0,0,0.1,0,0.2c0,0.3-0.2,0.5-0.3,0.7
					c-0.1,0.1-0.3,0.3-0.3,0.4c0,0.1,0,0.1,0,0.1c0,0,0.1,0,0.3,0c0.1,0,0.3-0.1,0.4-0.1c0.2-0.1,0.2-0.2,0.3-0.4
					c0.1-0.2,0.1-0.4,0.4-0.5c0,0,0.1,0,0.1-0.1c0.1,0,0.1,0,0.2-0.1c0,0,0,0,0-0.1c0-0.1,0-0.1,0.1-0.2c0.2-0.1,0.4-0.1,0.5,0
					c0.1,0,0.1,0,0.2,0c0,0,0.1,0,0.1,0c0.2,0,0.3,0,0.4,0.1c0.1,0.1,0.1,0.2,0.1,0.3c0,0,0,0.1-0.1,0.1c0,0,0.1,0,0.2,0
					c0.1,0,0.2-0.1,0.2-0.1c0,0,0-0.1-0.1-0.2c-0.1-0.1-0.1-0.2-0.2-0.3l0-0.1c-0.1,0-0.4-0.1-0.4-0.2c0-0.1,0-0.2,0.1-0.3
					c0.2-0.1,0.5-0.1,0.6,0c0.2,0.1,0.4,0.2,0.5,0.3c0.1,0.1,0.1,0.2,0.1,0.3c0,0.1,0,0.1,0.1,0.2c0.1,0,0.1,0,0.1,0
					c0,0,0-0.1,0.1-0.2c0-0.1,0-0.1,0-0.2c0.1-0.2,0.2-0.2,0.3-0.2c0.2,0,0.4,0,0.5,0.1c0,0,0.1,0,0.1,0.1c0.2,0.2,0.2,0.2,0.5,0.1
					c0.1,0,0.1-0.1,0.2-0.1c0.1-0.1,0.3-0.2,0.6-0.1c0.2,0.1,0.3,0.3,0.4,0.5c0,0,0,0.1,0.1,0.1c0.1,0.2,0.2,0.2,0.3,0.3
					c0,0,0.1,0.1,0.1,0.1c0.1,0.1,0.2,0.1,0.3,0.2c0.1,0.1,0.2,0.2,0.4,0.3c0.1,0,0.2,0.1,0.3,0.1c0.4,0.2,0.8,0.4,1.2,0.5
					c0.1,0,0.3,0,0.4-0.1c0.3-0.2,0.6-0.6,0.6-0.9c0-0.2,0-0.4-0.2-0.5c-0.2-0.2-0.4-0.2-0.7-0.2c-0.1,0-0.1,0-0.2,0
					c-0.2,0.1-0.4,0.1-0.6,0c-0.1-0.1-0.4-0.2-0.4-0.4c0-0.1,0-0.2,0.2-0.2c0.1-0.1,0.3,0,0.5,0c0.1,0,0.3,0.1,0.4,0.1
					c0.1,0,0.2-0.1,0.2-0.1c0.1-0.1,0.3-0.1,0.4-0.1c0.2,0,0.3,0.1,0.4,0.1c0.1,0,0.1,0.1,0.2,0.1c0,0,0.1,0,0.1,0
					c0.2,0.1,0.3,0.1,0.4,0.4c0.1,0.3,0.2,0.5,0.5,0.6C30.3,68,30.6,68.1,30.7,68L30.7,68z M29.7,87.9c-0.2-0.1-0.7-0.2-1.9-0.4
					c-0.8-0.1-1.8-0.1-2.8-0.2c-0.5,0.1-1,0.1-1.5,0.1c-0.3,0-0.6,0-1,0c-0.3,0-0.7-0.1-0.9-0.1c-1.1,0-2.1,0.1-3,0.2
					c-1.2,0.1-1.7,0.3-1.9,0.4c0.2,0.1,0.7,0.2,1.9,0.4c1.3,0.1,2.9,0.2,4.6,0.2c1.7,0,3.3-0.1,4.6-0.2C28.9,88.2,29.4,88,29.7,87.9
					L29.7,87.9z M27.2,82.8L27,81.9c0,0-0.1,0-0.1,0.1c-1.2,0.5-2.5,0.8-3.8,0.8c-1.3,0-2.6-0.3-3.8-0.8c-1.2-0.5-2.2-1.2-3.1-2.1
					c-0.9-0.9-1.6-2-2.1-3.1c-0.5-1.2-0.8-2.5-0.8-3.8c0-1.3,0.3-2.6,0.8-3.8c0.5-1.2,1.2-2.2,2.1-3.1c0.8-0.8,1.6-1.4,2.6-1.9
					l-0.4-0.5c-0.2,0.1-0.4,0.2-0.7,0.4c-0.5,0.3-1.2,0.8-2,1.7c-1.3,1.5-2.9,4.1-3,8.4c0,0.1,0.2,1.2,0.7,2.5
					c0.5,1.3,1.5,3.1,3.4,4.5C19.2,82.9,22.8,83.5,27.2,82.8L27.2,82.8z M25.1,86.9l-0.3-3.3c-0.4,0-0.7,0-1.1,0
					c-0.6,0-1.2,0-1.8-0.1l-0.8,3.4c0.1,0,0.2,0,0.4,0.1c0.5,0,1.1,0,1.6,0c0.6,0,1.2,0,1.8,0C25,86.9,25.1,86.9,25.1,86.9
					L25.1,86.9z M21.9,67.2C21.9,67.1,21.9,67.1,21.9,67.2C21.9,67.1,21.9,67.1,21.9,67.2c-0.2-0.1-0.2-0.1-0.3,0c0,0,0,0,0,0
					c0,0,0.1,0,0.1,0C21.7,67.2,21.9,67.2,21.9,67.2C21.9,67.2,21.9,67.2,21.9,67.2L21.9,67.2z M21.6,66.9c0.1,0,0.2,0,0.3,0
					c-0.1,0-0.2-0.1-0.2-0.1c-0.2-0.1-0.3,0-0.4,0c0,0,0,0,0,0.1c0,0,0.2,0.1,0.3,0.1C21.4,66.9,21.5,66.9,21.6,66.9L21.6,66.9z
					 M20.6,65.2c0-0.1,0-0.1,0-0.2c0,0-0.1-0.1-0.1-0.1c0,0.1,0,0.1,0,0.2c0,0.1,0,0.2-0.1,0.3C20.5,65.4,20.6,65.3,20.6,65.2z"/>
				<path id="XMLID_00000096782093251041911840000010026967563162088832_" class="st1" d="M30.7,73.4c0,0.3,0.1,1.4-0.4,1.7
					c-0.1,0-0.1,0.1-0.2,0.1c-0.1,0-0.1,0-0.2-0.1c-0.4-0.3-0.6-1.4-0.4-2.1c0-0.1,0.1-0.3,0.2-0.3l-0.1,0c0-0.2,0.1-0.3,0.3-0.4
					c0.2-0.1,0.4,0,0.5,0.2C30.6,72.7,30.7,73,30.7,73.4C30.7,73.3,30.7,73.3,30.7,73.4L30.7,73.4z M30.2,74.9
					c0.2-0.2,0.3-0.9,0.3-1.5c0,0,0,0,0-0.1c0-0.2,0-0.5-0.2-0.7c0,0-0.1-0.1-0.1-0.1l0,0.2c-0.2,0-0.3,0.1-0.4,0.4
					c-0.1,0.3-0.1,0.7,0,1.1C29.8,74.6,30,74.8,30.2,74.9C30.1,74.9,30.1,74.9,30.2,74.9L30.2,74.9z"/>
				<path id="XMLID_00000040556762401162918830000014602860195278566812_" class="st1" d="M27.7,87.6c1.2,0.1,1.7,0.3,1.9,0.4
					c-0.2,0.1-0.7,0.2-1.9,0.4c-1.3,0.1-2.9,0.2-4.6,0.2c-1.7,0-3.3-0.1-4.6-0.2c-1.2-0.1-1.7-0.3-1.9-0.4c0.2-0.1,0.7-0.2,1.9-0.4
					c0.9-0.1,1.9-0.2,3-0.2c0.3,0,0.6,0.1,0.9,0.1c0.3,0,0.7,0,1,0c0.6,0,1.1,0,1.5-0.1C26,87.4,26.9,87.5,27.7,87.6L27.7,87.6z"/>
				<path id="XMLID_00000029008668586174807650000008565190356573490095_" class="st1" d="M28.9,73c0.4,0.4,0.2,0.8,0,1.1
					c-0.1,0.1-0.1,0.2-0.2,0.4c-0.1,0.3,0,0.5,0.1,0.7c0,0.1,0.1,0.3,0.1,0.5c0.1,0.7,0,1.2-0.2,1.5c-0.2,0.2-0.4,0.5-0.6,0.7
					C28,77.9,28,78,27.9,78.1c-0.1,0.1-0.2,0.2-0.3,0.3c-0.1,0.1-0.2,0.1-0.3,0.1c-0.3,0-0.4-0.2-0.5-0.4c0-0.1-0.1-0.1-0.1-0.2
					c-0.1-0.1-0.2-0.2-0.3-0.3c-0.2-0.2-0.4-0.3-0.5-0.5c0-0.1-0.1-0.1-0.1-0.2c-0.1-0.1-0.1-0.2-0.2-0.3c0,0-0.1-0.1-0.2-0.2
					c-0.2-0.1-0.5-0.3-0.5-0.5c0-0.1,0-0.2,0.1-0.2c0,0,0-0.1,0-0.1c0,0,0-0.1,0-0.2c0,0,0,0,0-0.1c0-0.2-0.1-0.4-0.2-0.6
					c-0.1-0.2-0.1-0.3-0.3-0.3c0,0-0.1,0-0.2,0c-0.2,0-0.5,0-0.6-0.2c-0.1-0.1-0.1-0.2,0-0.3c0-0.1,0-0.1,0-0.2
					c-0.1-0.1-0.3-0.3-0.5-0.3c-0.1-0.1-0.3-0.1-0.4-0.1c-0.3,0-0.6,0.1-0.9,0.5c-0.3,0.4-0.8,0.6-1.3,0.6c-0.1,0-0.2,0-0.2,0
					c-0.1,0-0.1,0-0.2-0.1c0,0-0.1,0-0.1,0c0,0,0,0,0,0c0,0-0.1,0-0.1,0c-0.1,0-0.1,0-0.2,0c0,0,0,0-0.1,0c-0.2,0-0.3-0.1-0.4-0.2
					c-0.1-0.1-0.1-0.1-0.2-0.2c-0.1,0-0.1,0-0.2-0.1c-0.2-0.1-0.3-0.1-0.4-0.4c0-0.2-0.1-0.3-0.2-0.5l0,0c-0.2-0.3-0.2-0.3,0-0.7
					C18,72.1,18,72,18,71.8c0-0.3,0.1-0.6,0.1-0.9c0-0.1,0.1-0.3,0.1-0.4c0-0.1,0-0.1,0-0.2c0-0.1,0-0.3,0.1-0.4
					c0.1-0.1,0.2-0.2,0.3-0.3c0,0,0.1-0.1,0.1-0.1c0.1-0.1,0.2-0.3,0.3-0.4c0.1-0.1,0.1-0.2,0.2-0.3c0.1-0.1,0.1-0.1,0.2-0.2
					c0.3-0.3,0.9-0.5,1.3-0.5c0.1,0,0.1,0,0.2,0l0,0c0.1,0.1,0.2,0.1,0.3,0.1c0.1,0,0.1,0.1,0.2,0.1c0.1,0.1,0.3,0.2,0.4,0.2
					c0,0,0.1,0,0.1,0c0.1,0,0.2-0.1,0.4-0.2c0.1-0.1,0.2-0.2,0.3-0.2c0.1,0,0.1,0,0.2-0.1c0.4-0.1,0.7-0.3,1.2-0.3c0,0,0,0,0.1,0
					c0.4,0,0.7,0.2,1,0.5c0.1,0.1,0.1,0.1,0.2,0.2c0.2,0.2,0.5,0.3,0.8,0.5c0.3,0.2,0.6,0.3,0.9,0.6c0.2,0.2,0.3,0.2,0.5,0.2
					c0.1,0,0.3-0.1,0.6-0.2c0,0,0,0,0.1,0c0.1,0,0.2-0.1,0.3-0.1c0.1,0,0.2,0,0.3,0.3c0.1,0.3,0,0.6-0.1,0.9
					c-0.1,0.2-0.1,0.4-0.2,0.6c-0.1,0.3-0.3,0.6-0.2,1c0,0.3,0.3,0.6,0.5,0.9C28.8,72.9,28.9,73,28.9,73L28.9,73z M28.7,74
					c0.2-0.3,0.3-0.5,0-0.8c-0.1-0.1-0.1-0.1-0.2-0.2c-0.3-0.3-0.6-0.6-0.6-1.1c0-0.4,0.1-0.7,0.3-1.1c0.1-0.2,0.1-0.4,0.2-0.5
					c0.1-0.2,0.1-0.5,0.1-0.7c0-0.1,0-0.1-0.1-0.1c0,0-0.1,0-0.2,0.1c0,0,0,0-0.1,0c-0.3,0.1-0.5,0.2-0.6,0.2
					c-0.2,0-0.4-0.1-0.7-0.3c-0.3-0.2-0.6-0.4-0.9-0.5c-0.3-0.1-0.6-0.3-0.8-0.5c-0.1-0.1-0.2-0.1-0.2-0.2c-0.3-0.2-0.5-0.4-0.9-0.4
					c0,0,0,0,0,0c-0.4,0-0.7,0.2-1.1,0.3c-0.1,0-0.1,0-0.2,0.1c-0.1,0-0.2,0.1-0.3,0.2c-0.1,0.1-0.3,0.2-0.5,0.2c0,0-0.1,0-0.1,0
					c-0.2,0-0.4-0.1-0.6-0.2c-0.1-0.1-0.2-0.1-0.3-0.1c-0.1,0-0.2-0.1-0.3-0.1c-0.4,0-1,0.2-1.2,0.5c-0.1,0.1-0.2,0.3-0.3,0.4
					c-0.1,0.2-0.2,0.4-0.3,0.5c-0.1,0.1-0.1,0.1-0.2,0.1c-0.1,0.1-0.2,0.1-0.2,0.2c0,0.1-0.1,0.2-0.1,0.3c0,0.1,0,0.1,0,0.2
					c0,0.1-0.1,0.3-0.1,0.4c-0.1,0.3-0.1,0.6-0.1,0.9c0,0.2,0,0.4-0.1,0.6c-0.1,0.1-0.1,0.2-0.1,0.2c0,0,0,0.1,0.1,0.2l0,0
					c0.1,0.2,0.2,0.4,0.2,0.6c0,0.2,0.1,0.2,0.2,0.3c0,0,0.1,0,0.2,0.1c0.1,0,0.2,0.1,0.3,0.2c0.1,0.1,0.2,0.1,0.3,0.2c0,0,0,0,0,0
					c0,0,0.1,0,0.1,0c0.1,0,0.1,0,0.2,0c0,0,0,0,0,0c0.1,0,0.1,0,0.2,0.1c0,0,0.1,0,0.1,0c0.1,0,0.1,0,0.2,0c0.4,0,0.9-0.2,1.2-0.5
					c0.4-0.4,0.7-0.5,1.1-0.5c0.2,0,0.3,0,0.5,0.1c0.2,0.1,0.4,0.2,0.6,0.4c0.1,0.1,0.1,0.3,0.1,0.4c0,0.1,0,0.1,0,0.1
					c0,0.1,0.3,0.1,0.4,0.1c0.1,0,0.1,0,0.2,0c0.3,0.1,0.4,0.2,0.5,0.4c0.1,0.2,0.2,0.4,0.2,0.7c0,0,0,0,0,0.1c0,0.1,0,0.2,0,0.3
					c0,0.1,0,0.1-0.1,0.2c0,0,0,0.1,0,0.1c0,0.1,0.2,0.2,0.4,0.4c0.1,0.1,0.2,0.1,0.2,0.2c0.1,0.1,0.2,0.3,0.3,0.4
					c0,0,0.1,0.1,0.1,0.2c0.1,0.2,0.3,0.3,0.5,0.5c0.1,0.1,0.2,0.2,0.3,0.3c0.1,0.1,0.1,0.1,0.2,0.2c0.1,0.2,0.2,0.3,0.4,0.3
					c0.1,0,0.1,0,0.2-0.1c0.1-0.1,0.2-0.2,0.2-0.3c0.1-0.1,0.2-0.2,0.2-0.3c0.2-0.2,0.4-0.4,0.5-0.6c0.2-0.3,0.3-0.7,0.2-1.4
					c0-0.1-0.1-0.3-0.1-0.4c-0.1-0.3-0.2-0.5-0.1-0.9C28.6,74.3,28.7,74.1,28.7,74L28.7,74z"/>
				<path id="XMLID_00000162338457309290874360000007670882095280655550_" class="st1" d="M26,65.5c0.1,0.1,0.2,0.2,0.2,0.3
					c0,0.2-0.1,0.3-0.3,0.3c-0.1,0-0.2,0-0.2-0.1c0,0,0,0,0,0l0,0c-0.2-0.1-0.4-0.1-0.5-0.3c0,0-0.1-0.1-0.1-0.1
					c-0.1-0.1-0.1-0.1-0.3-0.2c0,0-0.1,0-0.1,0c-0.1,0-0.3-0.1-0.4-0.2c0-0.1,0-0.2,0-0.3c0.1-0.2,0.2-0.2,0.3-0.2
					c0.2,0,0.4,0.2,0.7,0.4c0.1,0.1,0.3,0.3,0.3,0.3c0,0,0,0,0.1,0C25.8,65.4,25.9,65.5,26,65.5L26,65.5z M25.9,65.8
					c0-0.1,0-0.1-0.2-0.1c0,0-0.1,0-0.1,0c-0.1,0-0.3-0.2-0.5-0.3c-0.2-0.2-0.4-0.4-0.5-0.4c0,0-0.1,0-0.1,0.1c0,0.1,0,0.1,0,0.1
					c0,0,0.1,0.1,0.2,0.1c0,0,0.1,0,0.1,0c0.2,0.1,0.3,0.1,0.4,0.2c0,0,0,0.1,0.1,0.1c0.1,0.1,0.3,0.2,0.4,0.2l0,0c0,0,0,0,0,0
					C25.7,65.8,25.8,65.8,25.9,65.8C25.9,65.8,25.9,65.8,25.9,65.8C25.9,65.8,25.9,65.8,25.9,65.8L25.9,65.8z"/>
				<path id="XMLID_00000034772653771072037540000017889675712883101846_" class="st1" d="M24.8,83.6l0.3,3.3c-0.1,0-0.1,0-0.2,0
					c-0.6,0-1.2,0-1.8,0c-0.5,0-1.1,0-1.6,0c-0.1,0-0.3,0-0.4-0.1l0.8-3.4c0.6,0.1,1.2,0.1,1.8,0.1C24.1,83.6,24.4,83.6,24.8,83.6
					L24.8,83.6z"/>
				<path id="XMLID_00000119801790703078409580000006757172636454042553_" class="st1" d="M24.4,65.6c0.1,0.1,0.1,0.2,0,0.3
					c0,0.2-0.1,0.2-0.3,0.2c0,0-0.1,0-0.1,0c0,0-0.1,0-0.1,0c0,0,0,0,0,0c-0.1,0-0.1,0-0.2,0.1c0,0-0.1,0.1-0.2,0.1
					c-0.1,0.1-0.2,0.1-0.4,0.1c-0.1,0-0.3,0-0.4-0.1c-0.1,0-0.3-0.2-0.3-0.3c0-0.1,0-0.1,0.1-0.2c0.1-0.1,0.2-0.1,0.3-0.1
					c0.1,0,0.1,0,0.2,0c0.1,0,0.1,0,0.2,0c0,0,0.1,0,0.1,0c0,0,0,0,0-0.1c0-0.1,0.1-0.1,0.2-0.2c0,0,0,0,0.1,0c0.1,0,0.2,0,0.2,0
					c0,0,0.1,0,0.1,0c0,0,0,0,0.1,0C24.2,65.4,24.4,65.5,24.4,65.6L24.4,65.6z M24.2,65.8C24.3,65.7,24.2,65.7,24.2,65.8
					c0-0.1-0.1-0.1-0.2-0.1c0,0-0.1,0-0.1,0c-0.1,0-0.1,0-0.2,0c-0.1,0-0.1,0-0.2,0c0,0,0,0,0,0c0,0-0.1,0-0.1,0c0,0,0,0,0,0
					c0,0,0,0.1-0.1,0.1c-0.1,0.1-0.2,0.1-0.2,0.1c-0.1,0-0.1,0-0.2,0c-0.1,0-0.1,0-0.1,0c0,0-0.1,0-0.1,0c0,0,0,0,0,0
					c0,0,0,0.1,0.2,0.1c0.1,0,0.2,0.1,0.3,0.1c0.1,0,0.2,0,0.3-0.1c0,0,0.1-0.1,0.1-0.1c0.1-0.1,0.1-0.1,0.3-0.2c0,0,0,0,0,0
					c0.1,0,0.1,0,0.2,0C24.1,65.8,24.2,65.8,24.2,65.8C24.2,65.8,24.2,65.8,24.2,65.8z"/>
				<path id="XMLID_00000040559731138157671820000005902983623496530865_" class="st1" d="M21.2,68c0,0,0.1,0,0.1,0.1
					c-0.1,0-0.3,0-0.3-0.1l0,0C21.1,68,21.1,68,21.2,68z"/>
				<path id="XMLID_00000181063779537858351740000010126813758471401883_" class="st1" d="M19.4,68.4c0,0.1-0.1,0.1-0.2,0.2
					C19.3,68.6,19.3,68.5,19.4,68.4C19.4,68.5,19.4,68.5,19.4,68.4z"/>
				<path id="XMLID_00000145037923502455558280000016810049115923955344_" class="st1" d="M18.2,81L18,81c0-0.1,0-0.2-0.1-0.3
					C18,80.8,18.1,80.8,18.2,81C18.2,80.9,18.2,81,18.2,81L18.2,81z"/>
				<path id="XMLID_00000150781661262211342490000009019192214098511507_" class="st1" d="M18,80.4c0.1,0.1,0.2,0.3,0.2,0.5
					c-0.1-0.1-0.2-0.1-0.3-0.2c0,0-0.1-0.1-0.1-0.1c-0.1-0.1-0.1-0.2-0.2-0.3c-0.2-0.3,0-0.5,0.1-0.6c0.1-0.1,0.1-0.1,0.1-0.2
					c0-0.1-0.1-0.2-0.2-0.2c-0.1-0.1-0.3-0.3-0.3-0.5c0-0.1,0-0.2,0-0.3c0-0.1,0-0.2,0-0.3c0-0.1-0.1-0.1-0.1-0.2
					c-0.1-0.1-0.1-0.2-0.2-0.3c0-0.1-0.1-0.2-0.1-0.3c0-0.2-0.1-0.3-0.4-0.3c-0.1,0-0.2,0-0.3,0.1c-0.2,0.1-0.4,0.2-0.7-0.1
					c-0.1-0.2-0.1-0.3-0.1-0.4c0-0.1,0-0.1,0-0.1c0,0-0.1-0.1-0.2-0.1c-0.1,0-0.2,0-0.2,0c-0.1,0-0.2,0-0.3,0c-0.1,0-0.2,0-0.3-0.1
					c0-0.1-0.1-0.2-0.1-0.3c0.1,0,0.1,0,0.2,0.1c0.1,0,0.1,0.1,0.2,0.1c0.1,0,0.2,0,0.2,0c0.1,0,0.2,0,0.3,0c0.2,0,0.3,0.1,0.4,0.2
					c0.1,0.1,0.1,0.2,0.1,0.3c0,0.1,0,0.2,0.1,0.3c0.1,0.1,0.2,0.1,0.4,0c0.1,0,0.3-0.1,0.4-0.1c0.5,0,0.5,0.3,0.6,0.5
					c0,0.1,0,0.2,0.1,0.2c0,0.1,0.1,0.1,0.1,0.2c0.1,0.1,0.1,0.2,0.2,0.3c0,0.1,0,0.3,0,0.4c0,0.1,0,0.1,0,0.2
					c0,0.2,0.1,0.3,0.3,0.4c0.1,0.1,0.2,0.2,0.2,0.4c0.1,0.2-0.1,0.4-0.1,0.5c-0.1,0.1-0.1,0.1,0,0.3C17.9,80.3,17.9,80.3,18,80.4
					L18,80.4z"/>
				<path id="XMLID_00000143587509306184648940000001692654700118380950_" class="st1" d="M14.3,76.4C14.3,76.4,14.3,76.4,14.3,76.4
					c-0.1,0-0.2-0.1-0.2,0L14,76.1c0.1,0,0.1,0,0.2,0C14.3,76.2,14.3,76.3,14.3,76.4L14.3,76.4z"/>
			</g>
		</g>
		<g id="XMLID_890_">
			<g>
				<g id="XMLID_00000023971529355501700550000005843484331966255269_">
					<path id="XMLID_00000121965462056769844350000015084485325958087588_" class="st1" d="M46,84.1c0,0,0,0.1,0,0.2
						c0,0.1,0,0.2,0,0.2c0,0.1,0,0.2,0,0.3c0,0.2,0,0.3,0,0.4c0,0.1,0,0.2,0,0.3c0,0,0,0,0,0c0,0,0,0,0,0c0,0,0,0,0,0c0,0,0,0,0,0
						c0-0.1,0-0.2,0-0.3c0-0.1,0-0.3,0-0.4c0-0.2,0-0.3,0-0.4c0-0.1,0-0.1,0-0.2c0-0.1,0-0.2,0-0.2C45.9,84.1,45.9,84.1,46,84.1
						C45.9,84,45.9,84,46,84.1C46,84,46,84,46,84.1C46,84.1,46,84.1,46,84.1L46,84.1z"/>
					<path id="XMLID_00000125601814040885981540000017118211847040437403_" class="st1" d="M46.8,84c0.2,0.4,0.4,0.8,0.6,1.3
						c0,0,0.1,0.1,0.1,0.3l0,0.1c0,0,0,0,0,0c0,0,0-0.1,0-0.2c0,0,0-0.2,0-0.6c0-0.3,0-0.6,0-0.8c0,0,0,0,0,0c0,0,0,0,0,0
						c0,0,0,0,0,0c0,0,0,0,0,0c0,0.1,0,0.3,0,0.4c0,0.2,0,0.3,0,0.5c0,0.2,0,0.3,0,0.4c0,0.2,0,0.2,0,0.2c0,0.1,0,0.1,0,0.1
						c0,0,0,0,0,0.1c0,0,0,0.1-0.1,0c0,0,0,0,0,0l0,0l0,0l0,0l0,0l0,0l0,0l-0.1-0.1c-0.1-0.1-0.1-0.2-0.1-0.2
						c-0.2-0.4-0.4-0.8-0.6-1.2c0,0.5,0,1,0,1.5c0,0,0,0,0,0c0,0,0,0,0,0c0,0,0,0,0,0c0,0,0,0,0,0c0-0.6,0-1.2,0-1.7
						C46.7,84,46.7,84,46.8,84C46.7,84,46.7,84,46.8,84C46.8,84,46.8,84,46.8,84C46.8,84,46.8,84,46.8,84L46.8,84z"/>
					<path id="XMLID_00000180326959138548082070000003859882941931051431_" class="st1" d="M48.6,84.1c0,0.2,0,0.5,0,0.8V85
						c0,0,0-0.1,0.1-0.1l0.1-0.1l0.1-0.1l0.4-0.5c0,0,0,0,0,0c0,0,0,0,0,0c0,0,0,0,0,0c0,0,0,0,0,0l-0.4,0.5l0,0.1
						c0,0,0.1,0.2,0.2,0.4c0.1,0.2,0.2,0.4,0.3,0.5c0,0,0,0,0,0c0,0,0,0,0,0c0,0,0,0,0,0c0,0,0,0,0,0c-0.1-0.1-0.1-0.2-0.2-0.3
						l-0.2-0.3c-0.1-0.1-0.1-0.2-0.1-0.3c-0.1,0.1-0.1,0.2-0.2,0.3c0,0.2,0,0.4,0,0.5c0,0,0,0,0,0c0,0,0,0,0,0c0,0,0,0,0,0
						c0,0,0,0,0,0c0-0.1,0-0.3,0-0.5c0-0.2,0-0.3,0-0.4c0-0.3,0-0.6,0-0.8C48.5,84,48.5,84,48.6,84.1C48.5,84,48.5,84,48.6,84.1
						C48.5,84,48.6,84,48.6,84.1C48.6,84,48.6,84.1,48.6,84.1L48.6,84.1z"/>
				</g>
				<path id="XMLID_00000176041826944788084250000008223401727645290398_" class="st1" d="M51.6,86l-0.1-3.7
					c0.1-0.1,0.3-0.5,0.2-0.9c-0.1-0.4-0.4-0.6-0.8-0.9l-0.7-0.9c0-0.5,0-0.6,0-0.7c0.1,0,0.3,0,0.4-0.1l0.2,0l-0.1-2.6l-0.1,0
					c0,0-1.1-0.5-2.6-0.5c-0.9,0-1.8,0.2-2.6,0.5l-0.1,0l-0.4,2.6l0.2,0c0,0,0.2,0,0.6,0.1v0.7l-0.6,0.8c-0.2,0.1-0.8,0.3-1,0.7
					c-0.1,0.3-0.1,0.7,0.2,1.1l0.1,3.9c-0.1,0.2-0.4,0.6-0.1,1.2l0,0l0,0c0,0,1.1,0.8,3.3,0.8h0c1.3,0,2.7-0.3,4.2-0.8l0.1,0l0-0.1
					C51.6,87.1,51.8,86.3,51.6,86L51.6,86z M45,78.6l0.3-2c0.8-0.3,1.6-0.4,2.4-0.4c1.2,0,2.1,0.3,2.4,0.4l0.1,2
					c-0.2,0-0.4,0.1-0.6,0.1l0.1-1.4l-0.2,0l-0.1,1.5c-0.1,0-0.3,0-0.4,0c-0.1,0-0.1,0-0.2,0l0.1-1.5l-0.2,0l-0.1,1.5
					c-0.1,0-0.3,0-0.4,0l0.1-1.5l-0.2,0L48,78.7c-0.2,0-0.3,0-0.5,0l0.1-1.5l-0.2,0l-0.1,1.5c-0.1,0-0.3,0-0.4,0l0.1-1.5l-0.2,0
					l-0.1,1.5l0,0c-0.2,0-0.3,0-0.5,0l0.1-1.5l-0.2,0l-0.1,1.5l0.1,0c-0.2,0-0.5,0-0.6-0.1l0.1-1.4l-0.2,0l-0.1,1.4
					C45.3,78.6,45.1,78.6,45,78.6L45,78.6z M44.9,80.9L44.9,80.9l0.8-1v-0.7c0.1,0,0.3,0,0.6,0c0.4,0,0.8,0.1,1.4,0.1h0
					c0.5,0,1,0,1.5-0.1c0.3,0,0.5,0,0.6,0c0,0.2,0,0.5,0,0.7l0,0.1l0.9,1l0,0c0.2,0.1,0.4,0.2,0.5,0.3c-0.1,0-0.3,0-0.4,0
					c-0.3,0-0.5,0-0.8,0c-0.4,0.1-0.7,0-1-0.1c-0.2-0.1-0.4-0.1-0.7-0.1c-0.5,0-0.9,0-1.3,0c-0.2,0-0.4,0.1-0.6,0.1
					c-0.1,0-0.3,0.1-0.4,0.1c-0.3,0-0.5,0.1-0.8,0c0,0,0,0,0,0c-0.1,0-0.2-0.1-0.3-0.1C44.7,80.9,44.9,80.9,44.9,80.9L44.9,80.9z
					 M46.7,86.4c-1.1-0.1-2-0.2-2.3-0.3l-0.1-3.2c0.4,0.1,1.1,0.2,2.1,0.3c0.4,0,0.9,0.1,1.5,0.1c1,0,2.1-0.1,3.2-0.3l0.1,3
					C49.7,86.4,47.9,86.5,46.7,86.4L46.7,86.4z"/>
			</g>
		</g>
		<g id="XMLID_889_">
			<g>
				<path id="XMLID_00000154398117269150081180000011104710418615306140_" class="st1" d="M88.3,87.6c0,0,0-0.3,0-0.9l0.1,0.1l0-0.4
					c0-0.1-0.4-10.2-0.6-14.3c-0.1-1.2-0.8-2.2-2.3-2.8c-1.4-0.7-3.4-1-5.5-1c-1.9,0-3.6,0.4-4.6,1.1c-0.9-0.6-2.5-1-4.5-1
					c-2.1,0-4.1,0.4-5.6,1.1c-1.6,0.8-2.4,1.9-2.4,3.1c0,0.2,0,0.5,0,0.7c0,0.2,0,0.3,0,0.5c0,4.1,0.1,14.2,0.1,14.3l0,0.4l0.3-0.2
					c0,0,0.1-0.1,0.4-0.2c0.6-0.2,9.8-2.6,12.1-2.6l0,0l0,0c2.3,0.2,11.6,2.2,12.3,2.4l0.3,0.2L88.3,87.6L88.3,87.6z M76,84.1
					c0-0.3,0-0.6,0-0.8c0.8-0.1,1.5-0.2,2.4-0.1c4.5,0.2,8.5,2.6,9.5,3.3c0,0.3,0,0.6,0,0.8c-0.5-0.3-1.4-0.9-2.6-1.4
					C83.6,85,81,84.1,78.3,84C77.5,83.9,76.7,84,76,84.1L76,84.1z M76,84.5c0.7-0.1,1.5-0.2,2.3-0.1c2.6,0.1,5.1,1,6.8,1.8
					c0.8,0.4,1.4,0.7,1.9,1c-2.6-0.6-8.8-1.9-11-2.1C76,84.9,76,84.7,76,84.5L76,84.5z M80,68.6c2,0,4,0.3,5.3,1
					c1.3,0.6,2,1.5,2,2.5c0.2,3.6,0.5,11.9,0.6,13.9c-1.2-0.8-5.2-3.1-9.6-3.3c-0.8,0-1.6,0-2.3,0.1c0.1-2.2,0.1-4.3,0-6.2
					c0-2.2-0.1-3.9-0.3-5.2c0-0.4-0.1-1.4-0.2-1.9C76.5,69,78.1,68.7,80,68.6L80,68.6z M63.3,73.3c0-0.3,0-0.5,0-0.8
					c0-1.4,1.2-2.3,2.2-2.7c1.4-0.7,3.4-1.1,5.4-1.1c1.8,0,3.4,0.3,4.2,0.9l0.1,0.1c0,0.5,0.1,1.4,0.2,1.8l0,0
					c0.2,1.3,0.3,2.9,0.3,5.2c0,1.3,0,2.8,0,5c0,0.1,0,0.2,0,0.3c0,0.3,0,0.6,0,0.9l0,0l0,0c-0.3,0-0.6-0.1-0.9-0.1
					c-3.1-0.1-6.1,1-8,1.9c-1.5,0.7-2.7,1.4-3.3,1.8C63.4,84.7,63.3,77.2,63.3,73.3L63.3,73.3z M63.4,87c0.2-0.2,1.6-1.1,3.5-2
					c1.9-0.9,4.9-1.9,7.8-1.8c0.3,0,0.6,0,0.9,0.1c0,0.3,0,0.6,0,0.8c-0.3,0-0.6-0.1-0.9-0.1c-3.1-0.1-6.1,1-8,1.9
					c-1.5,0.7-2.7,1.4-3.3,1.8C63.4,87.5,63.4,87.3,63.4,87L63.4,87z M66.8,86.3c1.9-0.9,4.9-1.9,7.8-1.8c0.3,0,0.6,0,0.9,0.1l0,0.1
					l0,0c0,0.1,0,0.3,0,0.4c-2.1,0.1-7.9,1.6-10.6,2.3C65.4,87,66.1,86.6,66.8,86.3L66.8,86.3z"/>
				<path id="XMLID_00000093172710071612506180000000946797300625113505_" class="st1" d="M64.7,72.2l0,11.5c0,0,2-1.3,4.2-1.6
					c-0.2-2.9-0.2-11-0.2-11L64.7,72.2L64.7,72.2z"/>
				<path id="XMLID_00000174572590669561386940000000418897320141666962_" class="st1" d="M69.2,72.1c0-0.2,0.2-0.4,0.4-0.5
					c0.3-0.1,0.3,0.2,0.6,0.2c0.4,0.1,0.6-0.5,1.1-0.3c0.2,0.1,0.2,0.2,0.5,0.2c0.2,0,0.3-0.3,0.5-0.4c0.4-0.1,0.5,0.3,1-0.1
					c0.2,0.3,0.7,0.3,0.8,0"/>
				<path id="XMLID_00000047750355693516897250000002032565434337518222_" class="st1" d="M69.3,73.4c0.1-0.2,0.3-0.5,0.6-0.5
					c0.3,0,0.4,0.3,0.7,0.2c0.3,0,0.3-0.3,0.6-0.4c0.3,0,0.4,0.2,0.7,0.2c0.3,0,0.4-0.3,0.7-0.3c0.1,0,0.2,0.2,0.3,0.2
					c0.2,0,0.2-0.2,0.4-0.2c0.3-0.1,0.2,0,0.6,0c0.3,0,0.5,0,0.7-0.2"/>
				<path id="XMLID_00000102503700756149448390000003518133238371957172_" class="st1" d="M69.5,74.7c-0.1-0.6,1,0,1.2,0
					c0.2,0,0.4-0.4,0.6-0.4c0.3-0.1,0.4,0.2,0.7,0.2c0.4,0.1,0.5-0.2,0.8-0.3c0.4-0.1,0.4,0.1,0.7,0.1c0.3,0,0.4-0.3,0.7-0.3
					c0.2,0,0.4,0.3,0.6,0.1"/>
				<path id="XMLID_00000110441668193321586850000000164614918621128377_" class="st1" d="M69.6,76.3c0-0.2,0.2-0.4,0.4-0.5
					c0.3-0.1,0.3,0.2,0.6,0.2c0.4,0.1,0.6-0.5,1.1-0.3c0.2,0.1,0.2,0.2,0.5,0.2c0.2,0,0.3-0.3,0.5-0.4c0.4-0.1,0.5,0.3,1-0.1
					c0.2,0.3,0.7,0.3,0.8,0"/>
				<path id="XMLID_00000167378532695838724880000003631513303374713225_" class="st1" d="M69.7,77.6c0.1-0.2,0.3-0.5,0.6-0.5
					c0.3,0,0.4,0.3,0.7,0.2c0.3,0,0.3-0.3,0.6-0.4c0.3,0,0.4,0.2,0.7,0.2c0.3,0,0.4-0.3,0.7-0.3c0.1,0,0.2,0.2,0.3,0.2
					c0.2,0,0.2-0.2,0.4-0.2c0.3-0.1,0.2,0,0.6,0c0.3,0,0.5,0,0.7-0.2"/>
				<path id="XMLID_00000123404354574595347580000007106846916277790645_" class="st1" d="M69.8,79c-0.1-0.6,1,0,1.2,0
					c0.2,0,0.4-0.4,0.6-0.4c0.3-0.1,0.4,0.2,0.7,0.2c0.4,0.1,0.5-0.2,0.8-0.3c0.4-0.1,0.4,0.1,0.7,0.1c0.3,0,0.4-0.3,0.7-0.3
					c0.2,0,0.4,0.3,0.6,0.1"/>
				<path id="XMLID_00000093873610003724733460000008018195079843296134_" class="st1" d="M77.4,71.3c0.1-0.2,0.3-0.4,0.6-0.4
					c0.4,0,0.4,0.2,0.7,0.3c0.6,0.1,0.9-0.4,1.6-0.2c0.3,0.1,0.3,0.3,0.6,0.3c0.3,0,0.5-0.3,0.8-0.3c0.6,0,1.8,1.3,2.5,1
					c0.2,0.4,0.8,0.3,1.1,0.1"/>
				<path id="XMLID_00000031900785172243012240000006432406166034137006_" class="st1" d="M77.4,72.6c0.1-0.2,0.5-0.4,0.8-0.4
					c0.4,0,0.6,0.3,0.9,0.3c0.3,0,0.5-0.3,0.8-0.3c0.4,0,0.6,0.3,0.9,0.3c0.3,0,0.6-0.2,0.9-0.2c0.1,0,0.2,0.2,0.4,0.2
					c0.2,0,1.5,0.8,1.7,0.7c0.4-0.1,0.3,0,0.7,0.1c0.3,0.1,0.7,0,0.9-0.2"/>
				<path id="XMLID_00000088811905872002602860000011069381244675965339_" class="st1" d="M77.4,73.9c0-0.6,1.3,0.1,1.6,0.1
					c0.3,0,0.5-0.3,0.8-0.3c0.4,0,0.5,0.2,0.9,0.3c0.5,0.1,0.7-0.1,1.1-0.2c0.5-0.1,1.7,1,2.1,1.1c0.4,0.1,0.6-0.2,0.9-0.2
					c0.3,0,0.5,0.4,0.8,0.1"/>
				<path id="XMLID_00000137104400341309766580000017061910516234005142_" class="st1" d="M77.4,75.5c0.1-0.2,0.3-0.4,0.6-0.4
					c0.4,0,0.4,0.2,0.7,0.3c0.6,0.1,0.9-0.4,1.6-0.2c0.3,0.1,0.3,0.3,0.6,0.3c0.3,0,0.5-0.3,0.8-0.3c0.6,0,1.8,1.3,2.5,1
					c0.2,0.4,0.8,0.3,1.1,0.1"/>
				<path id="XMLID_00000011713464174344492660000012972193460214339260_" class="st1" d="M77.4,76.9c0.1-0.2,0.5-0.4,0.8-0.4
					c0.4,0,0.5,0.3,0.9,0.3c0.3,0,0.5-0.3,0.8-0.3c0.4,0,0.6,0.3,0.9,0.3c0.3,0,0.6-0.2,0.9-0.2c0.1,0,0.2,0.2,0.4,0.2
					c0.2,0,1.5,0.8,1.7,0.7c0.4-0.1,0.3,0,0.7,0.1c0.3,0.1,0.7,0,0.9-0.2"/>
				<path id="XMLID_00000036215494997463678760000016048532927586108803_" class="st1" d="M77.4,78.2c0-0.6,1.3,0.1,1.6,0.1
					c0.3,0,0.5-0.3,0.8-0.3c0.4,0,0.5,0.2,0.9,0.3c0.5,0.1,0.7-0.1,1.1-0.2c0.5-0.1,1.7,1,2.1,1.1c0.4,0.1,0.6-0.2,0.9-0.2
					c0.3,0,0.5,0.4,0.8,0.1"/>
				<path id="XMLID_00000028320160759534055820000008817171406638083257_" class="st1" d="M77.3,79.7c0-0.6,1.3,0.1,1.6,0.1
					c0.3,0,0.5-0.3,0.8-0.3c0.4,0,0.5,0.2,0.9,0.3c0.5,0.1,0.7-0.1,1.1-0.2c0.5-0.1,1.7,1,2.1,1.1c0.4,0.1,0.6-0.2,0.9-0.2
					c0.3,0,0.5,0.4,0.8,0.1"/>
			</g>
		</g>
	</g>
	<g id="XMLID_916_">
		<g>
			<g id="XMLID_00000080907183568565327190000001557392443318060426_">
				<path class="st1" d="M77.5,48.9l-1.8-9L54.1,51.3L32.8,39.9l-1.8,9.8c0,0-0.1,0.7-0.1,1.1c0,3.4,14.3,11.2,22.9,11.2
					c9.7,0,24.1-7.7,24.1-11.2C77.9,50.4,77.7,50,77.5,48.9z"/>
			</g>
			<g id="XMLID_00000111890538321545167410000015806217343090592668_">
				<polygon class="st1" points="54.2,49.9 20.9,32 54.3,22.6 87.6,31.9 				"/>
			</g>
			<polygon id="XMLID_00000155828091409642763420000001092169646902509209_" class="st2" points="21.2,33 19.2,51.1 21.1,54.5 
				23,51.1 			"/>
		</g>
	</g>
</g>
<g>
	<g>
		<path class="st2" d="M151.8,57.9h-5.7l-10.4-19h0l0.1,19h-5V30.6h5.8l10.4,19h0l-0.1-19h5V57.9z"/>
		<path class="st2" d="M175.2,57.9h-4.7l-0.3-2.6h0c-1.4,2.1-3.3,3.2-5.9,3.2c-5.1,0-7.7-3.6-7.7-10.8c0-3.3,0.6-5.9,1.9-7.9
			c1.3-2,3.3-3,6-3c2.7,0,4.6,1,5.6,3.1h0l0.2-2.5h4.8V57.9z M169.9,49.4v-3.3c0-1.4-0.4-2.6-1.1-3.6c-0.8-0.9-1.7-1.4-2.7-1.4
			c-1.4,0-2.4,0.5-3.1,1.5c-0.7,1-1,2.2-1,3.8V49c0,1.6,0.3,2.9,1,3.8c0.7,0.9,1.6,1.4,2.9,1.4c1.2,0,2.2-0.5,2.9-1.4
			C169.5,51.9,169.9,50.7,169.9,49.4z"/>
		<path class="st2" d="M191.3,57.6c-1.4,0.6-3,0.9-4.8,0.9c-3.8,0-5.7-2-5.6-5.9l0-10.9h-4.4v-4.3h4.4l0-5.1l5.3-0.6l0,5.7h5.1v4.3
			h-5.1l0,10c0,0.9,0.2,1.6,0.5,1.9c0.4,0.4,0.9,0.6,1.7,0.6c0.4,0,0.8,0,1.2-0.1c0.4-0.1,0.8-0.2,1-0.3l0.4-0.1L191.3,57.6z"/>
		<path class="st2" d="M212.2,50.1c0,2.5-0.9,4.5-2.6,6.1c-1.7,1.6-4.2,2.3-7.5,2.3c-2.8,0-5.3-0.6-7.6-1.7l0.2-4.8
			c2.3,1.4,4.6,2.1,7,2.1c1.7,0,2.9-0.3,3.7-1c0.8-0.7,1.2-1.6,1.2-2.7c0-1.6-1.4-2.9-4.1-3.9l-1.1-0.4c-2.4-0.8-4.1-1.9-5.2-3.2
			c-1.1-1.3-1.6-3-1.6-5.3c0-2.3,0.8-4.2,2.5-5.6c1.7-1.4,4-2.1,6.9-2.1c2.5,0,4.8,0.5,6.9,1.4l-0.2,4.7c-2.3-1.1-4.4-1.6-6.3-1.6
			c-1.4,0-2.4,0.3-3.2,0.8c-0.7,0.5-1.1,1.3-1.1,2.4c0,0.9,0.3,1.7,1,2.2c0.7,0.6,1.7,1.1,3.1,1.6l1.1,0.4c2.4,0.8,4.1,1.8,5.2,3.1
			C211.6,46.3,212.2,48,212.2,50.1z"/>
		<path class="st2" d="M235,57.9h-5.3V45.4c0-2.6-1.1-3.9-3.4-3.9c-1.1,0-2.1,0.4-3,1.1c-0.8,0.8-1.3,1.7-1.3,2.7v12.6h-5.3V29h5.3
			v10.7h0c0.1-0.1,0.1-0.2,0.3-0.3s0.4-0.3,0.8-0.7c0.4-0.3,0.8-0.6,1.3-0.9s1-0.5,1.7-0.7c0.7-0.2,1.4-0.3,2.2-0.3
			c2.1,0,3.7,0.6,4.9,1.7c1.2,1.1,1.7,2.9,1.7,5.2V57.9z"/>
		<path class="st2" d="M258.5,50c0,2.8-0.7,5-2.2,6.4c-1.5,1.4-3.8,2.1-7,2.1c-3.1,0-5.3-0.7-6.7-2.1s-2.2-3.5-2.2-6.4V37.4h5.3
			v12.3c0,3,1.3,4.5,3.8,4.5c2.5,0,3.7-1.5,3.7-4.5V37.4h5.3V50z"/>
		<path class="st2" d="M269.6,57.9h-5.3V29h5.3V57.9z"/>
		<path class="st2" d="M291.8,46.7l-0.1,2.4h-12.5v0.5c0,1.3,0.4,2.5,1.2,3.4c0.8,0.9,2.1,1.4,3.8,1.4c2.2,0,4.3-0.5,6.3-1.5
			l0.2,4.1c-1.8,1-4.2,1.6-7.1,1.6c-3.6,0-6.1-0.9-7.5-2.7s-2.1-4.5-2.1-8c0-7.3,3.2-10.9,9.6-10.9c2.8,0,4.9,0.8,6.3,2.4
			C291.1,40.9,291.8,43.4,291.8,46.7z M286.8,45.5c0-0.7,0-1.3-0.1-1.8c-0.1-0.5-0.2-1.1-0.5-1.6c-0.2-0.5-0.6-0.9-1.1-1.2
			c-0.5-0.3-1.1-0.4-1.8-0.4c-1.4,0-2.4,0.5-3.1,1.5c-0.7,1-1.1,2.2-1.1,3.6H286.8z"/>
	</g>
	<g>
		<path class="st2" d="M135.4,76.2c1.2-0.2,2.6-0.3,4.2-0.3c2.8,0,4.8,0.7,6.1,1.9c1.3,1.2,2.1,3,2.1,5.4c0,2.5-0.8,4.5-2.2,5.9
			c-1.4,1.4-3.7,2.2-6.7,2.2c-1.4,0-2.6-0.1-3.5-0.2V76.2z M137.3,89.5c0.5,0.1,1.2,0.1,2,0.1c4.2,0,6.4-2.3,6.4-6.4
			c0-3.6-2-5.8-6.1-5.8c-1,0-1.8,0.1-2.3,0.2V89.5z"/>
		<path class="st2" d="M152.5,77.2c0,0.7-0.5,1.2-1.3,1.2c-0.7,0-1.2-0.5-1.2-1.2c0-0.7,0.5-1.2,1.2-1.2
			C152,75.9,152.5,76.5,152.5,77.2z M150.3,91.1V80.2h2v10.9H150.3z"/>
		<path class="st2" d="M164.9,80.2c0,0.8-0.1,1.7-0.1,3v6.3c0,2.5-0.5,4-1.5,5c-1.1,1-2.6,1.3-4,1.3c-1.3,0-2.7-0.3-3.6-0.9l0.5-1.5
			c0.7,0.4,1.8,0.9,3.2,0.9c2,0,3.5-1.1,3.5-3.8v-1.2h0c-0.6,1-1.8,1.8-3.5,1.8c-2.7,0-4.6-2.3-4.6-5.3c0-3.7,2.4-5.8,4.9-5.8
			c1.9,0,2.9,1,3.4,1.9h0l0.1-1.6H164.9z M162.8,84.5c0-0.3,0-0.6-0.1-0.9c-0.4-1.1-1.3-2.1-2.8-2.1c-1.9,0-3.2,1.6-3.2,4.1
			c0,2.1,1.1,3.9,3.2,3.9c1.2,0,2.3-0.8,2.7-2c0.1-0.3,0.2-0.7,0.2-1.1V84.5z"/>
		<path class="st2" d="M170.1,77.2c0,0.7-0.5,1.2-1.3,1.2c-0.7,0-1.2-0.5-1.2-1.2c0-0.7,0.5-1.2,1.2-1.2
			C169.6,75.9,170.1,76.5,170.1,77.2z M167.9,91.1V80.2h2v10.9H167.9z"/>
		<path class="st2" d="M175.5,77.1v3.1h2.8v1.5h-2.8v5.9c0,1.3,0.4,2.1,1.5,2.1c0.5,0,0.9-0.1,1.1-0.1l0.1,1.5
			c-0.4,0.2-1,0.3-1.8,0.3c-0.9,0-1.7-0.3-2.1-0.8c-0.6-0.6-0.8-1.5-0.8-2.8v-5.9h-1.7v-1.5h1.7v-2.6L175.5,77.1z"/>
		<path class="st2" d="M186.6,91.1l-0.2-1.4h-0.1c-0.6,0.9-1.8,1.6-3.3,1.6c-2.2,0-3.3-1.5-3.3-3.1c0-2.6,2.3-4.1,6.5-4V84
			c0-0.9-0.2-2.5-2.5-2.5c-1,0-2.1,0.3-2.8,0.8l-0.4-1.3c0.9-0.6,2.2-1,3.6-1c3.3,0,4.1,2.3,4.1,4.4v4.1c0,0.9,0,1.9,0.2,2.6H186.6z
			 M186.3,85.6c-2.2,0-4.6,0.3-4.6,2.4c0,1.3,0.9,1.9,1.9,1.9c1.4,0,2.3-0.9,2.6-1.8c0.1-0.2,0.1-0.4,0.1-0.6V85.6z"/>
		<path class="st2" d="M191.4,75.2h2v15.9h-2V75.2z"/>
		<path class="st2" d="M203.2,91.1L199.3,76h2.1l1.8,7.7c0.4,1.9,0.9,3.8,1.1,5.2h0c0.2-1.5,0.7-3.3,1.2-5.3l2-7.6h2l1.8,7.7
			c0.4,1.8,0.8,3.6,1.1,5.2h0c0.3-1.7,0.7-3.3,1.2-5.2l2-7.6h2l-4.3,15.1h-2l-1.9-7.9c-0.5-1.9-0.8-3.4-1-4.9h0
			c-0.3,1.5-0.6,3-1.2,4.9l-2.2,7.9H203.2z"/>
		<path class="st2" d="M224.9,91.1l-0.2-1.4h-0.1c-0.6,0.9-1.8,1.6-3.3,1.6c-2.2,0-3.3-1.5-3.3-3.1c0-2.6,2.3-4.1,6.5-4V84
			c0-0.9-0.2-2.5-2.5-2.5c-1,0-2.1,0.3-2.8,0.8l-0.4-1.3c0.9-0.6,2.2-1,3.6-1c3.3,0,4.1,2.3,4.1,4.4v4.1c0,0.9,0,1.9,0.2,2.6H224.9z
			 M224.6,85.6c-2.2,0-4.6,0.3-4.6,2.4c0,1.3,0.9,1.9,1.9,1.9c1.4,0,2.3-0.9,2.6-1.8c0.1-0.2,0.1-0.4,0.1-0.6V85.6z"/>
		<path class="st2" d="M229.7,75.2h2v15.9h-2V75.2z"/>
		<path class="st2" d="M235,75.2h2v15.9h-2V75.2z"/>
		<path class="st2" d="M241.4,86c0,2.7,1.8,3.8,3.7,3.8c1.4,0,2.3-0.2,3-0.6l0.3,1.4c-0.7,0.3-1.9,0.7-3.6,0.7
			c-3.3,0-5.3-2.2-5.3-5.5c0-3.3,1.9-5.9,5.1-5.9c3.5,0,4.5,3.1,4.5,5.1c0,0.4,0,0.7-0.1,0.9H241.4z M247.2,84.6
			c0-1.3-0.5-3.2-2.7-3.2c-2,0-2.9,1.8-3,3.2H247.2z"/>
		<path class="st2" d="M253.9,77.1v3.1h2.8v1.5h-2.8v5.9c0,1.3,0.4,2.1,1.5,2.1c0.5,0,0.9-0.1,1.1-0.1l0.1,1.5
			c-0.4,0.2-1,0.3-1.7,0.3c-0.9,0-1.7-0.3-2.1-0.8c-0.6-0.6-0.8-1.5-0.8-2.8v-5.9h-1.7v-1.5h1.7v-2.6L253.9,77.1z"/>
	</g>
</g>
</svg>
