<?xml version="1.0" encoding="utf-8"?>
<!-- Generator: Adobe Illustrator 26.0.0, SVG Export Plug-In . SVG Version: 6.00 Build 0)  -->
<svg version="1.1" id="Layer_1" xmlns="http://www.w3.org/2000/svg" xmlns:xlink="http://www.w3.org/1999/xlink" x="0px" y="0px"
	 viewBox="0 0 476.1 500" style="enable-background:new 0 0 476.1 500;" xml:space="preserve">
<style type="text/css">
	.st0{fill:#FFFFFF;}
	.st1{fill:#F9B715;stroke:#FFFFFF;stroke-width:3;stroke-miterlimit:10;}
	.st2{fill:#3D1A0F;}
</style>
<path class="st0" d="M334.4,18.8l123,108.8c-13.4,5.1-39.6,18.9-50.2,52.1c-8.1,25.2-1.2,50.1,6.1,76.4
	c8.6,31.2,18.4,66.5,5.4,110.3c-24,81-83.4,90.8-115.3,96c-34.5,5.6-58.5,16.5-68.2,30.8c-4.2-6.4-18.2-21.2-60.8-28.2
	c-55.8-9.2-101.5-21.6-140.1-88.3c-17-29.4-7-73.9,2.8-116.9c12.1-53.3,24.6-108.4-20.2-129L133.4,18.8c5.3,15.6,25,47.5,97.6,51.2
	c38.4,1.9,67.3-5.7,85.7-22.6C327.6,37.3,332.3,26.2,334.4,18.8z"/>
<path class="st1" d="M415.8,182.4c-7.2,22.7-1,45.1,6.2,71.2c8.9,32.3,19.1,69,5.4,115.3c-25.6,86.5-91.1,97.2-122.6,102.4
	c-30.9,5-53.6,14.9-61.9,26.6h-15.6c-3.1-4.4-15.5-17.5-54.5-24c-56.2-9.3-105.9-22.7-146.5-92.7c-18.8-32.5-8.3-78.8,1.8-123.5
	c12.9-56.7,24-105.6-21-121L0,134.2L139.8,0l0.7,9.7c0.2,1.9,4.9,46.9,90.9,51.2c35.8,1.8,62.3-5,79-20.1
	c15.5-14.1,16.5-30.9,16.5-31l0.4-9.5l7.1,6.3L476.1,132l-8.7,1.9C465.8,134.3,428.4,143,415.8,182.4z"/>
<g>
	<g id="XMLID_781_">
		<g id="XMLID_782_">
			<g id="XMLID_1057_">
				<path class="st0" d="M229.1,1165.2l-5.7,5l-0.3-7.6c0-0.1-0.8-13.5-13.2-24.8c-13.3-12.1-34.6-17.5-63.2-16.1
					c-68.8,3.5-72.6,39.5-72.7,41l-0.6,7.7l-111.8-107.4l5.6-1.9c36-12.3,27.1-51.5,16.8-96.8c-8.1-35.8-16.5-72.8-1.4-98.8
					c32.4-56,72.2-66.7,117.2-74.2c31.2-5.2,41.1-15.7,43.6-19.2c0.5-0.7,0.7-1.2,0.7-1.2l3,1.2l2.6,1l1.9-1l3.2-1.7
					c0.3,0.6,0.7,1.2,1.1,1.7c6.6,9.4,24.8,17.2,49.5,21.3c25.2,4.1,77.6,12.7,98.1,81.9c11,37,2.9,66.3-4.3,92.2
					c-5.8,20.8-10.7,38.8-4.9,56.9c10,31.5,40,38.5,41.3,38.8l7,1.6 M292.2,965.7c6.9-24.9,14.7-53.2,4.3-88.2
					c-19.2-64.8-66.7-72.6-92.3-76.8c-27.6-4.5-46.8-13.2-54.6-24.7c-3.3,5.1-14.5,16.9-48.6,22.6C56.5,806,19.9,815.9-11,869.2
					c-13.6,23.5-5.6,59.1,2.2,93.5c9.7,42.7,19.7,86.7-16.2,103.2l93.3,89.5c4.2-12.5,20-38,78-40.9c30.7-1.5,53.8,4.5,68.6,18.1
					c8.8,8.1,12.6,16.9,14.2,22.9l98.4-87c-10.7-4-31.7-15.1-40.2-41.7C280.9,1006.6,286.4,986.7,292.2,965.7z"/>
			</g>
		</g>
	</g>
	<g id="XMLID_26_">
		<path id="XMLID_940_" class="st2" d="M235.5,281.8c-0.1-0.1-0.2-0.1-0.3-0.2c-0.1,0-0.2-0.1-0.3-0.1c-0.4,0-1,0.2-2.8,1.3
			c-1.4,0.9-3.2,2.2-5.5,4c-4.6,3.6-10.4,8.5-16.4,13.9c-1.7,1.5-3.3,3-4.9,4.4l-0.3,0.3c-4.9,4.4-9.1,8.1-12.1,11
			c-3.4,3.2-4.4,4.5-4.8,5.1c-0.2,0-0.3,0.1-0.4,0.2l-10.9,9.7c-0.4-0.1-0.9-0.2-1.4-0.2c-2.3,0-4.2,1.3-5.1,3.5l-0.1,0.3
			c-1,2.4-1,2.4-3.5,4.9c-0.5,0.5-1.1,1.2-1.9,1.9c-0.1,0.1-0.4,0.4-0.3,0.7c0.1,0.4,0.7,0.4,0.9,0.4h0c2.4,0,10.3-2.2,13.1-5
			c1.2-1.2,1.7-2.6,1.4-3.8l11-8.9c0.2-0.2,0.3-0.4,0.3-0.6c3.8-2.3,12.4-10.1,21.5-18.3l1.7-1.5c6.1-5.5,11.7-10.9,15.7-15.1
			c2-2.1,3.5-3.7,4.4-5C235.7,283.2,236,282.4,235.5,281.8L235.5,281.8z M189.7,324.7l-10.5,8.5c-0.3-0.4-0.8-0.8-1.4-1.1l10.1-9
			c0.1,0.1,0.3,0.3,0.5,0.5C188.9,323.9,189.4,324.3,189.7,324.7L189.7,324.7z M192,322.3l-1.3-1.4c0.1-0.2,0.4-0.6,0.9-1.1
			c0.7-0.8,1.8-1.9,3.3-3.4c2.9-2.7,6.8-6.3,11.5-10.5l0.1-0.1c1.6-1.4,3.3-2.9,5-4.5c5.6-5.1,11.1-9.7,15.4-13.1
			c3.9-3,5.7-4.2,6.6-4.6c-0.5,0.8-1.8,2.5-5.1,6c-3.8,3.9-8.9,8.9-14.5,13.9l-1.6,1.4C203.5,312.8,195.4,320.1,192,322.3L192,322.3
			z"/>
		<g id="XMLID_901_">
			<g>
				<path id="XMLID_00000056413297218912259960000016396894649136004762_" class="st2" d="M136.7,297.9c2.3,5.5,3.5,11.4,3.5,17.5
					c0,6.1-1.2,11.9-3.5,17.5c-2.3,5.3-5.5,10.1-9.6,14.3c-3.4,3.4-7.3,6.3-11.6,8.4l1.4,7l-1.1,0.2c-3.4,0.6-6.7,1-9.9,1.3
					l1.4,15.5c4.1,0.2,7.8,0.5,11,0.8c2.9,0.3,5.3,0.7,6.9,1.2c0.9,0.2,1.6,0.5,2.1,0.8c0.8,0.5,1.2,1,1.2,1.7
					c0,0.7-0.4,1.3-1.2,1.7c-0.5,0.3-1.2,0.5-2.1,0.8c-1.6,0.5-4,0.9-6.9,1.2c-6,0.7-13.9,1.1-22.4,1.1c-8.4,0-16.4-0.4-22.4-1.1
					c-2.9-0.3-5.3-0.7-6.9-1.2c-0.9-0.2-1.6-0.5-2.1-0.8c-0.8-0.5-1.2-1-1.2-1.7c0-0.7,0.4-1.2,1.2-1.7c0.5-0.3,1.2-0.5,2.1-0.8
					c1.6-0.5,4-0.9,6.9-1.2c3.2-0.4,6.9-0.7,11-0.8l3.6-15.9c-1-0.1-1.9-0.3-2.9-0.5c-7.7-1.5-14.5-4.5-20.3-8.8
					c-3.9-2.9-7.4-6.5-10.3-10.6c-2.3-3.3-4.3-6.9-5.8-10.9c-2.7-6.7-3.2-11.7-3.3-11.9l0-0.1l0-0.1c0.1-9,1.6-17.2,4.6-24.5
					c2.3-5.8,5.6-11,9.6-15.4c3.6-3.9,7.2-6.5,9.6-8c2.6-1.6,4.4-2.3,4.4-2.3l0.8-0.3l3,3.9c0.1-0.1,0.2-0.1,0.4-0.2
					c5.5-2.3,11.4-3.5,17.5-3.5c6.1,0,11.9,1.2,17.5,3.5c5.3,2.3,10.1,5.5,14.3,9.6C131.2,287.8,134.5,292.6,136.7,297.9
					L136.7,297.9z M138,315.4c0-8.4-2.5-16.3-6.7-23c0.1,0.5,0.2,1-0.1,1.4c-0.3,0.4-0.9,0.9-2.2,0.7c-0.9-0.2-1.7-0.6-1.9-0.7
					c-1.4-0.8-2.1-1.9-2.7-3.3c-0.2-0.4-0.3-0.7-0.4-0.9c-0.1-0.1-0.2-0.1-0.5-0.2c-0.2,0-0.4-0.1-0.6-0.2c-0.4-0.1-0.7-0.3-1.1-0.5
					c-0.5-0.3-0.9-0.5-1.4-0.5c-0.4,0-0.9,0.3-1.4,0.5c-0.4,0.2-0.9,0.5-1.4,0.6c-0.7,0.2-1.5-0.1-2.3-0.3c-0.6-0.2-1.2-0.3-1.5-0.2
					c-0.1,0.1-0.2,0.1-0.2,0.1c0,0.2,0.5,0.7,0.9,0.9c0.7,0.3,1.3,0.1,2.1-0.2c0.2-0.1,0.5-0.2,0.8-0.2c0.1,0,0.1,0,0.2,0
					c1.4-0.3,2.9,0.1,3.9,1c0.9,0.9,1.3,2,1.1,3.3c-0.3,1.7-1.8,3.8-3.4,4.8c-0.7,0.4-1.4,0.6-2,0.6c-0.2,0-0.4,0-0.6-0.1
					c-1.8-0.5-3.9-1.5-5.7-2.4c-0.4-0.2-0.8-0.4-1.2-0.6c-0.8-0.4-1.3-0.9-1.9-1.4c-0.3-0.3-0.7-0.6-1.1-0.9
					c-0.2-0.2-0.4-0.3-0.6-0.4c-0.7-0.5-1.3-0.9-1.9-1.8c-0.1-0.2-0.2-0.4-0.4-0.6c-0.4-0.8-0.8-1.5-1.5-1.8c-0.7-0.3-1-0.2-1.6,0.2
					c-0.2,0.1-0.5,0.3-0.8,0.5c-0.6,0.3-1,0.4-1.4,0.4c-0.8,0-1.4-0.5-1.9-1c-0.1-0.1-0.2-0.2-0.3-0.3c-0.4-0.4-1-0.5-1.3-0.4
					c-0.1,0-0.3,0.1-0.4,0.4c0,0.1-0.1,0.4-0.1,0.6c-0.1,0.6-0.2,1.4-0.8,1.7c-0.4,0.2-0.9,0.2-1.5,0c-0.5-0.2-0.8-0.6-0.9-0.9
					c-0.1,0.2-0.2,0.4-0.4,0.5c-0.3,0.2-0.7,0.2-1,0.1c0.3,0.4,0.6,1,0.3,1.6c-0.2,0.6-0.8,1-1.6,1.1c-0.2,0.1-0.5,0.1-0.8,0.1
					c-0.2-0.1-0.4-0.2-0.6-0.3c-0.3-0.1-0.6-0.2-1-0.3l-0.3-0.3l0.4-0.4c0.1-0.1,0.2-0.2,0.2-0.3c0.6-0.6,0.6-0.7,0.5-0.9
					c-0.2-0.1-0.8-0.1-1.1-0.1c-0.3,0-0.5,0-0.7,0c-0.3-0.1-0.6-0.2-1-0.3c-0.6-0.2-1-0.3-1.2-0.1c0,0.1-0.1,0.2-0.1,0.2
					c-0.1,0.2-0.2,0.5-0.4,0.7c-0.3,0.3-0.7,0.5-1.1,0.6c-0.2,0.1-0.4,0.1-0.5,0.2c-0.7,0.4-0.9,1-1.2,1.7c-0.1,0.4-0.3,0.7-0.5,1.1
					c-0.1,0.1-0.2,0.2-0.3,0.3c-0.2,0.2-0.4,0.4-0.5,0.6c-0.1,0.1-0.2,0.1-0.3,0.2c-0.7,0.4-3,1.5-4.2,0.7c-0.3-0.2-0.7-0.7-0.6-1.7
					c0.2-1.2,1-2,1.8-2.6c0.8-0.8,1.3-1.3,1.2-2.1c0-0.3-0.1-0.5-0.1-0.8c-0.2-0.9-0.1-1.4,0.9-2.1c0.2-0.2,0.5-0.2,0.6-0.3
					c0,0,0.1,0,0.1,0c0,0,0-0.1,0.1-0.2c0-0.1-0.1-0.3-0.1-0.5c-0.1-0.3-0.2-0.7-0.1-1c0.2-0.7,0.8-0.8,1.1-0.9
					c0.1,0,0.3-0.1,0.3-0.1c0.1-0.1,0.2-0.1,0.3-0.3c0.1-0.1,0.2-0.2,0.3-0.3c0.5-0.5,1.1-1,1.7-1.3c-1.3,0.1-3.2-0.3-3.7-1.4
					l-0.2-0.5l0.5-0.2c0.2-0.1,0.1-1,0.1-1.3c0-0.6-0.1-1.3,0.1-1.7c0.5-1.1,1.6-1.9,3.1-2.2c0.6-0.1,1.4,0,2.1,0
					c0.9,0.1,1.8,0.2,2.4-0.1c0.4-0.2,0.6-0.9,0.8-1.6c0-0.1,0.1-0.2,0.1-0.4c-19.3,4-33.9,21.2-33.9,41.8c0,5.3,1,10.3,2.7,14.9
					c-0.3,0-0.6,0-0.9,0.1l0.3,1.1c0.4-0.1,0.6,0,1.1,0.2c0,0,0,0,0.1,0c3.3,8,9,14.8,16.2,19.5c0.3,0.4,0.4,0.8,0.4,1.4l1.1,0
					c0-0.1,0-0.3,0-0.4c6.4,3.8,13.8,6,21.7,6C118.9,358,138,338.9,138,315.4L138,315.4z M130.3,293.2c0.2-0.3-0.3-1.2-0.6-1.6
					c-0.2-0.4-0.4-0.7-0.5-1c-0.2-0.5-0.3-1-0.3-1.5c-7.8-9.9-19.9-16.3-33.5-16.3c-2.5,0-5,0.2-7.4,0.7c-0.1,0.3-0.2,0.6-0.3,0.9
					c-0.2,0.8-0.5,1.8-1.4,2.3c-0.9,0.4-2,0.3-3,0.2c-0.7-0.1-1.3-0.1-1.8,0c-0.5,0.1-1.8,0.4-2.2,1.5c-0.1,0.3-0.1,0.8,0,1.3
					c0,0.7,0.1,1.4-0.2,2c0.2,0.2,0.6,0.3,1.1,0.4c0.8,0.2,1.5,0.1,1.8,0c0.6-0.2,0.7-0.7,0.8-1.6c0-0.4,0.1-0.9,0.2-1.3l0.1-0.3
					l0.3-0.1c0.8-0.1,1.6,0.1,2,0.6c0.4,0.5,0.5,1.2,0.2,2c-0.4,1-1.3,1.5-2.1,1.9c-0.2,0.1-0.4,0.2-0.6,0.3c-1,0.6-1.8,1.1-2.5,1.8
					c-0.1,0.1-0.1,0.2-0.2,0.2c-0.1,0.1-0.2,0.3-0.5,0.5c-0.3,0.2-0.5,0.2-0.7,0.3c-0.2,0-0.2,0.1-0.3,0.1c0,0.1,0.1,0.2,0.1,0.3
					c0.1,0.3,0.3,0.8,0.1,1.2c-0.2,0.7-0.6,0.8-0.9,0.9c-0.1,0-0.2,0.1-0.3,0.1c-0.4,0.3-0.5,0.4-0.5,0.4c0,0.1,0,0.3,0,0.5
					c0,0.2,0.1,0.5,0.1,0.8c0.1,1.4-0.8,2.3-1.6,3c-0.7,0.6-1.3,1.2-1.4,2c-0.1,0.3,0,0.5,0.1,0.5c0.2,0.1,0.6,0.2,1.4,0
					c0.7-0.2,1.3-0.5,1.6-0.7c0.7-0.4,0.9-1,1.2-1.7c0.3-0.8,0.7-1.6,1.7-2.2c0.2-0.1,0.4-0.2,0.7-0.3c0.3-0.1,0.5-0.2,0.7-0.4
					c0,0,0.1-0.2,0.2-0.3c0.1-0.3,0.2-0.5,0.4-0.7c0.7-0.6,1.6-0.3,2.3-0.1c0.3,0.1,0.5,0.2,0.8,0.2c0.1,0,0.3,0,0.6,0
					c0.7,0,1.5,0,1.9,0.5c0.4,0.4,0.5,1,0.2,1.5c-0.1,0.2-0.2,0.4-0.4,0.5c0.2,0,0.4,0,0.7-0.1c0.5-0.1,0.8-0.3,0.8-0.5
					c0.1-0.2-0.1-0.4-0.4-0.8c-0.3-0.3-0.6-0.7-0.7-1.2l-0.1-0.6c-0.6-0.1-1.8-0.3-2-1.1c-0.1-0.3-0.1-0.9,0.6-1.4
					c0.7-0.6,2.1-0.4,2.8-0.2c1,0.3,2,0.8,2.4,1.2c0.4,0.4,0.5,0.9,0.6,1.4c0.1,0.5,0.2,0.7,0.4,0.8c0.3,0.1,0.5,0.1,0.5,0.1
					c0.2-0.1,0.2-0.6,0.3-0.9c0-0.3,0.1-0.6,0.2-0.8c0.3-0.7,0.8-1,1.1-1.1c0.8-0.2,1.7,0.2,2.3,0.7c0.1,0.1,0.2,0.2,0.3,0.3
					c0.8,0.7,1.1,0.9,2.2,0.4c0.3-0.1,0.5-0.3,0.7-0.4c0.7-0.4,1.4-0.8,2.6-0.3c1,0.4,1.6,1.4,2,2.3c0.1,0.2,0.2,0.4,0.3,0.6
					c0.4,0.7,0.9,1,1.5,1.5c0.2,0.1,0.4,0.3,0.6,0.4c0.4,0.3,0.8,0.7,1.2,1c0.5,0.5,1,0.9,1.6,1.2c0.4,0.2,0.8,0.4,1.2,0.6
					c1.7,0.9,3.7,1.9,5.4,2.4c0.6,0.2,1.3-0.1,1.8-0.4c1.4-0.9,2.7-2.8,2.9-4c0.2-0.9-0.1-1.7-0.7-2.3c-0.8-0.7-2-1-3-0.7
					c-0.2,0.1-0.5,0.1-0.7,0.2c-0.9,0.3-1.8,0.6-2.9,0.1c-0.6-0.3-1.6-1-1.6-1.9c0-0.3,0.1-0.8,0.8-1.1c0.7-0.3,1.5-0.1,2.3,0.2
					c0.6,0.2,1.3,0.4,1.7,0.3c0.4-0.1,0.7-0.3,1.1-0.5c0.6-0.3,1.2-0.6,1.9-0.7c0.8,0,1.4,0.3,2,0.6c0.3,0.2,0.6,0.3,0.9,0.4
					c0.2,0.1,0.4,0.1,0.5,0.2c0.9,0.3,1.2,0.4,1.7,1.7c0.5,1.2,1,2.1,2.2,2.7C128.5,293.3,129.9,293.7,130.3,293.2L130.3,293.2z
					 M125.7,384c-1-0.4-3.4-1-8.8-1.6c-3.6-0.4-8-0.7-12.6-0.8c-2.1,0.4-4.4,0.5-7,0.5c-1.4,0-2.9-0.1-4.5-0.2
					c-1.6-0.1-3-0.3-4.2-0.4c-5,0.1-9.6,0.4-13.5,0.8c-5.5,0.6-7.9,1.2-8.8,1.6c1,0.4,3.4,1,8.8,1.6c5.7,0.6,13.2,0.9,20.9,0.9
					c7.7,0,15.2-0.3,20.9-0.9C122.3,385.1,124.7,384.4,125.7,384L125.7,384z M114.3,360.7l-0.9-4.2c-0.2,0.1-0.4,0.2-0.6,0.2
					c-5.5,2.3-11.4,3.5-17.5,3.5s-11.9-1.2-17.5-3.5c-5.3-2.3-10.1-5.5-14.3-9.6c-4.1-4.1-7.4-8.9-9.6-14.3
					c-2.3-5.5-3.5-11.4-3.5-17.5c0-6.1,1.2-11.9,3.5-17.5c2.3-5.3,5.5-10.1,9.6-14.3c3.5-3.5,7.5-6.3,11.8-8.5l-1.7-2.2
					c-0.7,0.3-1.9,0.9-3.4,1.8c-2.3,1.4-5.7,3.9-9.1,7.6c-6,6.6-13.3,18.6-13.5,38.2c0.1,0.6,0.7,5.3,3.1,11.3
					c2.4,5.9,6.9,14.2,15.4,20.5C78.1,361.3,94.3,364.1,114.3,360.7L114.3,360.7z M105,379.2l-1.4-15c-1.7,0.1-3.4,0.2-5,0.2
					c-2.9,0-5.6-0.2-8.3-0.5l-3.4,15.3c0.5,0.1,1,0.1,1.7,0.2c2.4-0.1,4.8-0.1,7.3-0.1c2.8,0,5.5,0,8.1,0.1
					C104.4,379.3,104.7,379.3,105,379.2L105,379.2z M90.4,289.7c0-0.2,0-0.2,0-0.2c0,0-0.1-0.1-0.4-0.1c-0.3,0-0.6,0-1,0.1
					c-0.1,0-0.1,0-0.2,0c0.2,0,0.4,0.1,0.5,0.2c0.2,0.1,0.8,0.3,1,0.2C90.3,289.8,90.3,289.8,90.4,289.7L90.4,289.7z M88.8,288.3
					c0.4-0.1,0.8-0.1,1.2-0.1c-0.3-0.2-0.7-0.3-1.1-0.4c-0.9-0.3-1.6-0.2-1.8,0c-0.1,0.1-0.2,0.2-0.2,0.2c0.1,0.1,0.7,0.4,1.2,0.4
					C88.3,288.4,88.6,288.4,88.8,288.3L88.8,288.3z M84.5,280.8c0.1-0.4,0.1-0.7,0-0.9c-0.1-0.2-0.4-0.3-0.6-0.3
					c0,0.2-0.1,0.5-0.1,0.7c0,0.5-0.1,1-0.3,1.5C83.9,281.6,84.3,281.3,84.5,280.8z"/>
				<path id="XMLID_00000164488249870319244380000012239974233302000543_" class="st2" d="M130.3,317.8c0.1,1.5,0.2,6.5-1.7,7.9
					c-0.3,0.2-0.6,0.3-0.9,0.3c-0.3,0-0.6-0.1-0.9-0.3c-1.7-1.2-2.7-6.4-1.8-9.4c0.2-0.6,0.5-1.2,0.8-1.6l-0.4-0.1
					c0.2-0.8,0.6-1.4,1.3-1.7c0.8-0.2,1.7,0,2.4,0.7c0.9,0.9,1,2.6,1.1,3.8C130.3,317.6,130.3,317.7,130.3,317.8L130.3,317.8z
					 M128,324.8c1.1-0.8,1.4-4.1,1.3-6.9c0-0.1,0-0.2,0-0.3c-0.1-1-0.1-2.5-0.8-3.1c-0.2-0.2-0.4-0.4-0.7-0.4l0,0.8
					c-0.8,0-1.4,0.6-1.7,1.7c-0.4,1.2-0.4,3.1,0,4.8c0.4,1.9,1,3,1.4,3.4C127.7,324.9,127.8,324.9,128,324.8L128,324.8z"/>
				<path id="XMLID_00000142136881953725289720000005807576719156312485_" class="st2" d="M116.8,382.4c5.5,0.6,7.9,1.2,8.8,1.6
					c-1,0.4-3.4,1-8.8,1.6c-5.7,0.6-13.2,0.9-20.9,0.9s-15.2-0.3-20.9-0.9c-5.5-0.6-7.9-1.2-8.8-1.6c1-0.4,3.4-1,8.8-1.6
					c3.9-0.4,8.5-0.7,13.5-0.8c1.2,0.1,2.6,0.3,4.2,0.4c1.6,0.1,3.1,0.2,4.5,0.2c2.6,0,4.9-0.2,7-0.5
					C108.8,381.8,113.2,382,116.8,382.4L116.8,382.4z"/>
				<path id="XMLID_00000139275030293158585840000015714392332318719923_" class="st2" d="M122.3,316.4c1.6,2,0.8,3.5,0.1,4.9
					c-0.3,0.5-0.6,1.1-0.8,1.8c-0.4,1.1-0.1,2.1,0.3,3.3c0.2,0.7,0.4,1.4,0.5,2.1c0.3,3,0,5.3-1.1,6.9c-0.8,1.1-1.7,2.2-2.7,3
					c-0.3,0.3-0.6,0.6-1,1c-0.4,0.5-0.8,1-1.3,1.3c-0.6,0.4-1.1,0.6-1.6,0.6c-1.1,0-1.9-1-2.5-1.8c-0.2-0.3-0.4-0.6-0.6-0.8
					c-0.4-0.5-0.9-0.9-1.5-1.3c-0.8-0.7-1.7-1.4-2.3-2.4c-0.2-0.3-0.3-0.5-0.5-0.7c-0.3-0.6-0.6-1.1-1.1-1.5c-0.2-0.2-0.6-0.5-1-0.7
					c-1-0.6-2.1-1.4-2.2-2.4c-0.1-0.4,0.1-0.8,0.3-1.1c0.1-0.1,0.2-0.3,0.2-0.4c0-0.2-0.1-0.7-0.1-0.9c0-0.1,0-0.2-0.1-0.3
					c-0.2-1-0.5-1.9-0.9-2.8c-0.4-1-0.5-1.1-1.4-1.3c-0.2,0-0.4,0-0.7-0.1c-1-0.1-2.1-0.1-2.6-0.9c-0.3-0.5-0.2-0.9-0.2-1.3
					c0-0.4,0.1-0.5-0.2-0.8c-0.5-0.5-1.5-1.2-2.1-1.5c-0.7-0.2-1.3-0.4-1.9-0.4c-1.4,0-2.8,0.7-4.2,2.1c-1.6,1.6-3.8,2.6-6.1,2.6
					c-0.4,0-0.7,0-1.1-0.1c-0.3,0-0.6-0.2-0.8-0.3c-0.2-0.1-0.4-0.2-0.6-0.2c0,0,0,0-0.1,0c-0.2,0-0.4,0.1-0.6,0.1
					c-0.3,0.1-0.6,0.1-0.9,0.1c-0.1,0-0.2,0-0.3,0c-0.7-0.1-1.2-0.6-1.7-1c-0.3-0.3-0.7-0.6-1-0.7c-0.3-0.1-0.5-0.2-0.7-0.3
					c-0.8-0.3-1.6-0.6-1.8-2c-0.2-0.9-0.3-1.5-0.8-2.4l-0.1-0.1c-0.7-1.2-0.9-1.5-0.2-3c0.4-0.8,0.4-1.2,0.4-2.1
					c0-1.5,0.3-2.9,0.6-4.3c0.1-0.6,0.3-1.2,0.4-1.9c0-0.3,0.1-0.5,0.1-0.8c0-0.6,0.1-1.4,0.4-2c0.3-0.7,0.8-1,1.3-1.4
					c0.2-0.2,0.4-0.3,0.6-0.5c0.5-0.5,0.9-1.3,1.3-2c0.3-0.5,0.6-1.1,0.9-1.6c0.4-0.3,0.6-0.6,0.8-0.9c1.5-1.3,4-2.3,6.1-2.3
					c0.3,0,0.7,0,1,0.1l0.1,0.1c0.3,0.3,0.9,0.5,1.5,0.5c0.2,0.1,0.5,0.3,0.7,0.4c0.7,0.4,1.3,0.8,2,0.8c0.1,0,0.2,0,0.4,0
					c0.6-0.1,1.1-0.5,1.7-0.9c0.5-0.3,1-0.7,1.5-0.9c0.2-0.1,0.5-0.2,0.7-0.3c1.7-0.7,3.4-1.4,5.3-1.5c0.1,0,0.2,0,0.3,0
					c2,0,3.3,1.1,4.6,2.2c0.3,0.3,0.7,0.6,1,0.8c1.1,0.8,2.3,1.4,3.6,2.1c1.4,0.7,2.9,1.5,4.3,2.6c0.9,0.8,1.5,1.1,2.2,1.1
					c0.7,0,1.4-0.3,2.5-0.7c0.1,0,0.2-0.1,0.3-0.1c0.5-0.2,1-0.4,1.4-0.4c0.5,0,1.1,0.2,1.4,1.3c0.3,1.2,0,2.7-0.4,3.9
					c-0.2,0.9-0.6,1.8-0.9,2.6c-0.6,1.4-1.1,2.8-1.1,4.3c0,1.6,1.2,2.9,2.3,4.2C121.7,315.7,122,316,122.3,316.4L122.3,316.4z
					 M121.4,320.7c0.7-1.4,1.2-2.2,0.1-3.6c-0.3-0.3-0.5-0.7-0.8-1c-1.2-1.4-2.5-2.9-2.6-4.9c0-1.8,0.6-3.3,1.2-4.8
					c0.3-0.8,0.7-1.6,0.9-2.4c0.3-1,0.6-2.4,0.4-3.4c-0.1-0.4-0.2-0.4-0.3-0.4c-0.2,0-0.6,0.1-1,0.3c-0.1,0-0.2,0.1-0.3,0.1
					c-1.3,0.5-2.1,0.8-2.9,0.8c-1,0-1.9-0.4-3-1.3c-1.2-1.1-2.6-1.7-4-2.5c-1.3-0.6-2.6-1.3-3.7-2.2c-0.4-0.3-0.7-0.6-1.1-0.9
					c-1.3-1.1-2.3-1.9-3.9-1.9c-0.1,0-0.1,0-0.2,0c-1.7,0.1-3.3,0.7-4.9,1.4c-0.2,0.1-0.5,0.2-0.7,0.3c-0.4,0.2-0.9,0.5-1.3,0.8
					c-0.6,0.5-1.3,0.9-2.1,1.1c-0.2,0-0.4,0.1-0.6,0.1c-1,0-1.8-0.5-2.6-1c-0.4-0.3-0.8-0.5-1.1-0.7c-0.4-0.2-0.9-0.3-1.5-0.3
					c-1.9,0-4.4,1-5.6,2.3c-0.5,0.5-0.9,1.2-1.3,1.9c-0.4,0.8-0.9,1.6-1.5,2.3c-0.2,0.2-0.5,0.4-0.7,0.6c-0.4,0.3-0.8,0.5-0.9,0.9
					c-0.2,0.4-0.2,1-0.3,1.6c0,0.3,0,0.7-0.1,1c-0.1,0.7-0.2,1.3-0.4,1.9c-0.3,1.3-0.6,2.6-0.5,4c0,1.1-0.1,1.6-0.5,2.6
					c-0.2,0.6-0.3,0.8-0.3,1c0,0.2,0.2,0.5,0.5,0.9l0.1,0.1c0.6,1.1,0.8,1.7,1,2.7c0.2,0.8,0.4,0.9,1.1,1.2c0.2,0.1,0.5,0.2,0.8,0.3
					c0.5,0.2,0.9,0.6,1.3,0.9c0.4,0.4,0.8,0.7,1.2,0.8c0,0,0.1,0,0.1,0c0.2,0,0.4-0.1,0.6-0.1c0.3-0.1,0.6-0.1,0.9-0.1
					c0.1,0,0.1,0,0.2,0c0.3,0,0.6,0.2,0.9,0.3c0.2,0.1,0.4,0.2,0.6,0.2c0.3,0,0.6,0.1,0.9,0.1c1.9,0,3.9-0.8,5.3-2.2
					c1.6-1.6,3.2-2.4,4.9-2.4c0.7,0,1.5,0.2,2.3,0.4c0.8,0.3,1.9,1.1,2.5,1.7c0.7,0.7,0.6,1.3,0.5,1.7c0,0.3,0,0.4,0,0.5
					c0.2,0.3,1.2,0.3,1.7,0.4c0.3,0,0.6,0,0.9,0.1c1.4,0.3,1.7,0.8,2.2,2c0.4,0.9,0.7,1.9,1,3c0,0.1,0,0.1,0.1,0.2
					c0.1,0.5,0.2,1,0.2,1.3c0,0.3-0.2,0.5-0.3,0.8c-0.1,0.2-0.2,0.3-0.2,0.4c0.1,0.5,1,1.1,1.7,1.6c0.4,0.3,0.8,0.6,1.1,0.8
					c0.6,0.6,0.9,1.2,1.3,1.8c0.1,0.2,0.3,0.5,0.4,0.7c0.5,0.8,1.3,1.5,2.1,2.1c0.5,0.5,1.1,0.9,1.6,1.4c0.3,0.3,0.5,0.6,0.7,0.9
					c0.5,0.7,1,1.4,1.6,1.4c0.3,0,0.6-0.1,0.9-0.4c0.4-0.3,0.7-0.7,1.1-1.1c0.3-0.4,0.7-0.8,1.1-1.1c0.8-0.7,1.8-1.8,2.4-2.8
					c0.9-1.3,1.2-3.4,0.9-6.2c-0.1-0.7-0.3-1.3-0.4-2c-0.4-1.2-0.7-2.5-0.3-3.9C120.7,321.9,121.1,321.3,121.4,320.7L121.4,320.7z"
					/>
				<path id="XMLID_00000108286392900975889040000001894588430874058649_" class="st2" d="M108.8,282.1c0.5,0.3,0.8,0.8,0.7,1.4
					c-0.1,0.8-0.5,1.2-1.2,1.2c-0.4,0-0.8-0.1-1.1-0.2c-0.1,0-0.1,0-0.1-0.1l0,0c-0.9-0.3-1.7-0.6-2.4-1.2c-0.2-0.2-0.3-0.3-0.4-0.4
					c-0.4-0.4-0.5-0.6-1.1-0.8c-0.1,0-0.3-0.1-0.4-0.1c-0.6-0.2-1.4-0.4-1.6-1c-0.2-0.4-0.1-0.9,0.2-1.4c0.4-0.8,1-1,1.4-1
					c1,0,2,1,3,2c0.6,0.6,1.2,1.2,1.6,1.3c0.1,0,0.2,0,0.3,0.1C108,281.8,108.5,281.9,108.8,282.1L108.8,282.1z M108.5,283.4
					c0-0.2-0.1-0.4-1-0.6c-0.1,0-0.3-0.1-0.4-0.1c-0.6-0.2-1.3-0.8-2.1-1.6c-0.7-0.7-1.7-1.7-2.3-1.7c-0.1,0-0.3,0-0.5,0.4
					c-0.1,0.3-0.2,0.4-0.1,0.5c0.1,0.1,0.6,0.3,0.9,0.4c0.1,0,0.3,0.1,0.5,0.1c0.9,0.3,1.2,0.6,1.6,1.1c0.1,0.1,0.2,0.2,0.4,0.4
					c0.5,0.5,1.1,0.7,1.9,1l0,0c0.1,0,0.1,0,0.2,0.1c0.2,0.1,0.5,0.2,0.7,0.2c0,0,0.1,0,0.1,0C108.4,283.6,108.4,283.5,108.5,283.4
					L108.5,283.4z"/>
				<path id="XMLID_00000007387507049463527770000003200756245783346095_" class="st2" d="M103.7,364.2l1.4,15
					c-0.3,0.1-0.7,0.1-1,0.2c-2.6-0.1-5.3-0.1-8.1-0.1c-2.5,0-4.9,0-7.3,0.1c-0.7-0.1-1.3-0.2-1.7-0.2l3.4-15.3
					c2.7,0.3,5.4,0.5,8.3,0.5C100.3,364.3,102,364.3,103.7,364.2L103.7,364.2z"/>
				<path id="XMLID_00000036213182615671912330000015455583465095680933_" class="st2" d="M101.9,282.4c0.2,0.3,0.3,0.7,0.2,1.2
					c-0.2,0.7-0.6,1.1-1.3,1.1c-0.2,0-0.4,0-0.7-0.1c-0.2,0-0.4-0.1-0.5-0.1c0,0-0.1,0-0.1,0c-0.4,0-0.5,0.1-0.7,0.4
					c-0.2,0.2-0.4,0.4-0.7,0.6c-0.5,0.3-1.1,0.4-1.7,0.4c-0.7,0-1.4-0.2-2-0.5c-0.4-0.2-1.2-0.7-1.4-1.4c0-0.3,0-0.7,0.4-1.1
					c0.3-0.3,0.7-0.5,1.2-0.5c0.3,0,0.6,0.1,0.9,0.1c0.3,0.1,0.5,0.1,0.7,0.1c0.2,0,0.3,0,0.4-0.1c0.1-0.1,0.1-0.2,0.2-0.3
					c0.1-0.3,0.4-0.7,1.1-0.8c0.1,0,0.2,0,0.3,0c0.4,0,0.8,0.1,1.1,0.2c0.2,0.1,0.4,0.1,0.6,0.1c0.1,0,0.2,0,0.3,0
					C100.8,281.8,101.5,281.9,101.9,282.4L101.9,282.4z M101,283.3c0-0.2,0-0.2,0-0.3c-0.1-0.1-0.6-0.1-0.8-0.2c-0.1,0-0.2,0-0.4,0
					c-0.2,0-0.5-0.1-0.7-0.2c-0.3-0.1-0.6-0.2-0.8-0.2c-0.1,0-0.1,0-0.1,0c-0.2,0-0.2,0.1-0.2,0.1c0,0,0,0.1-0.1,0.1
					c-0.1,0.2-0.2,0.4-0.5,0.7c-0.3,0.3-0.7,0.4-1.1,0.4c-0.3,0-0.7-0.1-1-0.2c-0.2-0.1-0.5-0.1-0.7-0.1c-0.2,0-0.3,0-0.4,0.1
					c-0.1,0.1-0.1,0.1-0.1,0.2c0,0.1,0.1,0.3,0.8,0.6c0.4,0.2,0.9,0.4,1.4,0.4c0.4,0,0.8-0.1,1.1-0.3c0.2-0.1,0.3-0.3,0.5-0.4
					c0.3-0.3,0.6-0.7,1.4-0.7c0.1,0,0.1,0,0.2,0c0.2,0,0.5,0,0.7,0.1c0.2,0,0.3,0.1,0.5,0.1C100.9,283.5,101,283.5,101,283.3z"/>
				<path id="XMLID_00000021106716108932496820000016537808801038266044_" class="st2" d="M87.2,293.4c0.2,0.1,0.4,0.2,0.6,0.3
					c-0.6,0-1.1-0.1-1.5-0.5l-0.1-0.1C86.5,293.2,86.9,293.3,87.2,293.4z"/>
				<path id="XMLID_00000063595998543330399890000002185767240560429469_" class="st2" d="M79.1,295.4c-0.2,0.3-0.5,0.6-0.8,0.9
					c0.2-0.2,0.3-0.4,0.5-0.6C78.9,295.6,79,295.5,79.1,295.4z"/>
				<path id="XMLID_00000160900866650490513640000008566574759670208688_" class="st2" d="M73.7,352.5l-1.1,0c0-0.6-0.2-1-0.4-1.4
					c0.5,0.3,1,0.6,1.5,0.9C73.7,352.2,73.7,352.3,73.7,352.5L73.7,352.5z"/>
				<path id="XMLID_00000115488867159247179330000017477930887284471990_" class="st2" d="M72.6,349.9c0.5,0.5,1,1.2,1.1,2.2
					c-0.5-0.3-1-0.6-1.5-0.9c-0.1-0.2-0.3-0.3-0.4-0.5c-0.3-0.4-0.7-0.8-0.9-1.4c-0.7-1.5-0.1-2.2,0.4-2.7c0.3-0.4,0.5-0.5,0.4-1.1
					c-0.1-0.4-0.4-0.7-0.8-1.1c-0.6-0.6-1.3-1.2-1.5-2.5c-0.1-0.5,0-0.8,0-1.2c0.1-0.4,0.1-0.7,0-1.2c-0.1-0.3-0.3-0.5-0.5-0.8
					c-0.3-0.3-0.6-0.7-0.8-1.2c-0.2-0.5-0.2-0.9-0.3-1.2c-0.2-1-0.3-1.4-1.7-1.5c-0.4,0-0.9,0.1-1.4,0.3c-0.9,0.3-2,0.7-3-0.5
					c-0.6-0.7-0.6-1.5-0.6-2c0-0.3,0-0.5-0.1-0.6c-0.1-0.1-0.3-0.3-1.1-0.4c-0.3,0-0.7,0-1.1,0.1c-0.5,0.1-1,0.2-1.5,0.2
					c-0.5,0-0.8-0.2-1.2-0.3c-0.2-0.4-0.4-0.9-0.5-1.3c0.3,0,0.6,0.2,0.9,0.3c0.3,0.1,0.6,0.2,0.9,0.3c0.3,0,0.7,0,1.1-0.1
					c0.5-0.1,1-0.2,1.5-0.1c0.9,0.1,1.5,0.3,1.8,0.7c0.3,0.4,0.4,0.9,0.4,1.3c0,0.4,0,0.9,0.4,1.3c0.4,0.5,0.8,0.5,1.8,0.1
					c0.6-0.2,1.2-0.4,1.9-0.3c2.2,0.2,2.4,1.3,2.6,2.4c0.1,0.3,0.1,0.7,0.3,1.1c0.1,0.3,0.3,0.6,0.6,0.9c0.3,0.3,0.6,0.7,0.7,1.1
					c0.2,0.7,0.2,1.2,0.1,1.7c0,0.3-0.1,0.6,0,0.9c0.1,0.8,0.6,1.3,1.1,1.8c0.5,0.5,1,0.9,1.1,1.6c0.3,1.1-0.3,1.7-0.6,2.1
					c-0.4,0.4-0.6,0.6-0.2,1.5C72,349.2,72.3,349.5,72.6,349.9L72.6,349.9z"/>
				<path id="XMLID_00000147905339640673369750000010913505338651756439_" class="st2" d="M56,331.7C56,331.7,55.9,331.7,56,331.7
					c-0.5-0.2-0.8-0.3-1.1-0.2l-0.3-1.1c0.3-0.1,0.6-0.1,0.9-0.1C55.6,330.8,55.8,331.3,56,331.7L56,331.7z"/>
			</g>
		</g>
		<g id="XMLID_890_">
			<g>
				<g id="XMLID_00000140002495650410838790000013546863952452501394_">
					<path id="XMLID_00000004535972103187929670000016121096655675634104_" class="st2" d="M200,366.7c0,0.2,0,0.6,0.1,1.1
						c0,0.5,0.1,0.8,0.1,1.1c0,0.4,0,0.9,0,1.6c0,0.7,0,1.3,0,1.9c0,0.6,0,1.1,0,1.6c0,0.1,0,0.2-0.1,0.2c0,0.1-0.1,0.1-0.2,0.1
						c-0.1,0-0.1,0-0.2-0.1c0-0.1-0.1-0.1-0.1-0.2c0-0.5,0-1,0-1.6c0-0.6,0-1.2,0-1.9c0-0.7,0-1.2,0-1.6c0-0.2,0-0.6,0-1.1
						c0-0.6-0.1-1-0.1-1.1c0-0.1,0-0.2,0.1-0.2c0-0.1,0.1-0.1,0.2-0.1c0.1,0,0.1,0,0.2,0.1C199.9,366.5,200,366.6,200,366.7
						L200,366.7z"/>
					<path id="XMLID_00000087393726956799700720000014101911389851491975_" class="st2" d="M203.6,366.3c0.8,1.8,1.7,3.8,2.9,6
						c0.1,0.2,0.3,0.6,0.6,1.1l0.1,0.3c0,0,0-0.1,0-0.1c0,0,0-0.4,0-1.1c0-0.2,0-1,0.1-2.6s0.1-2.7,0.1-3.6c0-0.1,0-0.2,0.1-0.2
						c0-0.1,0.1-0.1,0.2-0.1c0.1,0,0.1,0,0.2,0.1c0,0.1,0.1,0.1,0.1,0.2c0,0.6,0,1.2,0,1.9c0,0.7-0.1,1.5-0.1,2.3
						c0,0.8-0.1,1.5-0.1,1.9c0,0.7,0,1,0,1.1c0,0.3,0,0.5-0.1,0.6c0,0.1,0,0.2-0.1,0.3c-0.1,0.2-0.2,0.2-0.3,0.2c0,0-0.1,0-0.1,0
						l0,0l0,0l0,0l0,0l0-0.1l-0.1-0.2l-0.3-0.6c-0.3-0.6-0.5-1-0.6-1.1c-1-1.8-1.8-3.6-2.6-5.3c-0.1,2.3-0.1,4.6,0,7
						c0,0.1,0,0.2-0.1,0.2c0,0.1-0.1,0.1-0.2,0.1c-0.1,0-0.1,0-0.2-0.1c0-0.1-0.1-0.1-0.1-0.2c-0.1-2.7-0.1-5.3,0-7.8
						c0-0.1,0-0.2,0.1-0.3c0,0,0-0.1,0.1-0.1c0.1,0,0.1-0.1,0.2,0C203.6,366.1,203.6,366.2,203.6,366.3L203.6,366.3z"/>
					<path id="XMLID_00000040566365960121766830000006199885999879567291_" class="st2" d="M211.7,366.5c-0.1,1-0.1,2.2-0.1,3.7v0.4
						c0.1-0.1,0.2-0.3,0.3-0.4l0.4-0.5l0.3-0.4l1.9-2.4c0-0.1,0.1-0.1,0.2-0.1c0.1,0,0.1,0,0.2,0.1c0,0.1,0.1,0.1,0.1,0.2
						c0,0.1,0,0.2-0.1,0.2l-1.9,2.4l-0.2,0.3c0.1,0.2,0.4,0.8,0.9,1.8c0.5,1,0.9,1.7,1.3,2.2c0,0.1,0.1,0.1,0.1,0.2
						c0,0.1,0,0.2-0.1,0.2c0,0.1-0.1,0.1-0.2,0.1c-0.1,0-0.1,0-0.2-0.1c-0.3-0.4-0.5-0.8-0.8-1.2l-0.8-1.5c-0.3-0.5-0.5-1-0.7-1.3
						c-0.4,0.4-0.6,0.8-0.8,1.1c0,1.1,0,1.9,0,2.4c0,0.1,0,0.2-0.1,0.2c0,0.1-0.1,0.1-0.2,0.1c-0.1,0-0.1,0-0.2-0.1
						c0-0.1-0.1-0.1-0.1-0.2c0-0.5,0-1.2,0-2.1c0-0.9,0-1.5,0-1.6c0-1.5,0-2.7,0.1-3.8c0-0.1,0-0.2,0.1-0.2c0-0.1,0.1-0.1,0.2-0.1
						c0.1,0,0.1,0,0.2,0.1C211.7,366.4,211.7,366.4,211.7,366.5L211.7,366.5z"/>
				</g>
				<path id="XMLID_00000128487152037321210070000006047950420988274344_" class="st2" d="M225.3,375.2l-0.6-16.7
					c0.4-0.6,1.3-2.2,0.9-4c-0.4-1.6-1.7-2.9-3.9-3.9l-3.3-3.9c-0.1-2.1-0.1-3-0.1-3.4c0.6-0.1,1.2-0.2,1.8-0.3l0.7-0.1l-0.5-11.6
					l-0.5-0.2c-0.2-0.1-5-2.2-12-2.2c-4.1,0-8.1,0.7-12,2.1l-0.5,0.2l-1.6,11.6l0.7,0.2c0.1,0,1,0.2,2.5,0.4v3l-2.7,3.8
					c-0.9,0.3-3.5,1.2-4.4,3.4c-0.6,1.4-0.3,3.1,0.8,4.8l0.4,17.6c-0.5,0.7-1.8,2.8-0.5,5.6l0.1,0.2l0.2,0.1
					c0.2,0.2,5.1,3.8,15.1,3.8h0c5.8,0,12.2-1.2,19-3.7l0.4-0.2l0.1-0.4C225.6,380.5,226.3,376.7,225.3,375.2L225.3,375.2z
					 M195.5,341.6l1.3-9.1c3.5-1.2,7.2-1.9,11-1.9c5.4,0,9.6,1.3,10.9,1.8l0.4,9.2c-0.9,0.2-1.8,0.3-2.8,0.4l0.4-6.6l-0.8,0
					l-0.4,6.7c-0.6,0.1-1.1,0.1-1.7,0.2c-0.3,0-0.7,0-1,0l0.4-6.8l-0.8,0l-0.4,6.9c-0.6,0-1.3,0-2,0l0.4-6.8l-0.8,0l-0.4,6.9
					c-0.7,0-1.4,0-2.2,0l0.4-6.9l-0.8,0l-0.4,6.9c-0.6,0-1.3,0-1.9,0l0.4-6.9l-0.8,0l-0.4,6.9l0,0c-0.8,0-1.5,0-2.2,0l0.6-6.9
					l-0.8-0.1l-0.6,6.9l0.4,0c-1.1-0.1-2-0.2-2.9-0.3l0.6-6.6l-0.8-0.1l-0.6,6.6C196.7,341.8,196,341.7,195.5,341.6L195.5,341.6z
					 M194.9,351.9l0.3-0.1l3.4-4.7V344c0.6,0,1.5,0,2.5,0c1.8,0.1,3.9,0.2,6.2,0.2h0c2.2,0,4.5-0.1,6.7-0.3c1.4,0,2.3,0,2.8,0
					c0,0.8,0.1,2.2,0.1,3.1l0,0.3l3.9,4.6l0.2,0.1c0.9,0.4,1.6,0.8,2.1,1.3c-0.6,0-1.2-0.1-1.8-0.1c-1.3-0.1-2.5-0.2-3.8,0
					c-1.6,0.2-3.1-0.1-4.6-0.5c-1-0.2-2-0.5-3.1-0.5c-2.2-0.1-4.2-0.1-6.1,0.1c-1,0.1-1.9,0.3-2.8,0.5c-0.6,0.1-1.3,0.3-2,0.4
					c-1.4,0.2-2.4,0.3-3.8-0.2c-0.1,0-0.1-0.1-0.2-0.1c-0.4-0.2-1-0.4-1.5-0.5C194.2,352,194.9,351.9,194.9,351.9L194.9,351.9z
					 M203.1,377.1c-5-0.3-9-1-10.5-1.3l-0.3-14.5c1.6,0.3,5,0.9,9.5,1.2c2,0.1,4.2,0.3,6.7,0.3c4.5,0,9.6-0.4,14.6-1.5l0.5,13.4
					C216.8,377.3,208.7,377.5,203.1,377.1L203.1,377.1z"/>
			</g>
		</g>
		<g id="XMLID_889_">
			<g>
				<path id="XMLID_00000145054220299886887490000017102155997960660649_" class="st2" d="M392.5,382.7c0,0-0.1-1.5-0.2-4.1l0.5,0.3
					l-0.1-2c0-0.5-2-46.3-2.9-65.1c-0.3-5.4-3.8-9.8-10.2-13c-6.4-3.1-15.6-4.8-25.2-4.6c-8.8,0.2-16.6,2-21,4.8
					c-4-2.8-11.6-4.4-20.4-4.4c-9.4,0-18.7,1.9-25.3,5.1c-7.2,3.5-11,8.4-11,14.2c0,1,0,2.2,0,3.4c-0.1,0.8-0.2,1.6-0.2,2.4
					c0.1,18.8,0.5,64.7,0.5,65.1l0,1.9l1.5-1.1c0,0,0.6-0.4,1.7-1.1c2.9-0.8,44.4-11.7,54.9-11.9l0.1,0l0.1,0
					c10.5,1,52.6,10.2,55.8,10.9l1.5,1L392.5,382.7L392.5,382.7z M336.3,366.6c0-1.3,0.1-2.5,0.1-3.8c3.4-0.6,7-0.8,10.7-0.7
					c20.4,0.7,38.8,12.1,43.2,15c0.1,1.5,0.1,2.7,0.2,3.7c-2.2-1.4-6.4-3.9-12-6.6c-7.6-3.5-19.2-7.8-31.5-8.3
					C343.3,365.8,339.7,366.1,336.3,366.6L336.3,366.6z M336.4,368.6c3.4-0.6,6.9-0.8,10.5-0.6c12,0.4,23.3,4.6,30.7,8.1
					c3.5,1.6,6.4,3.2,8.7,4.6c-12-2.6-40.1-8.5-49.9-9.7C336.5,370.2,336.4,369.3,336.4,368.6L336.4,368.6z M354.5,296.3
					c9.3-0.2,18.1,1.4,24.3,4.4c5.8,2.8,8.9,6.6,9.1,11.3c0.8,16.6,2.4,54.2,2.8,63.1c-5.5-3.6-23.5-14.1-43.5-14.8
					c-3.7-0.1-7.3,0.1-10.7,0.6c0.3-10.2,0.4-19.4,0.2-28.2c-0.1-10.2-0.6-17.7-1.4-23.4c-0.2-1.7-0.6-6.4-0.8-8.5
					C338.5,298.1,345.9,296.4,354.5,296.3L354.5,296.3z M278.7,317.5c0-1.2,0-2.4,0-3.5c0-6.3,5.4-10.2,9.9-12.5
					c6.4-3.1,15.3-4.9,24.5-4.9c8.3,0,15.3,1.4,19,3.9l0.4,0.5c0.2,2,0.6,6.4,0.8,8.2l0,0c0.8,5.7,1.3,13.2,1.4,23.5
					c0.1,5.9,0,12.7-0.1,22.6c0,0.5,0,0.9,0,1.4c0,1.4,0,2.7-0.1,4.1l0,0l0,0c-1.3-0.1-2.6-0.2-3.9-0.3c-13.9-0.5-27.5,4.4-36.6,8.5
					c-7,3.2-12.4,6.6-14.9,8.2C279.1,369.2,278.8,335.4,278.7,317.5L278.7,317.5z M278.9,379.9c1-0.7,7.2-4.9,15.9-9
					c8.8-4.1,22.2-8.8,35.7-8.4c1.3,0,2.6,0.1,3.9,0.3c0,1.3,0,2.5-0.1,3.8c-1.3-0.1-2.6-0.2-4-0.3c-13.9-0.5-27.5,4.4-36.6,8.5
					c-7,3.2-12.4,6.6-14.9,8.2C278.9,382.3,278.9,381.2,278.9,379.9L278.9,379.9z M294.6,376.7c8.8-4.1,22.2-8.8,35.7-8.4
					c1.3,0,2.7,0.2,4,0.3l0,0.3l0,0c-0.1,0.6-0.1,1.3-0.1,1.9c-9.5,0.6-35.8,7.1-48.2,10.3C288.4,379.7,291.3,378.2,294.6,376.7
					L294.6,376.7z"/>
				<path id="XMLID_00000160176276978150574380000009474645776909383849_" class="st2" d="M284.8,312.6l0.2,52.3c0,0,9.2-6,19-7.3
					c-0.9-13.1-1.1-50.1-1.1-50.1L284.8,312.6L284.8,312.6z"/>
				<path id="XMLID_00000086686532994652937060000010509050735518173316_" class="st2" d="M305.6,311.9c0.1-0.9,0.9-1.9,1.8-2.2
					c1.3-0.4,1.4,0.7,2.5,0.9c2,0.3,2.8-2.3,5.2-1.4c1,0.4,1,1.1,2.2,0.9c1.1-0.2,1.5-1.5,2.5-1.6c2-0.4,2.5,1.6,4.6-0.3
					c0.9,1.5,3,1.2,3.8-0.2"/>
				<path id="XMLID_00000145774879961588999300000016760152008090129585_" class="st2" d="M306,318c0.4-1,1.4-2.2,2.6-2.4
					c1.3-0.2,2,1.2,3.2,1.1c1.2-0.1,1.6-1.5,2.6-1.7c1.2-0.2,2,1.1,3.1,1c1.2-0.1,1.9-1.4,3-1.3c0.5,0,0.8,0.9,1.4,0.9
					c0.8,0,1.1-0.7,1.7-1c1.4-0.5,0.9-0.1,2.5,0.1c1.2,0.2,2.2-0.2,3-1.1"/>
				<path id="XMLID_00000147187821697358820700000001342978694570490812_" class="st2" d="M306.6,324c-0.4-2.9,4.4,0,5.4-0.2
					c1.1-0.2,1.6-1.6,2.6-1.9c1.3-0.3,1.9,0.9,3.1,1.1c1.6,0.2,2.4-0.9,3.8-1.4c1.7-0.6,1.9,0.3,3.3,0.4c1.5,0.1,1.8-1.3,3-1.5
					c1.1-0.1,1.8,1.5,2.9,0.3"/>
				<path id="XMLID_00000167356409585967389300000017928395145196364426_" class="st2" d="M307.2,331.1c0.1-0.9,0.9-1.9,1.8-2.2
					c1.3-0.4,1.4,0.7,2.5,0.9c2,0.3,2.8-2.3,5.2-1.4c1,0.4,1,1.1,2.2,0.9c1.1-0.2,1.5-1.5,2.5-1.6c2-0.4,2.5,1.6,4.6-0.3
					c0.9,1.5,3,1.2,3.8-0.2"/>
				<path id="XMLID_00000016784015595775483300000015294120787104803462_" class="st2" d="M307.6,337.3c0.4-1,1.4-2.2,2.6-2.4
					c1.3-0.2,2,1.2,3.2,1.1c1.2-0.1,1.6-1.5,2.6-1.7c1.2-0.2,2,1.1,3.1,1c1.2-0.1,1.9-1.4,3-1.3c0.5,0,0.8,0.9,1.4,0.9
					c0.8,0,1.1-0.7,1.7-1c1.4-0.5,0.9-0.1,2.5,0.1c1.2,0.2,2.2-0.2,3-1.1"/>
				<path id="XMLID_00000006676623520183658160000000052941644503739327_" class="st2" d="M308.3,343.2c-0.4-2.9,4.4,0,5.4-0.2
					c1.1-0.2,1.6-1.6,2.6-1.9c1.3-0.3,1.9,0.9,3.1,1.1c1.6,0.2,2.4-0.9,3.8-1.4c1.7-0.6,1.9,0.3,3.3,0.4c1.5,0.1,1.8-1.3,3-1.5
					c1.1-0.1,1.8,1.5,2.9,0.3"/>
				<path id="XMLID_00000098901328128322623570000017900316319355411382_" class="st2" d="M342.8,308.3c0.3-0.9,1.4-1.8,2.7-1.9
					c1.8-0.2,1.8,0.9,3.3,1.2c2.7,0.6,3.9-1.9,7.1-0.7c1.3,0.5,1.2,1.2,2.8,1.2c1.5,0,2.2-1.3,3.5-1.3c2.7-0.1,8.3,5.9,11.4,4.3
					c1,1.6,3.9,1.6,5.2,0.3"/>
				<path id="XMLID_00000135664198824718560190000013967608310651405709_" class="st2" d="M342.7,314.5c0.6-1,2.1-2,3.7-2
					c1.8,0,2.5,1.4,4.1,1.5c1.6,0.1,2.3-1.3,3.7-1.4c1.7-0.1,2.5,1.3,4.1,1.4c1.6,0.1,2.7-1.1,4.2-0.9c0.6,0.1,1,1,1.7,1.1
					c1.1,0.1,6.7,3.4,7.6,3.3c2-0.3,1.2,0,3.4,0.4c1.6,0.3,3,0.1,4.1-0.7"/>
				<path id="XMLID_00000129897182867670107100000016418135698078992008_" class="st2" d="M342.8,320.4c-0.2-2.9,5.9,0.6,7.2,0.5
					c1.5-0.1,2.4-1.4,3.7-1.6c1.8-0.2,2.4,1.1,4.1,1.4c2.1,0.4,3.3-0.6,5.2-0.9c2.3-0.4,7.6,4.6,9.6,4.9c2,0.3,2.6-1.1,4.2-1.1
					c1.4,0,2.2,1.7,3.9,0.7"/>
				<path id="XMLID_00000075866705013920974180000006858710156855768212_" class="st2" d="M342.7,327.6c0.3-0.9,1.4-1.8,2.7-1.9
					c1.8-0.2,1.8,0.9,3.3,1.2c2.7,0.6,3.9-1.9,7.1-0.7c1.3,0.5,1.2,1.2,2.8,1.2c1.5,0,2.2-1.3,3.5-1.3c2.7-0.1,8.3,5.9,11.4,4.3
					c1,1.6,3.9,1.6,5.2,0.3"/>
				<path id="XMLID_00000012450687034666069410000014229457419075400083_" class="st2" d="M342.6,333.8c0.6-1,2.1-2,3.7-2
					c1.8,0,2.5,1.4,4.1,1.5c1.6,0.1,2.3-1.3,3.7-1.4c1.7-0.1,2.5,1.3,4.1,1.4c1.6,0.1,2.7-1.1,4.2-0.9c0.6,0.1,1,1,1.7,1.1
					c1.1,0.1,6.7,3.4,7.6,3.3c2-0.3,1.2,0,3.4,0.4c1.6,0.3,3,0.1,4.1-0.7"/>
				<path id="XMLID_00000182521544122896205730000004373767472852559258_" class="st2" d="M342.7,339.8c-0.2-2.9,5.9,0.6,7.2,0.5
					c1.5-0.1,2.4-1.4,3.7-1.6c1.8-0.2,2.4,1.1,4.1,1.4c2.1,0.4,3.3-0.6,5.2-0.9c2.3-0.4,7.6,4.6,9.6,4.9c2,0.3,2.6-1.1,4.2-1.1
					c1.4,0,2.2,1.7,3.9,0.7"/>
				<path id="XMLID_00000169543387492471043690000015414765452648885434_" class="st2" d="M342.4,346.7c-0.2-2.9,5.9,0.6,7.2,0.5
					c1.5-0.1,2.4-1.4,3.7-1.6c1.8-0.2,2.4,1.1,4.1,1.4c2.1,0.4,3.3-0.6,5.2-0.9c2.3-0.4,7.6,4.6,9.6,4.9c2,0.3,2.6-1.1,4.2-1.1
					c1.4,0,2.2,1.7,3.9,0.7"/>
			</g>
		</g>
	</g>
	<g id="XMLID_916_">
		<g>
			<g id="XMLID_00000029753624288877613600000016320954158993170842_">
				<path class="st2" d="M343.2,206.7l-8-41.1l-98.5,51.9L140,165.6l-8,44.3c0-0.1-0.7,3.3-0.7,5.1c0,15.7,65.2,50.8,104.1,50.8
					c44.2,0,109.4-35.2,109.4-50.8C344.9,213.3,344.2,211.7,343.2,206.7z"/>
			</g>
			<g id="XMLID_00000080896148146505021740000011528883331414574513_">
				<polygon class="st2" points="237.4,210.9 86,129.8 237.9,87 389.3,129.2 				"/>
			</g>
			<polygon id="XMLID_00000100341870344224328870000018173238641959107260_" class="st0" points="87.1,134.5 78,216.6 86.7,232.2 
				95.5,216.6 			"/>
		</g>
	</g>
</g>
</svg>
