<?xml version="1.0" encoding="utf-8"?>
<!-- Generator: Adobe Illustrator 26.0.0, SVG Export Plug-In . SVG Version: 6.00 Build 0)  -->
<svg version="1.1" id="Layer_1" xmlns="http://www.w3.org/2000/svg" xmlns:xlink="http://www.w3.org/1999/xlink" x="0px" y="0px"
	 viewBox="0 0 1273.9 493.2" style="enable-background:new 0 0 1273.9 493.2;" xml:space="preserve">
<style type="text/css">
	.st0{fill:#F9B715;stroke:#FFFFFF;stroke-width:3;stroke-miterlimit:10;}
	.st1{fill:#3D1A0F;}
	.st2{fill:#FFFFFF;}
</style>
<path class="st0" d="M410.7,182.2c-7.1,22.2-1,44.3,6.1,69.8c8.8,31.7,18.7,67.7,5.3,113.1c-25.1,84.8-89.4,95.4-120.3,100.5
	c-30.3,4.9-52.6,14.6-60.7,26.1h-15.3c-3.1-4.3-15.2-17.2-53.4-23.6c-55.1-9.1-103.9-22.3-143.7-90.9c-18.5-31.9-8.2-77.3,1.8-121.1
	C43,200.4,53.9,152.4,9.7,137.3l-6.9-2.4L140,3.3l0.7,9.5c0.2,1.8,4.8,46,89.1,50.3c35.1,1.7,61.1-4.9,77.5-19.7
	c15.2-13.8,16.1-30.3,16.1-30.4l0.4-9.3l7,6.2l139.1,123l-8.5,1.9C459.8,135,423.1,143.6,410.7,182.2z"/>
<g>
	<g id="XMLID_26_">
		<path id="XMLID_940_" class="st1" d="M227.1,276.7c-0.1-0.1-0.2-0.1-0.3-0.2c-0.1,0-0.2-0.1-0.3-0.1c-0.4,0-1,0.1-2.7,1.3
			c-1.4,0.9-3.1,2.2-5.3,3.9c-4.4,3.5-10.1,8.2-15.9,13.4c-1.6,1.5-3.2,2.9-4.8,4.3l-0.3,0.3c-4.7,4.2-8.8,7.9-11.7,10.6
			c-3.3,3.1-4.3,4.3-4.6,4.9c-0.2,0-0.3,0.1-0.4,0.2l-10.5,9.4c-0.4-0.1-0.9-0.2-1.3-0.2c-2.2,0-4,1.3-4.9,3.4l-0.1,0.3
			c-1,2.3-1,2.3-3.3,4.8c-0.5,0.5-1.1,1.1-1.8,1.9c-0.1,0.1-0.4,0.3-0.3,0.7c0.1,0.4,0.6,0.4,0.9,0.4h0c2.3,0,10-2.1,12.7-4.8
			c1.2-1.2,1.7-2.5,1.4-3.7l10.6-8.6c0.2-0.2,0.3-0.4,0.3-0.6c3.6-2.2,11.9-9.7,20.7-17.7l1.6-1.4c5.9-5.3,11.3-10.5,15.2-14.6
			c1.9-2,3.3-3.6,4.3-4.8C227.3,278,227.6,277.2,227.1,276.7L227.1,276.7z M182.9,318.1l-10.1,8.2c-0.3-0.4-0.8-0.8-1.3-1.1l9.8-8.7
			c0.1,0.1,0.3,0.2,0.5,0.4C182,317.3,182.6,317.8,182.9,318.1L182.9,318.1z M185,315.8l-1.3-1.3c0.1-0.2,0.4-0.5,0.8-1.1
			c0.7-0.8,1.8-1.9,3.2-3.2c2.8-2.6,6.6-6.1,11.1-10.1l0.1-0.1c1.6-1.4,3.2-2.8,4.8-4.3c5.4-4.9,10.7-9.4,14.9-12.6
			c3.8-2.9,5.5-4,6.3-4.4c-0.5,0.8-1.7,2.4-5,5.8c-3.6,3.8-8.6,8.6-14.1,13.5l-1.5,1.4C196.2,306.7,188.4,313.7,185,315.8L185,315.8
			z"/>
		<g id="XMLID_901_">
			<g>
				<path id="XMLID_00000032626091454251493390000008476338521537985448_" class="st1" d="M131.6,292.3c2.3,5.4,3.4,11,3.4,16.9
					s-1.1,11.5-3.4,16.9c-2.2,5.2-5.3,9.8-9.3,13.8c-3.3,3.3-7.1,6-11.3,8.1l1.4,6.7l-1.1,0.2c-3.3,0.6-6.5,1-9.6,1.3l1.4,15
					c3.9,0.2,7.5,0.4,10.6,0.8c2.8,0.3,5.1,0.7,6.7,1.2c0.9,0.2,1.5,0.5,2,0.8c0.8,0.4,1.2,1,1.2,1.6c0,0.7-0.4,1.2-1.2,1.6
					c-0.5,0.3-1.1,0.5-2,0.8c-1.6,0.4-3.8,0.8-6.7,1.2c-5.8,0.7-13.5,1-21.6,1c-8.2,0-15.8-0.4-21.6-1c-2.8-0.3-5.1-0.7-6.7-1.2
					c-0.9-0.2-1.5-0.5-2-0.8c-0.8-0.4-1.2-1-1.2-1.6c0-0.7,0.4-1.2,1.2-1.6c0.5-0.3,1.1-0.5,2-0.8c1.6-0.4,3.8-0.8,6.7-1.2
					c3.1-0.4,6.7-0.6,10.6-0.8l3.5-15.4c-0.9-0.1-1.9-0.3-2.8-0.5c-7.4-1.5-14-4.3-19.6-8.5c-3.8-2.8-7.1-6.3-9.9-10.3
					c-2.2-3.2-4.1-6.7-5.7-10.5c-2.6-6.4-3.1-11.3-3.2-11.5l0-0.1l0-0.1c0.1-8.7,1.6-16.7,4.4-23.7c2.3-5.6,5.4-10.6,9.3-14.9
					c3.5-3.8,7-6.3,9.3-7.7c2.5-1.5,4.2-2.2,4.3-2.2l0.7-0.3l2.9,3.8c0.1-0.1,0.2-0.1,0.4-0.2c5.4-2.3,11-3.4,16.9-3.4
					s11.5,1.1,16.9,3.4c5.2,2.2,9.8,5.3,13.8,9.3C126.3,282.5,129.4,287.1,131.6,292.3L131.6,292.3z M132.9,309.2
					c0-8.2-2.4-15.8-6.5-22.2c0.1,0.5,0.1,0.9-0.1,1.3c-0.3,0.4-0.9,0.9-2.1,0.7c-0.8-0.1-1.6-0.5-1.9-0.7c-1.4-0.7-2.1-1.8-2.6-3.2
					c-0.2-0.4-0.3-0.7-0.4-0.8c-0.1-0.1-0.2-0.1-0.5-0.2c-0.2,0-0.3-0.1-0.6-0.2c-0.4-0.1-0.7-0.3-1-0.5c-0.5-0.3-0.9-0.5-1.3-0.5
					c-0.4,0-0.9,0.3-1.4,0.5c-0.4,0.2-0.9,0.4-1.3,0.6c-0.7,0.2-1.5-0.1-2.2-0.3c-0.6-0.2-1.2-0.3-1.5-0.2c-0.1,0-0.1,0.1-0.2,0.1
					c0,0.2,0.4,0.6,0.9,0.9c0.7,0.3,1.3,0.1,2-0.1c0.2-0.1,0.5-0.2,0.7-0.2c0.1,0,0.1,0,0.2,0c1.3-0.3,2.8,0.1,3.8,1
					c0.9,0.8,1.3,2,1,3.2c-0.3,1.6-1.7,3.6-3.3,4.6c-0.7,0.4-1.3,0.6-1.9,0.6c-0.2,0-0.4,0-0.6-0.1c-1.8-0.5-3.7-1.5-5.5-2.4
					c-0.4-0.2-0.8-0.4-1.1-0.6c-0.8-0.4-1.3-0.9-1.8-1.4c-0.3-0.3-0.6-0.6-1-0.9c-0.2-0.2-0.4-0.3-0.6-0.4c-0.7-0.4-1.3-0.8-1.8-1.7
					c-0.1-0.2-0.2-0.4-0.3-0.6c-0.4-0.8-0.8-1.5-1.5-1.8c-0.7-0.3-1-0.1-1.5,0.2c-0.2,0.1-0.5,0.3-0.8,0.4c-0.5,0.2-1,0.3-1.4,0.3
					c-0.8,0-1.3-0.4-1.9-0.9c-0.1-0.1-0.2-0.2-0.3-0.3c-0.4-0.3-0.9-0.5-1.2-0.4c-0.1,0-0.3,0.1-0.4,0.4c0,0.1-0.1,0.4-0.1,0.6
					c-0.1,0.6-0.2,1.3-0.8,1.7c-0.4,0.2-0.8,0.2-1.4,0c-0.5-0.2-0.8-0.5-0.9-0.9c-0.1,0.2-0.2,0.4-0.4,0.5c-0.3,0.2-0.6,0.2-1,0.1
					c0.3,0.4,0.6,0.9,0.3,1.5c-0.2,0.5-0.8,0.9-1.6,1.1c-0.2,0.1-0.5,0.1-0.8,0.1c-0.2-0.1-0.4-0.2-0.6-0.3c-0.3-0.1-0.6-0.2-1-0.3
					l-0.3-0.3l0.3-0.4c0.1-0.1,0.2-0.2,0.2-0.3c0.6-0.6,0.6-0.7,0.4-0.9c-0.2-0.1-0.8-0.1-1.1-0.1c-0.3,0-0.5,0-0.7,0
					c-0.3-0.1-0.6-0.1-0.9-0.2c-0.6-0.2-0.9-0.3-1.2-0.1c0,0-0.1,0.2-0.1,0.2c-0.1,0.2-0.2,0.5-0.4,0.7c-0.3,0.3-0.7,0.4-1,0.6
					c-0.2,0.1-0.3,0.1-0.5,0.2c-0.7,0.4-0.9,1-1.2,1.6c-0.1,0.3-0.3,0.7-0.5,1.1c-0.1,0.1-0.2,0.2-0.3,0.3c-0.2,0.2-0.3,0.4-0.5,0.6
					c-0.1,0.1-0.2,0.1-0.3,0.2c-0.7,0.4-2.9,1.4-4.1,0.6c-0.3-0.2-0.7-0.6-0.5-1.6c0.2-1.2,1-1.9,1.7-2.6c0.8-0.7,1.3-1.2,1.2-2
					c0-0.3-0.1-0.5-0.1-0.7c-0.2-0.9-0.1-1.3,0.9-2c0.2-0.2,0.4-0.2,0.6-0.3c0,0,0.1,0,0.1,0c0,0,0-0.1,0.1-0.2
					c0-0.1-0.1-0.3-0.1-0.5c-0.1-0.3-0.2-0.6-0.1-1c0.2-0.6,0.7-0.8,1.1-0.8c0.1,0,0.2-0.1,0.3-0.1c0.1-0.1,0.2-0.1,0.3-0.2
					c0.1-0.1,0.2-0.2,0.3-0.3c0.5-0.5,1.1-0.9,1.7-1.3c-1.3,0.1-3.1-0.3-3.5-1.4l-0.2-0.5l0.5-0.2c0.2-0.1,0.1-0.9,0.1-1.3
					c0-0.6-0.1-1.2,0.1-1.7c0.4-1.1,1.5-1.8,3-2.1c0.6-0.1,1.3,0,2,0c0.9,0.1,1.8,0.2,2.3-0.1c0.4-0.2,0.6-0.9,0.8-1.5
					c0-0.1,0.1-0.2,0.1-0.4c-18.7,3.9-32.8,20.5-32.8,40.4c0,5.1,0.9,10,2.6,14.5c-0.3,0-0.6,0-0.9,0.1l0.3,1c0.4-0.1,0.6,0,1,0.2
					c0,0,0,0,0.1,0c3.2,7.7,8.7,14.3,15.6,18.8c0.2,0.4,0.4,0.7,0.4,1.3l1.1,0c0-0.1,0-0.3,0-0.4c6.2,3.7,13.3,5.8,21,5.8
					C114.4,350.4,132.9,331.9,132.9,309.2L132.9,309.2z M125.4,287.7c0.2-0.3-0.3-1.1-0.6-1.6c-0.2-0.3-0.4-0.7-0.4-0.9
					c-0.2-0.5-0.3-1-0.3-1.5c-7.6-9.6-19.3-15.8-32.4-15.8c-2.5,0-4.9,0.2-7.2,0.6c-0.1,0.3-0.2,0.6-0.3,0.9
					c-0.2,0.8-0.5,1.8-1.3,2.2c-0.8,0.4-1.9,0.3-2.9,0.2c-0.7-0.1-1.3-0.1-1.7,0c-0.5,0.1-1.7,0.4-2.2,1.5c-0.1,0.2-0.1,0.8,0,1.2
					c0,0.6,0.1,1.4-0.2,1.9c0.2,0.1,0.5,0.3,1,0.4c0.8,0.2,1.4,0.1,1.7,0c0.6-0.2,0.7-0.7,0.8-1.6c0-0.4,0.1-0.8,0.2-1.3l0.1-0.3
					l0.3-0.1c0.8-0.1,1.5,0.1,2,0.6c0.4,0.5,0.5,1.2,0.2,1.9c-0.4,1-1.3,1.5-2,1.9c-0.2,0.1-0.4,0.2-0.6,0.3c-1,0.6-1.7,1.1-2.4,1.7
					c-0.1,0.1-0.1,0.1-0.2,0.2c-0.1,0.1-0.2,0.3-0.5,0.5c-0.2,0.2-0.5,0.2-0.7,0.3c-0.2,0-0.2,0.1-0.3,0.1c0,0.1,0.1,0.2,0.1,0.3
					c0.1,0.3,0.3,0.7,0.1,1.1c-0.2,0.6-0.5,0.8-0.9,0.9c-0.1,0-0.2,0.1-0.3,0.1c-0.4,0.2-0.5,0.4-0.5,0.4c0,0.1,0,0.3,0,0.5
					c0,0.2,0.1,0.5,0.1,0.8c0.1,1.4-0.8,2.2-1.5,2.9c-0.6,0.6-1.2,1.1-1.4,2c-0.1,0.3,0,0.4,0.1,0.5c0.2,0.1,0.6,0.2,1.3,0
					c0.6-0.2,1.3-0.4,1.6-0.6c0.7-0.4,0.9-1,1.2-1.7c0.3-0.7,0.6-1.6,1.6-2.2c0.2-0.1,0.4-0.2,0.6-0.3c0.3-0.1,0.5-0.2,0.7-0.3
					c0,0,0.1-0.2,0.2-0.3c0.1-0.2,0.2-0.5,0.4-0.7c0.7-0.5,1.5-0.3,2.2-0.1c0.3,0.1,0.5,0.2,0.8,0.2c0.1,0,0.3,0,0.5,0
					c0.7,0,1.4,0,1.9,0.4c0.4,0.4,0.5,0.9,0.2,1.4c-0.1,0.2-0.2,0.4-0.4,0.5c0.2,0,0.4,0,0.7-0.1c0.5-0.1,0.7-0.3,0.8-0.5
					c0.1-0.2-0.1-0.4-0.4-0.8c-0.3-0.3-0.6-0.7-0.7-1.1l-0.1-0.6c-0.6-0.1-1.7-0.3-2-1.1c-0.1-0.3-0.1-0.8,0.5-1.4
					c0.7-0.6,2-0.4,2.7-0.2c1,0.3,1.9,0.7,2.3,1.2c0.4,0.4,0.5,0.9,0.6,1.3c0.1,0.5,0.2,0.7,0.4,0.7c0.3,0.1,0.4,0.1,0.5,0.1
					c0.1-0.1,0.2-0.6,0.3-0.9c0-0.3,0.1-0.5,0.2-0.8c0.3-0.7,0.7-1,1.1-1.1c0.8-0.2,1.7,0.2,2.2,0.6c0.1,0.1,0.2,0.2,0.3,0.3
					c0.8,0.7,1,0.9,2.1,0.4c0.3-0.1,0.5-0.2,0.7-0.4c0.6-0.4,1.3-0.8,2.5-0.3c1,0.4,1.5,1.4,2,2.2c0.1,0.2,0.2,0.4,0.3,0.6
					c0.4,0.7,0.8,1,1.5,1.4c0.2,0.1,0.4,0.3,0.6,0.4c0.4,0.3,0.8,0.6,1.1,0.9c0.5,0.4,0.9,0.9,1.6,1.2c0.4,0.2,0.7,0.4,1.1,0.6
					c1.7,0.9,3.6,1.8,5.2,2.3c0.6,0.2,1.3-0.1,1.7-0.4c1.4-0.9,2.6-2.7,2.8-3.9c0.2-0.8-0.1-1.6-0.7-2.2c-0.8-0.7-1.9-1-2.9-0.7
					c-0.2,0.1-0.4,0.1-0.7,0.2c-0.9,0.3-1.7,0.6-2.8,0.1c-0.6-0.3-1.5-1-1.5-1.8c0-0.3,0.1-0.8,0.8-1.1c0.7-0.3,1.4-0.1,2.2,0.2
					c0.6,0.2,1.2,0.3,1.6,0.2c0.3-0.1,0.7-0.3,1.1-0.5c0.6-0.3,1.1-0.6,1.8-0.6c0.8,0,1.4,0.3,1.9,0.6c0.3,0.2,0.6,0.3,0.8,0.4
					c0.2,0.1,0.4,0.1,0.5,0.2c0.9,0.2,1.1,0.4,1.6,1.7c0.5,1.2,1,2.1,2.1,2.6C123.6,287.8,125,288.2,125.4,287.7L125.4,287.7z
					 M120.9,375.5c-1-0.4-3.2-1-8.6-1.6c-3.5-0.4-7.7-0.6-12.2-0.8c-2,0.3-4.3,0.5-6.8,0.5c-1.4,0-2.8-0.1-4.3-0.2
					c-1.5-0.1-2.9-0.2-4-0.4c-4.8,0.1-9.3,0.4-13.1,0.8c-5.3,0.6-7.6,1.2-8.6,1.6c1,0.4,3.2,1,8.6,1.6c5.6,0.6,12.7,0.9,20.2,0.9
					c7.5,0,14.7-0.3,20.2-0.9C117.6,376.5,119.9,375.9,120.9,375.5L120.9,375.5z M109.9,353l-0.8-4.1c-0.2,0.1-0.4,0.2-0.5,0.2
					c-5.3,2.3-11,3.4-16.9,3.4c-5.9,0-11.5-1.1-16.9-3.4c-5.2-2.2-9.8-5.3-13.8-9.3c-4-4-7.1-8.6-9.3-13.8c-2.3-5.4-3.4-11-3.4-16.9
					s1.1-11.5,3.4-16.9c2.2-5.2,5.3-9.8,9.3-13.8c3.4-3.4,7.2-6.1,11.4-8.2l-1.6-2.1c-0.7,0.3-1.8,0.9-3.3,1.8
					c-2.2,1.4-5.5,3.7-8.8,7.4c-5.9,6.4-12.9,18-13.1,37c0.1,0.6,0.7,5.2,3,11c2.3,5.7,6.7,13.7,14.9,19.8
					C74.9,353.6,90.5,356.2,109.9,353L109.9,353z M100.9,370.8l-1.3-14.5c-1.6,0.1-3.3,0.1-4.8,0.1c-2.8,0-5.4-0.1-8-0.4l-3.3,14.8
					c0.4,0.1,1,0.1,1.7,0.2c2.3-0.1,4.6-0.1,7-0.1c2.7,0,5.3,0,7.8,0.1C100.3,371,100.6,370.9,100.9,370.8L100.9,370.8z M86.7,284.3
					c0-0.1,0-0.2,0-0.2c0,0-0.1-0.1-0.4-0.1c-0.3,0-0.6,0-0.9,0.1c-0.1,0-0.1,0-0.2,0c0.2,0,0.3,0.1,0.5,0.2
					c0.2,0.1,0.8,0.2,0.9,0.2C86.7,284.4,86.7,284.4,86.7,284.3L86.7,284.3z M85.3,283c0.4-0.1,0.8-0.1,1.1-0.1
					c-0.3-0.1-0.7-0.3-1.1-0.4c-0.9-0.2-1.5-0.2-1.7,0c-0.1,0.1-0.2,0.2-0.2,0.2c0.1,0.1,0.7,0.4,1.2,0.4
					C84.8,283.1,85,283,85.3,283L85.3,283z M81.1,275.7c0.1-0.3,0.1-0.6,0-0.8c-0.1-0.2-0.4-0.2-0.6-0.3c0,0.2-0.1,0.5-0.1,0.7
					c0,0.5-0.1,1-0.3,1.5C80.5,276.5,80.9,276.1,81.1,275.7z"/>
				<path id="XMLID_00000145055322196427071420000006176237845257389184_" class="st1" d="M125.4,311.5c0.1,1.4,0.2,6.2-1.7,7.6
					c-0.3,0.2-0.5,0.3-0.8,0.3c-0.3,0-0.6-0.1-0.8-0.3c-1.6-1.2-2.6-6.2-1.8-9.1c0.2-0.6,0.4-1.1,0.8-1.5l-0.4-0.1
					c0.2-0.8,0.6-1.4,1.3-1.6c0.8-0.2,1.7,0,2.3,0.7c0.9,0.9,1,2.5,1,3.7C125.4,311.3,125.4,311.4,125.4,311.5L125.4,311.5z
					 M123.1,318.2c1.1-0.8,1.4-4,1.2-6.7c0-0.1,0-0.2,0-0.3c-0.1-1-0.1-2.4-0.7-3c-0.2-0.2-0.4-0.3-0.7-0.4l0,0.7
					c-0.8,0-1.3,0.6-1.6,1.7c-0.4,1.2-0.4,3,0,4.7c0.3,1.8,1,2.9,1.4,3.2C122.9,318.3,123,318.3,123.1,318.2L123.1,318.2z"/>
				<path id="XMLID_00000133509123584701813660000001990109395577217434_" class="st1" d="M112.3,374c5.3,0.6,7.6,1.2,8.6,1.6
					c-1,0.4-3.2,1-8.6,1.6c-5.6,0.6-12.7,0.9-20.2,0.9s-14.7-0.3-20.2-0.9c-5.3-0.6-7.6-1.2-8.6-1.6c1-0.4,3.2-1,8.6-1.6
					c3.7-0.4,8.2-0.7,13.1-0.8c1.1,0.1,2.5,0.3,4,0.4c1.5,0.1,3,0.2,4.3,0.2c2.5,0,4.8-0.2,6.8-0.5
					C104.6,373.3,108.8,373.6,112.3,374L112.3,374z"/>
				<path id="XMLID_00000109727319821865926330000009682403981887722895_" class="st1" d="M117.7,310.1c1.6,2,0.8,3.4,0,4.7
					c-0.3,0.5-0.6,1.1-0.8,1.7c-0.3,1.1-0.1,2.1,0.3,3.2c0.2,0.7,0.4,1.3,0.5,2.1c0.3,2.9,0,5.2-1,6.7c-0.7,1.1-1.7,2.2-2.6,2.9
					c-0.3,0.3-0.6,0.6-0.9,1c-0.4,0.5-0.8,0.9-1.3,1.3c-0.5,0.4-1,0.6-1.5,0.6c-1.1,0-1.8-0.9-2.4-1.8c-0.2-0.3-0.4-0.6-0.6-0.8
					c-0.4-0.5-0.9-0.9-1.4-1.3c-0.8-0.7-1.6-1.4-2.2-2.3c-0.2-0.2-0.3-0.5-0.4-0.7c-0.3-0.6-0.6-1-1.1-1.5c-0.2-0.2-0.6-0.4-0.9-0.7
					c-0.9-0.6-2-1.3-2.1-2.3c-0.1-0.4,0.1-0.8,0.3-1.1c0.1-0.1,0.2-0.3,0.2-0.4c0-0.2-0.1-0.6-0.1-0.9c0-0.1,0-0.2-0.1-0.2
					c-0.2-1-0.5-1.8-0.9-2.7c-0.4-1-0.4-1.1-1.3-1.3c-0.2,0-0.4,0-0.7-0.1c-0.9-0.1-2.1-0.1-2.5-0.9c-0.3-0.5-0.2-0.9-0.2-1.2
					c0-0.3,0.1-0.5-0.2-0.8c-0.5-0.5-1.4-1.2-2-1.4c-0.6-0.2-1.3-0.4-1.9-0.4c-1.4,0-2.7,0.6-4,2c-1.5,1.6-3.7,2.5-5.9,2.5
					c-0.4,0-0.7,0-1.1-0.1c-0.3,0-0.6-0.2-0.8-0.3c-0.2-0.1-0.4-0.2-0.6-0.2c0,0,0,0-0.1,0c-0.2,0-0.4,0.1-0.6,0.1
					c-0.3,0.1-0.6,0.1-0.9,0.1c-0.1,0-0.2,0-0.3,0c-0.7-0.1-1.2-0.5-1.7-1c-0.3-0.3-0.6-0.5-1-0.7c-0.2-0.1-0.5-0.2-0.7-0.3
					c-0.8-0.3-1.5-0.6-1.8-1.9c-0.2-0.9-0.3-1.4-0.8-2.3l-0.1-0.1c-0.7-1.1-0.8-1.5-0.2-2.9c0.4-0.8,0.4-1.1,0.4-2.1
					c0-1.5,0.3-2.8,0.5-4.1c0.1-0.6,0.3-1.2,0.4-1.8c0-0.2,0.1-0.5,0.1-0.8c0-0.6,0.1-1.3,0.3-1.9c0.3-0.6,0.8-1,1.3-1.3
					c0.2-0.2,0.4-0.3,0.6-0.5c0.5-0.5,0.9-1.2,1.3-2c0.3-0.5,0.5-1,0.9-1.5c0.3-0.3,0.6-0.6,0.8-0.9c1.4-1.3,3.9-2.2,5.9-2.2
					c0.3,0,0.7,0,1,0.1l0.1,0.1c0.3,0.3,0.9,0.5,1.4,0.5c0.2,0.1,0.5,0.3,0.7,0.4c0.7,0.4,1.3,0.8,1.9,0.8c0.1,0,0.2,0,0.4,0
					c0.6-0.1,1.1-0.5,1.6-0.9c0.5-0.3,0.9-0.7,1.5-0.9c0.2-0.1,0.5-0.2,0.7-0.3c1.6-0.7,3.3-1.3,5.1-1.4c0.1,0,0.2,0,0.3,0
					c2,0,3.2,1,4.4,2.1c0.3,0.3,0.7,0.6,1,0.8c1.1,0.8,2.2,1.4,3.4,2c1.4,0.7,2.8,1.4,4.1,2.5c0.9,0.7,1.5,1,2.2,1
					c0.6,0,1.4-0.3,2.4-0.7c0.1,0,0.2-0.1,0.3-0.1c0.5-0.2,0.9-0.4,1.4-0.4c0.5,0,1.1,0.2,1.3,1.3c0.3,1.2,0,2.6-0.3,3.8
					c-0.2,0.9-0.6,1.7-0.9,2.5c-0.6,1.4-1.1,2.7-1.1,4.2c0,1.5,1.2,2.8,2.2,4.1C117.1,309.4,117.4,309.8,117.7,310.1L117.7,310.1z
					 M116.8,314.3c0.7-1.3,1.2-2.1,0-3.5c-0.3-0.3-0.5-0.6-0.8-1c-1.1-1.3-2.5-2.8-2.5-4.7c0-1.8,0.6-3.2,1.2-4.6
					c0.3-0.8,0.6-1.5,0.9-2.4c0.3-1,0.6-2.3,0.3-3.3c-0.1-0.4-0.2-0.4-0.3-0.4c-0.2,0-0.6,0.1-1,0.3c-0.1,0-0.2,0.1-0.3,0.1
					c-1.2,0.5-2,0.8-2.8,0.8c-0.9,0-1.8-0.4-2.9-1.3c-1.2-1-2.5-1.7-3.9-2.4c-1.2-0.6-2.5-1.2-3.6-2.1c-0.4-0.3-0.7-0.6-1-0.8
					c-1.2-1-2.2-1.8-3.8-1.8c-0.1,0-0.1,0-0.2,0c-1.6,0.1-3.2,0.7-4.7,1.3c-0.2,0.1-0.5,0.2-0.7,0.3c-0.4,0.2-0.8,0.5-1.2,0.8
					c-0.6,0.4-1.2,0.9-2,1.1c-0.2,0-0.4,0.1-0.6,0.1c-1,0-1.8-0.5-2.5-1c-0.4-0.2-0.7-0.5-1.1-0.6c-0.4-0.2-0.9-0.3-1.5-0.3
					c-1.9,0-4.2,1-5.4,2.2c-0.5,0.5-0.8,1.2-1.2,1.9c-0.4,0.8-0.8,1.6-1.5,2.2c-0.2,0.2-0.5,0.4-0.7,0.6c-0.4,0.3-0.7,0.5-0.9,0.9
					c-0.2,0.4-0.2,1-0.3,1.5c0,0.3,0,0.6-0.1,0.9c-0.1,0.6-0.2,1.3-0.4,1.9c-0.3,1.3-0.5,2.5-0.5,3.9c0,1.1-0.1,1.6-0.5,2.5
					c-0.2,0.5-0.3,0.8-0.3,1c0,0.2,0.2,0.5,0.4,0.9l0.1,0.1c0.6,1,0.8,1.7,0.9,2.6c0.1,0.8,0.3,0.9,1.1,1.1c0.2,0.1,0.5,0.2,0.7,0.3
					c0.5,0.2,0.9,0.5,1.2,0.8c0.4,0.3,0.8,0.6,1.2,0.7c0,0,0.1,0,0.1,0c0.2,0,0.4-0.1,0.6-0.1c0.3-0.1,0.5-0.1,0.8-0.1
					c0.1,0,0.1,0,0.2,0c0.3,0,0.6,0.2,0.9,0.3c0.2,0.1,0.4,0.2,0.5,0.2c0.3,0,0.6,0.1,0.9,0.1c1.9,0,3.8-0.8,5.1-2.2
					c1.5-1.6,3.1-2.3,4.8-2.3c0.7,0,1.5,0.1,2.2,0.4c0.8,0.3,1.8,1.1,2.4,1.7c0.6,0.6,0.6,1.3,0.5,1.7c0,0.3,0,0.4,0,0.5
					c0.2,0.3,1.2,0.3,1.7,0.4c0.3,0,0.6,0,0.9,0.1c1.4,0.3,1.6,0.8,2.1,1.9c0.4,0.9,0.7,1.8,0.9,2.9c0,0.1,0,0.1,0,0.2
					c0.1,0.5,0.2,0.9,0.2,1.3c0,0.3-0.2,0.5-0.3,0.7c-0.1,0.2-0.2,0.3-0.2,0.4c0.1,0.5,0.9,1.1,1.7,1.6c0.4,0.3,0.8,0.5,1.1,0.8
					c0.6,0.5,0.9,1.1,1.2,1.7c0.1,0.2,0.3,0.4,0.4,0.7c0.5,0.8,1.2,1.4,2,2.1c0.5,0.4,1,0.9,1.5,1.4c0.2,0.3,0.5,0.6,0.7,0.9
					c0.5,0.7,1,1.3,1.5,1.3c0.3,0,0.6-0.1,0.9-0.4c0.4-0.3,0.7-0.7,1.1-1.1c0.3-0.4,0.7-0.8,1.1-1.1c0.8-0.7,1.7-1.7,2.4-2.7
					c0.9-1.3,1.1-3.3,0.9-6c-0.1-0.7-0.3-1.3-0.4-1.9c-0.3-1.2-0.7-2.4-0.3-3.8C116.1,315.5,116.5,314.8,116.8,314.3L116.8,314.3z"
					/>
				<path id="XMLID_00000018204853619209515580000009061846673100939666_" class="st1" d="M104.6,277c0.5,0.3,0.8,0.8,0.7,1.3
					c-0.1,0.7-0.5,1.2-1.2,1.2c-0.4,0-0.8-0.1-1.1-0.2c-0.1,0-0.1,0-0.1,0l0,0c-0.8-0.3-1.6-0.5-2.3-1.2c-0.1-0.1-0.3-0.3-0.4-0.4
					c-0.3-0.4-0.5-0.6-1.1-0.8c-0.1,0-0.3-0.1-0.4-0.1c-0.6-0.2-1.3-0.4-1.6-1c-0.2-0.4-0.1-0.8,0.2-1.4c0.4-0.8,1-0.9,1.4-0.9
					c1,0,2,1,2.9,1.9c0.6,0.5,1.2,1.2,1.5,1.2c0.1,0,0.2,0,0.3,0.1C103.8,276.7,104.3,276.8,104.6,277L104.6,277z M104.3,278.2
					c0-0.2-0.1-0.4-1-0.5c-0.1,0-0.2-0.1-0.4-0.1c-0.6-0.2-1.3-0.8-2-1.5c-0.7-0.7-1.6-1.6-2.2-1.6c-0.1,0-0.2,0-0.5,0.4
					c-0.1,0.3-0.2,0.4-0.1,0.4c0.1,0.1,0.6,0.3,0.9,0.4c0.1,0,0.3,0.1,0.4,0.1c0.9,0.3,1.2,0.6,1.6,1.1c0.1,0.1,0.2,0.2,0.3,0.4
					c0.5,0.5,1.1,0.7,1.9,0.9l0,0c0,0,0.1,0,0.2,0.1c0.2,0.1,0.5,0.2,0.7,0.2c0,0,0.1,0,0.1,0C104.2,278.4,104.2,278.3,104.3,278.2
					L104.3,278.2z"/>
				<path id="XMLID_00000171698031239523811790000013473080714670820753_" class="st1" d="M99.6,356.3l1.3,14.5
					c-0.3,0.1-0.7,0.1-1,0.2c-2.5-0.1-5.2-0.1-7.8-0.1c-2.4,0-4.8,0-7,0.1c-0.7-0.1-1.2-0.2-1.7-0.2l3.3-14.8c2.6,0.3,5.3,0.4,8,0.4
					C96.3,356.5,98,356.4,99.6,356.3L99.6,356.3z"/>
				<path id="XMLID_00000031192283467416573960000013587101417372971681_" class="st1" d="M97.9,277.2c0.2,0.3,0.3,0.7,0.2,1.1
					c-0.2,0.7-0.6,1.1-1.3,1.1c-0.2,0-0.4,0-0.6-0.1c-0.2,0-0.4-0.1-0.5-0.1c0,0-0.1,0-0.1,0c-0.4,0-0.5,0.1-0.7,0.4
					c-0.2,0.2-0.4,0.4-0.7,0.6c-0.5,0.3-1,0.4-1.6,0.4c-0.7,0-1.4-0.2-1.9-0.5c-0.4-0.2-1.2-0.7-1.3-1.4c0-0.3,0-0.6,0.4-1.1
					c0.3-0.3,0.7-0.5,1.1-0.5c0.3,0,0.6,0.1,0.9,0.1c0.2,0.1,0.5,0.1,0.7,0.1c0.2,0,0.3,0,0.4-0.1c0.1-0.1,0.1-0.1,0.2-0.3
					c0.1-0.3,0.3-0.7,1.1-0.8c0.1,0,0.2,0,0.3,0c0.4,0,0.7,0.1,1.1,0.2c0.2,0.1,0.4,0.1,0.6,0.1c0.1,0,0.2,0,0.3,0
					C96.8,276.7,97.5,276.7,97.9,277.2L97.9,277.2z M97.1,278.1c0-0.2,0-0.2,0-0.2c-0.1-0.1-0.6-0.1-0.8-0.1c-0.1,0-0.2,0-0.3,0
					c-0.2,0-0.5-0.1-0.7-0.1c-0.3-0.1-0.6-0.1-0.8-0.1c0,0-0.1,0-0.1,0c-0.2,0-0.2,0.1-0.2,0.1c0,0,0,0.1,0,0.1
					c-0.1,0.2-0.2,0.4-0.5,0.7c-0.3,0.3-0.7,0.4-1.1,0.4c-0.3,0-0.7-0.1-0.9-0.1c-0.2-0.1-0.5-0.1-0.6-0.1c-0.2,0-0.3,0-0.3,0.1
					c-0.1,0.1-0.1,0.1-0.1,0.2c0,0.1,0.1,0.2,0.8,0.6c0.4,0.2,0.9,0.3,1.4,0.3c0.4,0,0.8-0.1,1.1-0.3c0.2-0.1,0.3-0.3,0.5-0.4
					c0.2-0.3,0.6-0.6,1.4-0.7c0.1,0,0.1,0,0.2,0c0.2,0,0.5,0,0.7,0.1c0.2,0,0.3,0.1,0.5,0.1C97,278.4,97,278.4,97.1,278.1z"/>
				<path id="XMLID_00000053531129534513796870000008789479492724280507_" class="st1" d="M83.7,287.9c0.2,0.1,0.4,0.2,0.6,0.3
					c-0.6,0-1.1-0.1-1.4-0.5l-0.1-0.1C83.1,287.7,83.4,287.8,83.7,287.9z"/>
				<path id="XMLID_00000152970607239368881160000014735301250244436106_" class="st1" d="M75.9,289.8c-0.2,0.3-0.4,0.6-0.8,0.9
					c0.2-0.2,0.3-0.4,0.5-0.6C75.7,290,75.8,289.9,75.9,289.8z"/>
				<path id="XMLID_00000116940487045993752580000016025482457157300148_" class="st1" d="M70.6,345l-1.1,0c0-0.6-0.2-1-0.4-1.3
					c0.5,0.3,1,0.6,1.5,0.9C70.6,344.8,70.6,344.9,70.6,345L70.6,345z"/>
				<path id="XMLID_00000044155502387001033420000005469023140541895600_" class="st1" d="M69.6,342.5c0.4,0.5,0.9,1.1,1.1,2.1
					c-0.5-0.3-1-0.6-1.5-0.9c-0.1-0.2-0.3-0.3-0.4-0.5c-0.3-0.4-0.6-0.8-0.9-1.3c-0.7-1.5-0.1-2.1,0.4-2.6c0.3-0.3,0.5-0.5,0.4-1
					c-0.1-0.4-0.4-0.7-0.8-1.1c-0.6-0.5-1.3-1.2-1.4-2.4c-0.1-0.4,0-0.8,0-1.1c0.1-0.4,0.1-0.7,0-1.1c-0.1-0.3-0.3-0.5-0.5-0.8
					c-0.3-0.3-0.6-0.7-0.7-1.2c-0.2-0.4-0.2-0.8-0.3-1.2c-0.2-1-0.2-1.3-1.6-1.5c-0.4,0-0.9,0.1-1.3,0.3c-0.8,0.3-2,0.7-2.9-0.5
					c-0.6-0.7-0.6-1.4-0.6-1.9c0-0.3,0-0.5-0.1-0.6c-0.1-0.1-0.3-0.2-1.1-0.3c-0.3,0-0.7,0-1.1,0.1c-0.5,0.1-0.9,0.2-1.4,0.1
					c-0.5,0-0.8-0.2-1.1-0.3c-0.2-0.4-0.3-0.9-0.5-1.3c0.3,0,0.6,0.2,0.9,0.3c0.3,0.1,0.5,0.2,0.9,0.3c0.3,0,0.7,0,1.1-0.1
					c0.5-0.1,1-0.2,1.5-0.1c0.9,0.1,1.4,0.3,1.8,0.7c0.3,0.4,0.3,0.8,0.4,1.2c0,0.4,0,0.8,0.4,1.3c0.4,0.5,0.8,0.4,1.7,0.1
					c0.5-0.2,1.1-0.4,1.8-0.3c2.2,0.2,2.4,1.3,2.6,2.3c0.1,0.3,0.1,0.7,0.3,1c0.1,0.3,0.3,0.6,0.6,0.8c0.3,0.3,0.6,0.7,0.7,1.1
					c0.2,0.7,0.1,1.2,0.1,1.6c0,0.3-0.1,0.6,0,0.9c0.1,0.8,0.6,1.3,1.1,1.7c0.5,0.4,0.9,0.9,1.1,1.6c0.3,1.1-0.2,1.6-0.6,2
					c-0.4,0.4-0.6,0.6-0.2,1.4C69,341.9,69.3,342.2,69.6,342.5L69.6,342.5z"/>
				<path id="XMLID_00000138575228210725948470000009010406846622344067_" class="st1" d="M53.5,324.9
					C53.5,324.9,53.5,324.9,53.5,324.9c-0.5-0.2-0.7-0.3-1.1-0.2l-0.3-1c0.3-0.1,0.6-0.1,0.9-0.1C53.2,324.1,53.3,324.5,53.5,324.9
					L53.5,324.9z"/>
			</g>
		</g>
		<g id="XMLID_890_">
			<g>
				<g id="XMLID_00000021080061761933061440000001982409104561978790_">
					<path id="XMLID_00000010991914478007181490000005995635337709025699_" class="st1" d="M192.7,358.7c0,0.2,0,0.6,0,1
						c0,0.5,0,0.8,0,1.1c0,0.4,0,0.9,0,1.5c0,0.7,0,1.3,0,1.8c0,0.5,0,1.1,0,1.5c0,0.1,0,0.2-0.1,0.2c0,0.1-0.1,0.1-0.2,0.1
						c-0.1,0-0.1,0-0.2-0.1c0-0.1-0.1-0.1-0.1-0.2c0-0.5,0-1,0-1.5c0-0.5,0-1.1,0-1.8c0-0.7,0-1.2,0-1.5c0-0.2,0-0.6,0-1
						c0-0.6-0.1-0.9-0.1-1.1c0-0.1,0-0.2,0.1-0.2c0-0.1,0.1-0.1,0.2-0.1c0.1,0,0.1,0,0.2,0.1S192.7,358.7,192.7,358.7L192.7,358.7z"
						/>
					<path id="XMLID_00000020373825677693919280000000854641656540656315_" class="st1" d="M196.3,358.3c0.8,1.8,1.7,3.7,2.8,5.8
						c0.1,0.2,0.3,0.5,0.5,1.1l0.1,0.3c0,0,0-0.1,0-0.1c0,0,0-0.4,0-1c0-0.2,0-1,0.1-2.5c0.1-1.5,0.1-2.7,0.1-3.4
						c0-0.1,0-0.2,0.1-0.2c0-0.1,0.1-0.1,0.2-0.1c0.1,0,0.1,0,0.2,0.1c0,0.1,0.1,0.1,0.1,0.2c0,0.6,0,1.2,0,1.9
						c0,0.7-0.1,1.4-0.1,2.2c0,0.8-0.1,1.4-0.1,1.9c0,0.7,0,1,0,1c0,0.3,0,0.5-0.1,0.6c0,0.1,0,0.2-0.1,0.3
						c-0.1,0.2-0.2,0.2-0.3,0.2c0,0-0.1,0-0.1,0l0,0l0,0l0,0l0,0l0-0.1l-0.1-0.2l-0.3-0.5c-0.3-0.6-0.5-1-0.5-1.1
						c-0.9-1.7-1.8-3.5-2.5-5.1c-0.1,2.2-0.1,4.4,0,6.7c0,0.1,0,0.2-0.1,0.2c0,0.1-0.1,0.1-0.2,0.1c-0.1,0-0.1,0-0.2-0.1
						c0-0.1-0.1-0.1-0.1-0.2c-0.1-2.6-0.1-5.1,0-7.5c0-0.1,0-0.2,0.1-0.2c0,0,0-0.1,0.1-0.1c0,0,0.1-0.1,0.2,0
						C196.2,358.2,196.3,358.3,196.3,358.3L196.3,358.3z"/>
					<path id="XMLID_00000010285927651200034520000015662597896026790052_" class="st1" d="M204.1,358.6c-0.1,1-0.1,2.2-0.1,3.6v0.4
						c0.1-0.1,0.2-0.3,0.3-0.4l0.4-0.5l0.3-0.4l1.8-2.3c0-0.1,0.1-0.1,0.2-0.1c0.1,0,0.1,0,0.2,0.1c0,0.1,0.1,0.1,0.1,0.2
						c0,0.1,0,0.2-0.1,0.2l-1.9,2.4l-0.2,0.2c0.1,0.2,0.4,0.8,0.9,1.7c0.5,0.9,0.9,1.7,1.2,2.1c0,0.1,0.1,0.1,0.1,0.2
						c0,0.1,0,0.2-0.1,0.2c0,0.1-0.1,0.1-0.2,0.1c-0.1,0-0.1,0-0.2-0.1c-0.3-0.4-0.5-0.8-0.7-1.2l-0.8-1.5c-0.3-0.5-0.5-0.9-0.7-1.2
						c-0.3,0.4-0.6,0.8-0.8,1.1c0,1,0,1.8,0,2.3c0,0.1,0,0.2-0.1,0.2c0,0.1-0.1,0.1-0.2,0.1c-0.1,0-0.1,0-0.2-0.1
						c0-0.1-0.1-0.1-0.1-0.2c0-0.5,0-1.2,0-2c0-0.9,0-1.4,0-1.6c0-1.4,0-2.6,0.1-3.6c0-0.1,0-0.2,0.1-0.2c0-0.1,0.1-0.1,0.2-0.1
						c0.1,0,0.1,0,0.2,0.1C204.1,358.4,204.1,358.5,204.1,358.6L204.1,358.6z"/>
				</g>
				<path id="XMLID_00000045585421265819200790000014589574081112123297_" class="st1" d="M217.2,367l-0.6-16.2
					c0.4-0.6,1.3-2.1,0.8-3.8c-0.4-1.5-1.6-2.8-3.7-3.7l-3.2-3.7c-0.1-2-0.1-2.9-0.1-3.2c0.6-0.1,1.2-0.2,1.7-0.3l0.7-0.1l-0.5-11.2
					l-0.4-0.2c-0.2-0.1-4.8-2.1-11.6-2.1c-4,0-7.9,0.7-11.6,2.1l-0.4,0.2l-1.6,11.3l0.7,0.2c0.1,0,0.9,0.2,2.4,0.4v2.9l-2.6,3.7
					c-0.9,0.3-3.4,1.2-4.3,3.3c-0.6,1.4-0.3,3,0.8,4.7l0.3,17c-0.5,0.7-1.7,2.7-0.5,5.4l0.1,0.2l0.2,0.1c0.2,0.2,4.9,3.7,14.6,3.7h0
					c5.6,0,11.8-1.2,18.4-3.6l0.4-0.1l0.1-0.4C217.5,372.1,218.2,368.5,217.2,367L217.2,367z M188.5,334.5l1.2-8.8
					c3.4-1.2,7-1.8,10.6-1.8c5.3,0,9.2,1.3,10.5,1.8l0.4,8.9c-0.9,0.2-1.8,0.3-2.7,0.4l0.3-6.4l-0.7,0l-0.4,6.5
					c-0.6,0.1-1.1,0.1-1.7,0.2c-0.3,0-0.6,0-1,0l0.4-6.6l-0.7,0l-0.4,6.7c-0.6,0-1.3,0-2,0l0.4-6.6l-0.7,0l-0.4,6.7
					c-0.7,0-1.4,0-2.1,0l0.4-6.6l-0.7,0l-0.4,6.7c-0.6,0-1.2,0-1.8,0l0.4-6.6l-0.7,0l-0.4,6.7l0,0c-0.7,0-1.5,0-2.1,0l0.6-6.7
					l-0.7-0.1l-0.6,6.7l0.4,0c-1-0.1-2-0.2-2.8-0.3l0.6-6.4l-0.7-0.1l-0.6,6.3C189.6,334.7,188.9,334.6,188.5,334.5L188.5,334.5z
					 M187.9,344.4l0.3-0.1l3.2-4.5v-3c0.6,0,1.4,0,2.4,0c1.7,0.1,3.7,0.2,6,0.2h0c2.2,0,4.3-0.1,6.4-0.3c1.4,0,2.2,0,2.7,0
					c0,0.8,0.1,2.1,0.1,3l0,0.3l3.8,4.4l0.2,0.1c0.9,0.4,1.6,0.8,2.1,1.3c-0.6,0-1.2-0.1-1.7-0.1c-1.2-0.1-2.4-0.2-3.6,0
					c-1.6,0.2-3-0.1-4.4-0.4c-0.9-0.2-1.9-0.5-3-0.5c-2.1-0.1-4-0.1-5.9,0.1c-0.9,0.1-1.8,0.3-2.7,0.5c-0.6,0.1-1.3,0.3-1.9,0.4
					c-1.3,0.2-2.4,0.3-3.7-0.2c-0.1,0-0.1-0.1-0.2-0.1c-0.4-0.2-1-0.4-1.5-0.5C187.2,344.6,187.8,344.4,187.9,344.4L187.9,344.4z
					 M195.8,368.9c-4.8-0.3-8.7-1-10.1-1.3l-0.3-14.1c1.6,0.3,4.9,0.9,9.2,1.2c1.9,0.1,4.1,0.3,6.5,0.3c4.3,0,9.3-0.3,14.1-1.4
					l0.5,13C209.1,369.1,201.3,369.2,195.8,368.9L195.8,368.9z"/>
			</g>
		</g>
		<g id="XMLID_889_">
			<g>
				<path id="XMLID_00000015327904999274309350000017336557461028152710_" class="st1" d="M379,374.2c0,0-0.1-1.5-0.2-4l0.5,0.3
					l-0.1-1.9c0-0.4-1.9-44.8-2.8-62.9c-0.3-5.2-3.7-9.5-9.9-12.5c-6.2-3-15.1-4.6-24.3-4.4c-8.5,0.2-16,1.9-20.3,4.7
					c-3.9-2.7-11.2-4.3-19.7-4.3c-9.1,0-18.1,1.8-24.5,5c-7,3.4-10.7,8.1-10.6,13.7c0,1,0,2.1,0,3.3c-0.1,0.8-0.2,1.5-0.2,2.3
					c0,18.2,0.5,62.6,0.5,63l0,1.8l1.5-1.1c0,0,0.6-0.4,1.6-1.1c2.8-0.7,42.9-11.3,53.1-11.5l0.1,0l0.1,0c10.2,1,50.9,9.8,54,10.5
					l1.4,1L379,374.2L379,374.2z M324.6,358.7c0-1.2,0.1-2.4,0.1-3.6c3.3-0.6,6.8-0.8,10.4-0.7c19.8,0.7,37.5,11.7,41.8,14.5
					c0.1,1.4,0.1,2.6,0.2,3.5c-2.1-1.3-6.2-3.8-11.6-6.3c-7.3-3.4-18.5-7.6-30.5-8C331.4,357.9,327.9,358.1,324.6,358.7L324.6,358.7
					z M324.7,360.6c3.3-0.5,6.7-0.8,10.2-0.6c11.6,0.4,22.6,4.5,29.7,7.8c3.4,1.6,6.2,3.1,8.4,4.4c-11.6-2.5-38.8-8.3-48.3-9.4
					C324.8,362.1,324.7,361.3,324.7,360.6L324.7,360.6z M342.2,290.6c9-0.2,17.5,1.3,23.5,4.2c5.6,2.7,8.6,6.4,8.8,10.9
					c0.8,16,2.3,52.4,2.7,61.1c-5.4-3.5-22.7-13.7-42.1-14.4c-3.6-0.1-7,0.1-10.3,0.6c0.3-9.8,0.4-18.8,0.2-27.2
					c-0.1-9.9-0.5-17.1-1.3-22.7c-0.2-1.7-0.6-6.2-0.8-8.2C326.8,292.5,333.9,290.8,342.2,290.6L342.2,290.6z M268.9,311.2
					c0-1.2,0-2.3,0-3.3c0-6.1,5.2-9.9,9.6-12c6.2-3,14.8-4.7,23.7-4.8c8,0,14.8,1.4,18.4,3.8l0.4,0.5c0.2,2,0.6,6.1,0.8,7.9l0,0
					c0.8,5.5,1.2,12.8,1.4,22.7c0.1,5.7,0,12.3-0.1,21.9c0,0.4,0,0.9,0,1.3c0,1.3,0,2.7-0.1,4l0,0l0,0c-1.2-0.1-2.5-0.2-3.8-0.3
					c-13.4-0.5-26.6,4.2-35.4,8.2c-6.8,3.1-12,6.4-14.4,7.9C269.3,361.2,269,328.5,268.9,311.2L268.9,311.2z M269.1,371.5
					c1-0.7,6.9-4.7,15.4-8.7c8.5-3.9,21.5-8.5,34.5-8.1c1.3,0,2.5,0.1,3.7,0.3c0,1.2,0,2.4-0.1,3.7c-1.3-0.1-2.5-0.2-3.8-0.3
					c-13.4-0.5-26.6,4.2-35.4,8.2c-6.8,3.1-12,6.4-14.4,7.9C269.1,373.9,269.1,372.8,269.1,371.5L269.1,371.5z M284.3,368.4
					c8.5-3.9,21.5-8.5,34.5-8.1c1.3,0,2.6,0.1,3.8,0.3l0,0.3l0,0c-0.1,0.6-0.1,1.2-0.1,1.8c-9.2,0.6-34.6,6.9-46.6,10
					C278.3,371.4,281.1,369.9,284.3,368.4L284.3,368.4z"/>
				<path id="XMLID_00000009575436932021231180000013635072728334657954_" class="st1" d="M274.9,306.5l0.2,50.6c0,0,8.9-5.8,18.4-7
					c-0.8-12.7-1-48.5-1-48.5L274.9,306.5L274.9,306.5z"/>
				<path id="XMLID_00000083052793890647309660000010541394858444133261_" class="st1" d="M294.9,305.7c0.1-0.9,0.9-1.9,1.8-2.1
					c1.3-0.4,1.4,0.7,2.5,0.9c2,0.3,2.7-2.2,5-1.3c1,0.4,0.9,1,2.1,0.9c1-0.1,1.5-1.4,2.4-1.6c1.9-0.4,2.4,1.5,4.5-0.3
					c0.9,1.5,2.9,1.2,3.7-0.2"/>
				<path id="XMLID_00000028302768978960687080000000205534134336644259_" class="st1" d="M295.3,311.7c0.4-1,1.3-2.1,2.5-2.3
					c1.3-0.2,1.9,1.1,3.1,1c1.1-0.1,1.5-1.5,2.6-1.6c1.2-0.2,1.9,1,3,1c1.1-0.1,1.8-1.3,2.9-1.2c0.5,0,0.8,0.9,1.3,0.9
					c0.8,0,1-0.7,1.7-0.9c1.4-0.5,0.9-0.1,2.5,0.1c1.1,0.2,2.1-0.2,2.9-1.1"/>
				<path id="XMLID_00000113349281953823335240000003582849319982179766_" class="st1" d="M295.9,317.4c-0.4-2.8,4.2,0,5.2-0.2
					c1-0.2,1.6-1.6,2.5-1.8c1.3-0.3,1.8,0.8,3,1c1.6,0.2,2.3-0.9,3.6-1.4c1.6-0.5,1.8,0.3,3.2,0.4c1.5,0.1,1.8-1.3,2.9-1.4
					c1-0.1,1.7,1.5,2.8,0.3"/>
				<path id="XMLID_00000074437408346111674990000000816503044263930758_" class="st1" d="M296.5,324.4c0.1-0.9,0.9-1.9,1.8-2.1
					c1.3-0.4,1.4,0.7,2.5,0.9c2,0.3,2.7-2.2,5-1.3c1,0.4,0.9,1,2.1,0.9c1-0.1,1.5-1.4,2.4-1.6c1.9-0.4,2.4,1.5,4.5-0.3
					c0.9,1.5,2.9,1.2,3.7-0.2"/>
				<path id="XMLID_00000145757865954171322250000009491436065326274742_" class="st1" d="M296.9,330.3c0.4-1,1.3-2.1,2.5-2.3
					c1.3-0.2,1.9,1.1,3.1,1c1.1-0.1,1.5-1.5,2.6-1.6c1.2-0.2,1.9,1,3,1c1.1-0.1,1.8-1.3,2.9-1.2c0.5,0,0.8,0.9,1.3,0.9
					c0.8,0,1-0.7,1.7-0.9c1.4-0.5,0.9-0.1,2.5,0.1c1.1,0.2,2.1-0.2,2.9-1.1"/>
				<path id="XMLID_00000041995958041382501630000016909107040376055198_" class="st1" d="M297.5,336.1c-0.4-2.8,4.2,0,5.2-0.2
					c1-0.2,1.6-1.6,2.5-1.8c1.3-0.3,1.8,0.8,3,1c1.6,0.2,2.3-0.9,3.6-1.4c1.6-0.5,1.8,0.3,3.2,0.4c1.5,0.1,1.8-1.3,2.9-1.4
					c1-0.1,1.7,1.5,2.8,0.3"/>
				<path id="XMLID_00000179636679377707204680000001250075782010756799_" class="st1" d="M330.9,302.3c0.3-0.9,1.4-1.7,2.6-1.9
					c1.8-0.2,1.8,0.9,3.2,1.2c2.6,0.5,3.8-1.8,6.8-0.7c1.2,0.5,1.1,1.1,2.7,1.1c1.4,0,2.1-1.2,3.4-1.3c2.6-0.1,8,5.7,11,4.2
					c1,1.6,3.7,1.5,5,0.3"/>
				<path id="XMLID_00000164488006629790387540000009631697979786754982_" class="st1" d="M330.8,308.2c0.6-0.9,2-1.9,3.6-2
					c1.7,0,2.4,1.4,4,1.4c1.5,0.1,2.2-1.3,3.6-1.3c1.6-0.1,2.4,1.3,3.9,1.4c1.5,0.1,2.6-1.1,4.1-0.9c0.6,0.1,0.9,1,1.7,1.1
					c1,0.1,6.5,3.3,7.4,3.2c1.9-0.3,1.2,0,3.3,0.4c1.5,0.3,2.9,0.1,4-0.7"/>
				<path id="XMLID_00000088110638030988953980000007140792135166811821_" class="st1" d="M330.9,314c-0.2-2.8,5.7,0.6,7,0.5
					c1.4-0.1,2.3-1.4,3.6-1.5c1.7-0.2,2.4,1.1,3.9,1.4c2,0.4,3.2-0.6,5-0.9c2.2-0.3,7.4,4.4,9.3,4.7c2,0.3,2.5-1.1,4.1-1.1
					c1.4,0,2.2,1.7,3.7,0.6"/>
				<path id="XMLID_00000150082177109794499790000003204134083216505501_" class="st1" d="M330.8,321c0.3-0.9,1.4-1.7,2.6-1.9
					c1.8-0.2,1.8,0.9,3.2,1.2c2.6,0.5,3.8-1.8,6.8-0.7c1.2,0.5,1.1,1.1,2.7,1.1c1.4,0,2.1-1.2,3.4-1.3c2.6-0.1,8,5.7,11,4.2
					c1,1.6,3.7,1.5,5,0.3"/>
				<path id="XMLID_00000086690167774777479040000003186016424846293408_" class="st1" d="M330.7,327c0.6-0.9,2-1.9,3.6-2
					c1.7,0,2.4,1.4,4,1.4c1.5,0.1,2.2-1.3,3.6-1.3c1.6-0.1,2.4,1.3,3.9,1.4c1.5,0.1,2.6-1.1,4.1-0.9c0.6,0.1,0.9,1,1.7,1.1
					c1,0.1,6.5,3.3,7.4,3.2c1.9-0.3,1.2,0,3.3,0.4c1.5,0.3,2.9,0.1,4-0.7"/>
				<path id="XMLID_00000165220238950294546130000012549384191553326982_" class="st1" d="M330.8,332.8c-0.2-2.8,5.7,0.5,7,0.5
					c1.4-0.1,2.3-1.4,3.6-1.5c1.7-0.2,2.4,1.1,3.9,1.4c2,0.4,3.2-0.6,5-0.9c2.2-0.3,7.4,4.4,9.3,4.7c2,0.3,2.5-1.1,4.1-1.1
					c1.4,0,2.2,1.7,3.7,0.6"/>
				<path id="XMLID_00000130641646947007529330000006986726712024425101_" class="st1" d="M330.5,339.5c-0.2-2.8,5.7,0.6,7,0.5
					c1.4-0.1,2.3-1.4,3.6-1.5c1.7-0.2,2.4,1.1,3.9,1.4c2,0.4,3.2-0.6,5-0.9c2.2-0.3,7.4,4.4,9.3,4.7c2,0.3,2.5-1.1,4.1-1.1
					c1.4,0,2.2,1.7,3.7,0.6"/>
			</g>
		</g>
	</g>
	<g id="XMLID_916_">
		<g>
			<g id="XMLID_00000170966898024733249060000002135561691149213587_">
				<path class="st1" d="M331.3,204.1l-7.8-39.7l-95.3,50.2l-93.5-50.2l-7.8,42.9c0-0.1-0.6,3.2-0.6,4.9
					c0,15.2,63.1,49.2,100.7,49.2c42.7,0,105.8-34,105.8-49.2C332.9,210.4,332.3,208.9,331.3,204.1z"/>
			</g>
			<g id="XMLID_00000009573763945299990200000014391715119584434060_">
				<polygon class="st1" points="229,208.1 82.5,129.7 229.4,88.3 375.9,129.1 				"/>
			</g>
			<polygon id="XMLID_00000096754912751478441220000017544751488367363765_" class="st2" points="83.6,134.2 74.8,213.6 83.2,228.7 
				91.7,213.6 			"/>
		</g>
	</g>
</g>
<g>
	<g>
		<g>
			<path class="st1" d="M652.3,243.6H627l-45.8-83.7H581l0.4,83.7h-22V123.3h25.4l45.8,83.7h0.2l-0.5-83.7h22V243.6z"/>
			<path class="st1" d="M754.9,243.6h-20.7l-1.3-11.4h-0.2c-6,9.3-14.7,13.9-26,13.9c-22.6,0-33.9-15.8-33.9-47.4
				c0-14.5,2.9-26.2,8.6-34.8c5.7-8.7,14.6-13,26.6-13c11.9,0,20.1,4.6,24.7,13.7h0.2l1.1-11.2h20.9V243.6z M731.8,206.1v-14.4
				c0-6.4-1.7-11.6-5.1-15.7c-3.4-4.1-7.4-6.1-12.1-6.1c-6.1,0-10.6,2.1-13.5,6.4c-2.9,4.3-4.3,9.9-4.3,16.9v11.4
				c0,7.2,1.5,12.8,4.6,16.8c3.1,4,7.2,6,12.5,6c5.3,0,9.6-2,12.9-6.1C730.2,216.9,731.8,212,731.8,206.1z"/>
			<path class="st1" d="M825.8,242.1c-6.3,2.6-13.3,4-21.1,4c-16.7,0-25-8.6-24.7-25.8l0.2-48.2h-19.3v-18.8h19.3l0.2-22.5l23.3-2.7
				l-0.2,25.3h22.4v18.8h-22.4l-0.2,44.2c0,4,0.8,6.8,2.3,8.6c1.6,1.7,4.1,2.6,7.6,2.6c1.6,0,3.3-0.2,5.2-0.6
				c1.9-0.4,3.4-0.8,4.5-1.2l1.8-0.5L825.8,242.1z"/>
			<path class="st1" d="M917.8,209.3c0,10.9-3.8,19.8-11.5,26.7c-7.6,6.9-18.6,10.3-32.9,10.3c-12.4,0-23.5-2.5-33.4-7.4l1.1-21.3
				c10.2,6,20.4,9,30.7,9c7.3,0,12.8-1.5,16.3-4.5c3.5-3,5.3-6.9,5.3-11.7c0-7.2-6.1-12.9-18.2-17.1l-4.9-1.6
				c-10.3-3.6-17.9-8.2-22.7-13.9c-4.8-5.7-7.2-13.4-7.2-23.3c0-10.1,3.7-18.3,11-24.5c7.3-6.3,17.5-9.4,30.5-9.4
				c10.9,0,21,2,30.3,6.1l-1.1,20.6c-10.2-4.7-19.5-7-27.8-7c-6,0-10.6,1.2-13.9,3.6c-3.2,2.4-4.9,5.9-4.9,10.5
				c0,4.1,1.4,7.4,4.3,9.8c2.9,2.5,7.4,4.8,13.5,6.9l4.9,1.8c10.3,3.5,18,8.1,23,13.8C915.3,192.4,917.8,199.9,917.8,209.3z"/>
			<path class="st1" d="M1017.9,243.6h-23.4v-55.2c0-11.3-5.1-17-15.2-17c-4.9,0-9.3,1.7-13,5.1c-3.7,3.4-5.6,7.3-5.6,11.7v55.4
				h-23.4V116.4h23.4v46.9h0.2c0.2-0.4,0.6-0.8,1.2-1.4c0.5-0.5,1.7-1.5,3.5-3c1.8-1.4,3.7-2.7,5.7-3.8s4.5-2.1,7.7-3
				c3.1-0.9,6.4-1.4,9.7-1.4c9.3,0,16.4,2.5,21.6,7.5c5.1,5,7.7,12.6,7.7,22.8V243.6z"/>
			<path class="st1" d="M1121.6,208.9c0,12.5-3.2,21.9-9.7,28.1c-6.5,6.2-16.7,9.3-30.7,9.3c-13.5,0-23.4-3-29.7-9.1
				c-6.3-6.1-9.5-15.5-9.5-28.2v-55.6h23.4v54.1c0,13.1,5.5,19.7,16.6,19.7c10.8,0,16.2-6.6,16.2-19.7v-54.1h23.3V208.9z"/>
			<path class="st1" d="M1170.3,243.6h-23.4V116.4h23.4V243.6z"/>
			<path class="st1" d="M1267.9,194.2l-0.4,10.5h-55v2c0,5.9,1.7,10.9,5.2,14.9c3.5,4,9,6,16.6,6c9.5,0,18.8-2.2,27.8-6.5l1.1,18.2
				c-7.9,4.6-18.4,6.9-31.4,6.9c-15.9,0-26.9-4-33.1-11.9c-6.2-7.9-9.3-19.7-9.3-35.4c0-32,14-48,42-48c12.4,0,21.6,3.5,27.5,10.6
				C1264.9,168.6,1267.9,179.5,1267.9,194.2z M1246.1,189.1c0-3-0.2-5.7-0.5-8c-0.4-2.3-1.1-4.7-2.1-6.9c-1-2.3-2.6-4.1-4.8-5.3
				c-2.2-1.3-4.9-1.9-8.1-1.9c-6,0-10.6,2.2-13.7,6.5c-3.1,4.3-4.7,9.6-4.7,15.7H1246.1z"/>
		</g>
		<g>
			<path class="st1" d="M579.9,323.8c5.2-0.8,11.5-1.4,18.3-1.4c12.3,0,21.1,2.9,27,8.3c5.9,5.4,9.4,13.1,9.4,23.9
				c0,10.9-3.4,19.7-9.6,25.9c-6.2,6.2-16.5,9.6-29.4,9.6c-6.1,0-11.3-0.3-15.6-0.8V323.8z M588.5,382.7c2.2,0.4,5.3,0.5,8.7,0.5
				c18.4,0,28.3-10.3,28.3-28.2c0.1-15.7-8.8-25.7-27-25.7c-4.4,0-7.8,0.4-10.1,0.9V382.7z"/>
			<path class="st1" d="M655,328.3c0.1,3-2.1,5.3-5.5,5.3c-3.1,0-5.2-2.4-5.2-5.3c0-3.1,2.3-5.4,5.4-5.4
				C652.9,322.8,655,325.2,655,328.3z M645.3,389.5v-47.8h8.7v47.8H645.3z"/>
			<path class="st1" d="M709.6,341.7c-0.2,3.5-0.4,7.3-0.4,13.1v27.7c0,11-2.2,17.7-6.8,21.8c-4.6,4.3-11.4,5.7-17.4,5.7
				c-5.7,0-12-1.4-15.9-4l2.2-6.6c3.2,2,8.1,3.8,14,3.8c8.9,0,15.4-4.6,15.4-16.7v-5.3h-0.2c-2.7,4.4-7.8,8-15.2,8
				c-11.8,0-20.3-10.1-20.3-23.3c0-16.2,10.6-25.4,21.5-25.4c8.3,0,12.8,4.3,14.9,8.3h0.2l0.4-7.2H709.6z M700.6,360.6
				c0-1.5-0.1-2.8-0.5-4c-1.6-5-5.8-9.2-12.1-9.2c-8.3,0-14.2,7-14.2,18.1c0,9.4,4.7,17.2,14.1,17.2c5.3,0,10.2-3.4,12-8.9
				c0.5-1.5,0.7-3.2,0.7-4.6V360.6z"/>
			<path class="st1" d="M732.7,328.3c0.1,3-2.1,5.3-5.5,5.3c-3.1,0-5.2-2.4-5.2-5.3c0-3.1,2.3-5.4,5.4-5.4
				C730.6,322.8,732.7,325.2,732.7,328.3z M723,389.5v-47.8h8.7v47.8H723z"/>
			<path class="st1" d="M756.6,328v13.7H769v6.6h-12.4v25.8c0,5.9,1.7,9.3,6.5,9.3c2.3,0,4-0.3,5-0.6l0.4,6.5
				c-1.7,0.7-4.3,1.2-7.7,1.2c-4.1,0-7.3-1.3-9.4-3.7c-2.5-2.6-3.4-6.8-3.4-12.4v-26.1h-7.4v-6.6h7.4v-11.5L756.6,328z"/>
			<path class="st1" d="M805.2,389.5l-0.7-6h-0.3c-2.7,3.8-7.8,7.1-14.6,7.1c-9.7,0-14.6-6.8-14.6-13.7c0-11.6,10.3-17.9,28.7-17.8
				v-1c0-3.9-1.1-11.1-10.9-11.1c-4.4,0-9.1,1.4-12.4,3.6l-2-5.7c3.9-2.6,9.7-4.2,15.7-4.2c14.6,0,18.2,10,18.2,19.5V378
				c0,4.1,0.2,8.2,0.8,11.5H805.2z M804,365.1c-9.5-0.2-20.2,1.5-20.2,10.8c0,5.6,3.8,8.3,8.2,8.3c6.2,0,10.2-4,11.6-8
				c0.3-0.9,0.5-1.9,0.5-2.8V365.1z"/>
			<path class="st1" d="M826.4,319.4h8.7v70.1h-8.7V319.4z"/>
			<path class="st1" d="M878.2,389.5l-16.9-66.5h9.1l7.9,33.7c2,8.3,3.8,16.6,4.9,23h0.2c1.1-6.6,3.2-14.5,5.4-23.1l8.9-33.6h9
				l8.1,33.8c1.9,7.9,3.7,15.8,4.6,22.8h0.2c1.4-7.3,3.3-14.7,5.3-23l8.8-33.6h8.8l-18.9,66.5h-9l-8.4-34.7
				c-2.1-8.5-3.5-15-4.3-21.7h-0.2c-1.2,6.6-2.7,13.1-5.1,21.7l-9.5,34.7H878.2z"/>
			<path class="st1" d="M973.7,389.5l-0.7-6h-0.3c-2.7,3.8-7.8,7.1-14.6,7.1c-9.7,0-14.6-6.8-14.6-13.7c0-11.6,10.3-17.9,28.7-17.8
				v-1c0-3.9-1.1-11.1-10.9-11.1c-4.4,0-9.1,1.4-12.4,3.6l-2-5.7c3.9-2.6,9.7-4.2,15.7-4.2c14.6,0,18.2,10,18.2,19.5V378
				c0,4.1,0.2,8.2,0.8,11.5H973.7z M972.4,365.1c-9.5-0.2-20.2,1.5-20.2,10.8c0,5.6,3.8,8.3,8.2,8.3c6.2,0,10.2-4,11.6-8
				c0.3-0.9,0.5-1.9,0.5-2.8V365.1z"/>
			<path class="st1" d="M994.8,319.4h8.7v70.1h-8.7V319.4z"/>
			<path class="st1" d="M1018.1,319.4h8.7v70.1h-8.7V319.4z"/>
			<path class="st1" d="M1046.3,367.2c0.2,11.7,7.7,16.6,16.4,16.6c6.2,0,10-1.1,13.2-2.5l1.5,6.2c-3.1,1.4-8.3,3-15.9,3
				c-14.7,0-23.5-9.7-23.5-24.1c0-14.4,8.5-25.8,22.4-25.8c15.6,0,19.7,13.7,19.7,22.5c0,1.8-0.2,3.2-0.3,4.1H1046.3z M1071.7,361
				c0.1-5.5-2.3-14.1-12-14.1c-8.8,0-12.6,8.1-13.3,14.1H1071.7z"/>
			<path class="st1" d="M1101.3,328v13.7h12.4v6.6h-12.4v25.8c0,5.9,1.7,9.3,6.5,9.3c2.3,0,4-0.3,5-0.6l0.4,6.5
				c-1.7,0.7-4.3,1.2-7.7,1.2c-4.1,0-7.3-1.3-9.4-3.7c-2.5-2.6-3.4-6.8-3.4-12.4v-26.1h-7.4v-6.6h7.4v-11.5L1101.3,328z"/>
		</g>
	</g>
</g>
</svg>
