<?xml version="1.0" encoding="utf-8"?>
<!-- Generator: Adobe Illustrator 26.0.0, SVG Export Plug-In . SVG Version: 6.00 Build 0)  -->
<svg version="1.1" id="Layer_1" xmlns="http://www.w3.org/2000/svg" xmlns:xlink="http://www.w3.org/1999/xlink" x="0px" y="0px"
	 viewBox="0 0 225 225" style="enable-background:new 0 0 225 225;" xml:space="preserve">
<style type="text/css">
	.st0{fill:#F9B715;stroke:#FFFFFF;stroke-width:3;stroke-miterlimit:10;}
	.st1{fill:#3D1A0F;}
	.st2{fill:#FFFFFF;}
</style>
<g>
	<path class="st0" d="M192.8,82.4c-3.3,10.2-0.5,20.4,2.8,32.2c4,14.6,8.6,31.2,2.4,52.1c-11.6,39.1-41.2,43.9-55.4,46.3
		c-13.9,2.3-24.2,6.7-28,12h-7.1c-1.4-2-7-7.9-24.6-10.9c-25.4-4.2-47.9-10.3-66.2-41.9c-8.5-14.7-3.8-35.6,0.8-55.8
		c5.8-25.6,10.8-47.7-9.5-54.7l-3.2-1.1L68.1,0l0.3,4.4c0.1,0.8,2.2,21.2,41.1,23.2c16.2,0.8,28.2-2.2,35.7-9.1
		c7-6.4,7.4-13.9,7.4-14l0.2-4.3L156,3l64.1,56.7l-3.9,0.9C215.4,60.7,198.5,64.6,192.8,82.4z"/>
	<g>
		<g id="XMLID_26_">
			<path id="XMLID_940_" class="st1" d="M108.2,126c0,0-0.1-0.1-0.1-0.1c0,0-0.1,0-0.2,0c-0.2,0-0.5,0.1-1.3,0.6
				c-0.6,0.4-1.4,1-2.4,1.8c-2,1.6-4.6,3.8-7.3,6.2c-0.8,0.7-1.5,1.3-2.2,2l-0.1,0.1c-2.2,1.9-4,3.6-5.4,4.9c-1.5,1.4-2,2-2.1,2.3
				c-0.1,0-0.1,0-0.2,0.1l-4.9,4.3c-0.2,0-0.4-0.1-0.6-0.1c-1,0-1.9,0.6-2.3,1.6l-0.1,0.1c-0.5,1.1-0.5,1.1-1.5,2.2
				c-0.2,0.2-0.5,0.5-0.8,0.9c-0.1,0-0.2,0.2-0.2,0.3c0.1,0.2,0.3,0.2,0.4,0.2h0c1.1,0,4.6-1,5.9-2.2c0.6-0.6,0.8-1.2,0.6-1.7l4.9-4
				c0.1-0.1,0.1-0.2,0.1-0.3c1.7-1,5.5-4.5,9.6-8.1l0.7-0.7c2.7-2.5,5.2-4.8,7-6.7c0.9-0.9,1.5-1.7,2-2.2
				C108.3,126.5,108.5,126.2,108.2,126L108.2,126z M87.9,145l-4.7,3.8c-0.2-0.2-0.4-0.4-0.6-0.5l4.5-4c0,0,0.1,0.1,0.2,0.2
				C87.5,144.7,87.7,144.9,87.9,145L87.9,145z M88.8,144l-0.6-0.6c0.1-0.1,0.2-0.2,0.4-0.5c0.3-0.4,0.8-0.9,1.5-1.5
				c1.3-1.2,3-2.8,5.1-4.7l0,0c0.7-0.6,1.5-1.3,2.2-2c2.5-2.3,4.9-4.3,6.9-5.8c1.7-1.4,2.5-1.9,2.9-2c-0.2,0.3-0.8,1.1-2.3,2.7
				c-1.7,1.7-4,4-6.5,6.2l-0.7,0.6C94,139.8,90.4,143,88.8,144L88.8,144z"/>
			<g id="XMLID_901_">
				<g>
					<path id="XMLID_00000059301098062827435050000000049289156477665670_" class="st1" d="M64.2,133.1c1,2.5,1.6,5.1,1.6,7.8
						s-0.5,5.3-1.6,7.8c-1,2.4-2.4,4.5-4.3,6.4c-1.5,1.5-3.3,2.8-5.2,3.7l0.6,3.1l-0.5,0.1c-1.5,0.3-3,0.5-4.4,0.6l0.6,6.9
						c1.8,0.1,3.5,0.2,4.9,0.4c1.3,0.2,2.3,0.3,3.1,0.5c0.4,0.1,0.7,0.2,0.9,0.4c0.4,0.2,0.5,0.5,0.5,0.8c0,0.3-0.2,0.6-0.5,0.8
						c-0.2,0.1-0.5,0.2-0.9,0.4c-0.7,0.2-1.8,0.4-3.1,0.5c-2.7,0.3-6.2,0.5-10,0.5c-3.8,0-7.3-0.2-10-0.5c-1.3-0.2-2.3-0.3-3.1-0.5
						c-0.4-0.1-0.7-0.2-0.9-0.4c-0.4-0.2-0.5-0.5-0.5-0.8c0-0.3,0.2-0.6,0.5-0.8c0.2-0.1,0.5-0.2,0.9-0.4c0.7-0.2,1.8-0.4,3.1-0.5
						c1.4-0.2,3.1-0.3,4.9-0.4l1.6-7.1c-0.4-0.1-0.9-0.1-1.3-0.2c-3.4-0.7-6.5-2-9-3.9c-1.7-1.3-3.3-2.9-4.6-4.7
						c-1-1.5-1.9-3.1-2.6-4.8c-1.2-3-1.4-5.2-1.5-5.3l0,0l0,0c0-4,0.7-7.7,2-10.9c1-2.6,2.5-4.9,4.3-6.9c1.6-1.7,3.2-2.9,4.3-3.5
						c1.2-0.7,1.9-1,2-1l0.3-0.1l1.3,1.7c0.1,0,0.1,0,0.2-0.1c2.5-1,5.1-1.6,7.8-1.6c2.7,0,5.3,0.5,7.8,1.6c2.4,1,4.5,2.4,6.4,4.3
						C61.8,128.6,63.2,130.7,64.2,133.1L64.2,133.1z M64.8,140.9c0-3.8-1.1-7.3-3-10.2c0.1,0.2,0.1,0.4,0,0.6
						c-0.1,0.2-0.4,0.4-1,0.3c-0.4-0.1-0.8-0.2-0.9-0.3c-0.6-0.3-0.9-0.8-1.2-1.5c-0.1-0.2-0.1-0.3-0.2-0.4c0,0-0.1,0-0.2-0.1
						c-0.1,0-0.2,0-0.3-0.1c-0.2-0.1-0.3-0.1-0.5-0.2c-0.2-0.1-0.4-0.2-0.6-0.2c-0.2,0-0.4,0.1-0.6,0.2c-0.2,0.1-0.4,0.2-0.6,0.3
						c-0.3,0.1-0.7,0-1-0.1c-0.3-0.1-0.5-0.2-0.7-0.1c-0.1,0-0.1,0-0.1,0c0,0.1,0.2,0.3,0.4,0.4c0.3,0.1,0.6,0.1,0.9-0.1
						c0.1,0,0.2-0.1,0.3-0.1c0,0,0,0,0.1,0c0.6-0.1,1.3,0,1.7,0.4c0.4,0.4,0.6,0.9,0.5,1.5c-0.1,0.7-0.8,1.7-1.5,2.1
						c-0.3,0.2-0.6,0.3-0.9,0.3c-0.1,0-0.2,0-0.3,0c-0.8-0.2-1.7-0.7-2.5-1.1c-0.2-0.1-0.4-0.2-0.5-0.3c-0.4-0.2-0.6-0.4-0.8-0.6
						c-0.1-0.1-0.3-0.3-0.5-0.4c-0.1-0.1-0.2-0.1-0.3-0.2c-0.3-0.2-0.6-0.4-0.8-0.8c-0.1-0.1-0.1-0.2-0.2-0.3
						c-0.2-0.4-0.4-0.7-0.7-0.8c-0.3-0.1-0.4-0.1-0.7,0.1c-0.1,0.1-0.2,0.1-0.4,0.2c-0.3,0.1-0.5,0.2-0.6,0.2
						c-0.4,0-0.6-0.2-0.9-0.4c0,0-0.1-0.1-0.1-0.1c-0.2-0.2-0.4-0.2-0.6-0.2c-0.1,0-0.1,0-0.2,0.2c0,0.1,0,0.2,0,0.3
						c0,0.3-0.1,0.6-0.4,0.8c-0.2,0.1-0.4,0.1-0.7,0c-0.2-0.1-0.3-0.2-0.4-0.4c0,0.1-0.1,0.2-0.2,0.2c-0.1,0.1-0.3,0.1-0.5,0.1
						c0.1,0.2,0.3,0.4,0.2,0.7c-0.1,0.2-0.4,0.4-0.7,0.5c-0.1,0-0.2,0-0.4,0c-0.1-0.1-0.2-0.1-0.3-0.1c-0.1-0.1-0.3-0.1-0.4-0.1
						l-0.1-0.1l0.2-0.2c0,0,0.1-0.1,0.1-0.1c0.3-0.3,0.3-0.3,0.2-0.4c-0.1,0-0.4,0-0.5,0c-0.1,0-0.2,0-0.3,0c-0.1,0-0.3-0.1-0.4-0.1
						c-0.3-0.1-0.4-0.1-0.6-0.1c0,0,0,0.1,0,0.1c0,0.1-0.1,0.2-0.2,0.3c-0.1,0.1-0.3,0.2-0.5,0.3c-0.1,0-0.2,0.1-0.2,0.1
						c-0.3,0.2-0.4,0.4-0.5,0.8c-0.1,0.2-0.1,0.3-0.2,0.5c0,0-0.1,0.1-0.1,0.1c-0.1,0.1-0.2,0.2-0.2,0.3c0,0-0.1,0.1-0.1,0.1
						c-0.3,0.2-1.3,0.6-1.9,0.3c-0.1-0.1-0.3-0.3-0.2-0.7c0.1-0.5,0.5-0.9,0.8-1.2c0.4-0.3,0.6-0.6,0.6-0.9c0-0.1,0-0.2,0-0.3
						c-0.1-0.4-0.1-0.6,0.4-0.9c0.1-0.1,0.2-0.1,0.3-0.1c0,0,0,0,0,0c0,0,0,0,0-0.1c0,0,0-0.1-0.1-0.2c-0.1-0.1-0.1-0.3,0-0.4
						c0.1-0.3,0.3-0.3,0.5-0.4c0.1,0,0.1,0,0.2-0.1c0.1,0,0.1-0.1,0.1-0.1c0,0,0.1-0.1,0.1-0.2c0.2-0.2,0.5-0.4,0.8-0.6
						c-0.6,0-1.4-0.1-1.6-0.6l-0.1-0.2l0.2-0.1c0.1,0,0.1-0.4,0-0.6c0-0.3,0-0.6,0.1-0.8c0.2-0.5,0.7-0.8,1.4-1c0.3-0.1,0.6,0,0.9,0
						c0.4,0,0.8,0.1,1.1,0c0.2-0.1,0.3-0.4,0.4-0.7c0-0.1,0-0.1,0-0.2c-8.6,1.8-15.1,9.5-15.1,18.6c0,2.3,0.4,4.6,1.2,6.7
						c-0.1,0-0.3,0-0.4,0l0.1,0.5c0.2,0,0.3,0,0.5,0.1c0,0,0,0,0,0c1.5,3.6,4,6.6,7.2,8.7c0.1,0.2,0.2,0.3,0.2,0.6l0.5,0
						c0-0.1,0-0.1,0-0.2c2.8,1.7,6.1,2.7,9.7,2.7C56.3,159.9,64.8,151.4,64.8,140.9L64.8,140.9z M61.4,131c0.1-0.1-0.1-0.5-0.3-0.7
						c-0.1-0.2-0.2-0.3-0.2-0.4c-0.1-0.2-0.1-0.5-0.1-0.7c-3.5-4.4-8.9-7.3-14.9-7.3c-1.1,0-2.2,0.1-3.3,0.3
						c-0.1,0.1-0.1,0.3-0.1,0.4c-0.1,0.4-0.2,0.8-0.6,1c-0.4,0.2-0.9,0.2-1.4,0.1c-0.3,0-0.6-0.1-0.8,0c-0.2,0-0.8,0.2-1,0.7
						c0,0.1,0,0.4,0,0.6c0,0.3,0,0.6-0.1,0.9c0.1,0.1,0.3,0.1,0.5,0.2c0.4,0.1,0.7,0.1,0.8,0c0.3-0.1,0.3-0.3,0.4-0.7
						c0-0.2,0-0.4,0.1-0.6l0-0.1l0.1,0c0.4-0.1,0.7,0,0.9,0.3c0.2,0.2,0.2,0.6,0.1,0.9c-0.2,0.5-0.6,0.7-0.9,0.9
						c-0.1,0-0.2,0.1-0.3,0.1c-0.5,0.3-0.8,0.5-1.1,0.8c0,0-0.1,0.1-0.1,0.1c-0.1,0.1-0.1,0.1-0.2,0.2c-0.1,0.1-0.2,0.1-0.3,0.1
						c-0.1,0-0.1,0-0.1,0c0,0,0,0.1,0,0.1c0.1,0.2,0.1,0.3,0.1,0.5c-0.1,0.3-0.3,0.4-0.4,0.4c0,0-0.1,0-0.1,0.1
						c-0.2,0.1-0.2,0.2-0.2,0.2c0,0,0,0.1,0,0.2c0,0.1,0,0.2,0.1,0.4c0.1,0.6-0.3,1-0.7,1.4c-0.3,0.3-0.6,0.5-0.6,0.9
						c0,0.1,0,0.2,0,0.2c0.1,0.1,0.3,0.1,0.6,0c0.3-0.1,0.6-0.2,0.7-0.3c0.3-0.2,0.4-0.5,0.5-0.8c0.1-0.3,0.3-0.7,0.8-1
						c0.1-0.1,0.2-0.1,0.3-0.1c0.1,0,0.2-0.1,0.3-0.2c0,0,0.1-0.1,0.1-0.1c0-0.1,0.1-0.2,0.2-0.3c0.3-0.3,0.7-0.1,1,0
						c0.1,0,0.2,0.1,0.3,0.1c0.1,0,0.2,0,0.3,0c0.3,0,0.7,0,0.9,0.2c0.2,0.2,0.2,0.4,0.1,0.7c0,0.1-0.1,0.2-0.2,0.2
						c0.1,0,0.2,0,0.3,0c0.2,0,0.3-0.1,0.4-0.2c0-0.1-0.1-0.2-0.2-0.4c-0.1-0.1-0.3-0.3-0.3-0.5l-0.1-0.3c-0.3,0-0.8-0.1-0.9-0.5
						c-0.1-0.2-0.1-0.4,0.3-0.6c0.3-0.3,0.9-0.2,1.2-0.1c0.5,0.1,0.9,0.3,1.1,0.6c0.2,0.2,0.2,0.4,0.3,0.6c0.1,0.2,0.1,0.3,0.2,0.3
						c0.1,0,0.2,0,0.2,0c0.1,0,0.1-0.3,0.1-0.4c0-0.1,0-0.3,0.1-0.4c0.1-0.3,0.3-0.5,0.5-0.5c0.4-0.1,0.8,0.1,1,0.3
						c0.1,0,0.1,0.1,0.2,0.1c0.4,0.3,0.5,0.4,1,0.2c0.1-0.1,0.2-0.1,0.3-0.2c0.3-0.2,0.6-0.4,1.2-0.1c0.5,0.2,0.7,0.6,0.9,1
						c0.1,0.1,0.1,0.2,0.1,0.3c0.2,0.3,0.4,0.5,0.7,0.6c0.1,0.1,0.2,0.1,0.3,0.2c0.2,0.1,0.4,0.3,0.5,0.4c0.2,0.2,0.4,0.4,0.7,0.5
						c0.2,0.1,0.3,0.2,0.5,0.3c0.8,0.4,1.6,0.8,2.4,1c0.3,0.1,0.6-0.1,0.8-0.2c0.6-0.4,1.2-1.3,1.3-1.8c0.1-0.4,0-0.7-0.3-1
						c-0.3-0.3-0.9-0.4-1.3-0.3c-0.1,0-0.2,0.1-0.3,0.1c-0.4,0.1-0.8,0.3-1.3,0.1c-0.3-0.1-0.7-0.5-0.7-0.9c0-0.1,0-0.4,0.4-0.5
						c0.3-0.1,0.7,0,1,0.1c0.3,0.1,0.6,0.2,0.8,0.1c0.2,0,0.3-0.1,0.5-0.2c0.3-0.1,0.5-0.3,0.8-0.3c0.4,0,0.6,0.1,0.9,0.3
						c0.1,0.1,0.3,0.1,0.4,0.2c0.1,0,0.2,0.1,0.2,0.1c0.4,0.1,0.5,0.2,0.8,0.8c0.2,0.6,0.5,1,1,1.2C60.6,131.1,61.2,131.3,61.4,131
						L61.4,131z M59.3,171.5c-0.4-0.2-1.5-0.5-3.9-0.7c-1.6-0.2-3.6-0.3-5.6-0.4c-0.9,0.2-2,0.2-3.1,0.2c-0.6,0-1.3,0-2-0.1
						c-0.7,0-1.3-0.1-1.9-0.2c-2.2,0.1-4.3,0.2-6,0.4c-2.4,0.3-3.5,0.5-3.9,0.7c0.4,0.2,1.5,0.5,3.9,0.7c2.6,0.3,5.9,0.4,9.3,0.4
						c3.5,0,6.8-0.1,9.3-0.4C57.8,172,58.9,171.7,59.3,171.5L59.3,171.5z M54.2,161.1l-0.4-1.9c-0.1,0-0.2,0.1-0.2,0.1
						c-2.5,1-5.1,1.6-7.8,1.6c-2.7,0-5.3-0.5-7.8-1.6c-2.4-1-4.5-2.4-6.4-4.3c-1.8-1.8-3.3-4-4.3-6.4c-1-2.5-1.6-5.1-1.6-7.8
						s0.5-5.3,1.6-7.8c1-2.4,2.4-4.5,4.3-6.4c1.6-1.6,3.3-2.8,5.3-3.8l-0.7-1c-0.3,0.1-0.9,0.4-1.5,0.8c-1,0.6-2.5,1.7-4.1,3.4
						c-2.7,2.9-5.9,8.3-6,17c0,0.3,0.3,2.4,1.4,5.1c1.1,2.6,3.1,6.3,6.9,9.1C38.1,161.4,45.3,162.6,54.2,161.1L54.2,161.1z
						 M50.1,169.3l-0.6-6.7c-0.8,0-1.5,0.1-2.2,0.1c-1.3,0-2.5-0.1-3.7-0.2l-1.5,6.8c0.2,0,0.5,0.1,0.8,0.1c1.1,0,2.1,0,3.2,0
						c1.2,0,2.4,0,3.6,0.1C49.8,169.4,50,169.4,50.1,169.3L50.1,169.3z M43.6,129.4c0-0.1,0-0.1,0-0.1c0,0,0,0-0.2,0
						c-0.1,0-0.3,0-0.4,0c0,0-0.1,0-0.1,0c0.1,0,0.2,0,0.2,0.1C43.2,129.5,43.5,129.5,43.6,129.4C43.6,129.5,43.6,129.5,43.6,129.4
						L43.6,129.4z M42.9,128.9c0.2,0,0.4-0.1,0.5,0c-0.1-0.1-0.3-0.1-0.5-0.2c-0.4-0.1-0.7-0.1-0.8,0c-0.1,0.1-0.1,0.1-0.1,0.1
						c0.1,0.1,0.3,0.2,0.5,0.2C42.7,128.9,42.8,128.9,42.9,128.9L42.9,128.9z M41,125.5c0.1-0.2,0.1-0.3,0-0.4
						c-0.1-0.1-0.2-0.1-0.3-0.1c0,0.1,0,0.2,0,0.3c0,0.2,0,0.5-0.2,0.7C40.7,125.8,40.9,125.7,41,125.5z"/>
					<path id="XMLID_00000026121595531867728320000010962364668298009508_" class="st1" d="M61.4,142c0,0.7,0.1,2.9-0.8,3.5
						c-0.1,0.1-0.3,0.1-0.4,0.1c-0.1,0-0.3,0-0.4-0.1c-0.8-0.5-1.2-2.9-0.8-4.2c0.1-0.3,0.2-0.5,0.4-0.7l-0.2,0
						c0.1-0.4,0.3-0.6,0.6-0.7c0.4-0.1,0.8,0,1.1,0.3c0.4,0.4,0.5,1.2,0.5,1.7C61.4,141.9,61.4,141.9,61.4,142L61.4,142z
						 M60.3,145.1c0.5-0.4,0.6-1.8,0.6-3.1c0,0,0-0.1,0-0.1c0-0.4-0.1-1.1-0.3-1.4c-0.1-0.1-0.2-0.2-0.3-0.2l0,0.3
						c-0.4,0-0.6,0.3-0.7,0.8c-0.2,0.6-0.2,1.4,0,2.2c0.2,0.8,0.4,1.4,0.6,1.5C60.2,145.1,60.3,145.1,60.3,145.1L60.3,145.1z"/>
					<path id="XMLID_00000039110580687046530670000003790790808348940681_" class="st1" d="M55.4,170.8c2.4,0.3,3.5,0.5,3.9,0.7
						c-0.4,0.2-1.5,0.5-3.9,0.7c-2.6,0.3-5.9,0.4-9.3,0.4s-6.8-0.1-9.3-0.4c-2.4-0.3-3.5-0.5-3.9-0.7c0.4-0.2,1.5-0.5,3.9-0.7
						c1.7-0.2,3.8-0.3,6-0.4c0.5,0.1,1.1,0.1,1.9,0.2c0.7,0,1.4,0.1,2,0.1c1.2,0,2.2-0.1,3.1-0.2C51.8,170.5,53.7,170.6,55.4,170.8
						L55.4,170.8z"/>
					<path id="XMLID_00000036947441558038461890000013523355816089660068_" class="st1" d="M57.8,141.3c0.7,0.9,0.4,1.5,0,2.2
						c-0.1,0.2-0.3,0.5-0.4,0.8c-0.2,0.5,0,1,0.1,1.5c0.1,0.3,0.2,0.6,0.2,1c0.1,1.3,0,2.4-0.5,3.1c-0.3,0.5-0.8,1-1.2,1.4
						c-0.1,0.1-0.3,0.3-0.4,0.5c-0.2,0.2-0.4,0.4-0.6,0.6c-0.2,0.2-0.5,0.3-0.7,0.3c-0.5,0-0.8-0.4-1.1-0.8
						c-0.1-0.1-0.2-0.3-0.3-0.4c-0.2-0.2-0.4-0.4-0.6-0.6c-0.4-0.3-0.8-0.6-1-1.1c-0.1-0.1-0.1-0.2-0.2-0.3
						c-0.2-0.3-0.3-0.5-0.5-0.7c-0.1-0.1-0.3-0.2-0.4-0.3c-0.4-0.3-0.9-0.6-1-1.1c0-0.2,0.1-0.4,0.1-0.5c0-0.1,0.1-0.1,0.1-0.2
						c0-0.1,0-0.3-0.1-0.4c0,0,0-0.1,0-0.1c-0.1-0.4-0.2-0.9-0.4-1.2c-0.2-0.5-0.2-0.5-0.6-0.6c-0.1,0-0.2,0-0.3,0
						c-0.4,0-1-0.1-1.2-0.4c-0.1-0.2-0.1-0.4-0.1-0.6c0-0.2,0-0.2-0.1-0.4c-0.2-0.2-0.7-0.6-0.9-0.7c-0.3-0.1-0.6-0.2-0.9-0.2
						c-0.6,0-1.2,0.3-1.9,0.9c-0.7,0.7-1.7,1.1-2.7,1.1c-0.2,0-0.3,0-0.5,0c-0.1,0-0.3-0.1-0.4-0.1c-0.1,0-0.2-0.1-0.3-0.1
						c0,0,0,0,0,0c-0.1,0-0.2,0-0.3,0c-0.1,0-0.3,0.1-0.4,0.1c0,0-0.1,0-0.1,0c-0.3-0.1-0.5-0.3-0.8-0.4c-0.2-0.1-0.3-0.2-0.5-0.3
						c-0.1-0.1-0.2-0.1-0.3-0.1c-0.4-0.1-0.7-0.3-0.8-0.9c-0.1-0.4-0.1-0.6-0.4-1.1l0,0c-0.3-0.5-0.4-0.7-0.1-1.3
						c0.2-0.4,0.2-0.5,0.2-0.9c0-0.7,0.1-1.3,0.3-1.9c0.1-0.3,0.1-0.6,0.2-0.8c0-0.1,0-0.2,0-0.4c0-0.3,0-0.6,0.2-0.9
						c0.1-0.3,0.4-0.5,0.6-0.6c0.1-0.1,0.2-0.1,0.3-0.2c0.2-0.2,0.4-0.6,0.6-0.9c0.1-0.2,0.3-0.5,0.4-0.7c0.2-0.1,0.3-0.3,0.4-0.4
						c0.7-0.6,1.8-1,2.7-1c0.2,0,0.3,0,0.4,0l0,0c0.2,0.2,0.4,0.2,0.7,0.2c0.1,0.1,0.2,0.1,0.3,0.2c0.3,0.2,0.6,0.4,0.9,0.4
						c0.1,0,0.1,0,0.2,0c0.3-0.1,0.5-0.2,0.7-0.4c0.2-0.2,0.4-0.3,0.7-0.4c0.1,0,0.2-0.1,0.3-0.1c0.7-0.3,1.5-0.6,2.3-0.6
						c0,0,0.1,0,0.1,0c0.9,0,1.5,0.5,2,1c0.1,0.1,0.3,0.3,0.5,0.4c0.5,0.4,1,0.6,1.6,0.9c0.6,0.3,1.3,0.7,1.9,1.2
						c0.4,0.3,0.7,0.5,1,0.5c0.3,0,0.6-0.1,1.1-0.3c0,0,0.1,0,0.1-0.1c0.2-0.1,0.4-0.2,0.6-0.2c0.2,0,0.5,0.1,0.6,0.6
						c0.1,0.5,0,1.2-0.2,1.8c-0.1,0.4-0.3,0.8-0.4,1.2c-0.3,0.6-0.5,1.2-0.5,1.9c0,0.7,0.5,1.3,1,1.9
						C57.6,141,57.7,141.2,57.8,141.3L57.8,141.3z M57.4,143.3c0.3-0.6,0.5-1,0-1.6c-0.1-0.1-0.2-0.3-0.4-0.4
						c-0.5-0.6-1.1-1.3-1.2-2.2c0-0.8,0.3-1.5,0.5-2.1c0.1-0.4,0.3-0.7,0.4-1.1c0.1-0.4,0.3-1.1,0.2-1.5c0-0.2-0.1-0.2-0.1-0.2
						c-0.1,0-0.3,0.1-0.4,0.1c0,0-0.1,0-0.1,0.1c-0.6,0.2-0.9,0.3-1.3,0.3c-0.4,0-0.8-0.2-1.3-0.6c-0.5-0.5-1.2-0.8-1.8-1.1
						c-0.6-0.3-1.1-0.6-1.7-1c-0.2-0.1-0.3-0.3-0.5-0.4c-0.6-0.5-1-0.9-1.7-0.9c0,0-0.1,0-0.1,0c-0.7,0-1.5,0.3-2.2,0.6
						c-0.1,0-0.2,0.1-0.3,0.1c-0.2,0.1-0.4,0.2-0.6,0.4c-0.3,0.2-0.6,0.4-0.9,0.5c-0.1,0-0.2,0-0.3,0c-0.5,0-0.8-0.2-1.2-0.5
						c-0.2-0.1-0.3-0.2-0.5-0.3c-0.2-0.1-0.4-0.1-0.7-0.1c-0.9,0-1.9,0.4-2.5,1c-0.2,0.2-0.4,0.5-0.6,0.9c-0.2,0.4-0.4,0.7-0.7,1
						c-0.1,0.1-0.2,0.2-0.3,0.3c-0.2,0.1-0.3,0.2-0.4,0.4c-0.1,0.2-0.1,0.5-0.1,0.7c0,0.1,0,0.3,0,0.4c0,0.3-0.1,0.6-0.2,0.9
						c-0.1,0.6-0.2,1.2-0.2,1.8c0,0.5,0,0.7-0.2,1.1c-0.1,0.2-0.1,0.4-0.1,0.4c0,0.1,0.1,0.2,0.2,0.4l0,0c0.3,0.5,0.4,0.8,0.4,1.2
						c0.1,0.4,0.2,0.4,0.5,0.5c0.1,0,0.2,0.1,0.3,0.1c0.2,0.1,0.4,0.2,0.6,0.4c0.2,0.2,0.4,0.3,0.5,0.3c0,0,0,0,0,0
						c0.1,0,0.2,0,0.3,0c0.1,0,0.2-0.1,0.4-0.1c0,0,0.1,0,0.1,0c0.2,0,0.3,0.1,0.4,0.1c0.1,0,0.2,0.1,0.3,0.1c0.1,0,0.3,0,0.4,0
						c0.9,0,1.7-0.4,2.3-1c0.7-0.7,1.4-1.1,2.2-1.1c0.3,0,0.7,0.1,1,0.2c0.4,0.1,0.8,0.5,1.1,0.8c0.3,0.3,0.3,0.6,0.2,0.8
						c0,0.1,0,0.2,0,0.2c0.1,0.1,0.5,0.1,0.8,0.2c0.2,0,0.3,0,0.4,0c0.6,0.1,0.8,0.4,1,0.9c0.2,0.4,0.3,0.8,0.4,1.3c0,0,0,0.1,0,0.1
						c0.1,0.2,0.1,0.4,0.1,0.6c0,0.1-0.1,0.2-0.1,0.3c0,0.1-0.1,0.2-0.1,0.2c0,0.2,0.4,0.5,0.8,0.7c0.2,0.1,0.4,0.2,0.5,0.4
						c0.3,0.2,0.4,0.5,0.6,0.8c0.1,0.1,0.1,0.2,0.2,0.3c0.2,0.4,0.6,0.6,0.9,1c0.2,0.2,0.5,0.4,0.7,0.6c0.1,0.1,0.2,0.3,0.3,0.4
						c0.2,0.3,0.5,0.6,0.7,0.6c0.1,0,0.3-0.1,0.4-0.2c0.2-0.1,0.3-0.3,0.5-0.5c0.2-0.2,0.3-0.4,0.5-0.5c0.4-0.3,0.8-0.8,1.1-1.2
						c0.4-0.6,0.5-1.5,0.4-2.7c0-0.3-0.1-0.6-0.2-0.9c-0.2-0.5-0.3-1.1-0.1-1.8C57.1,143.8,57.3,143.5,57.4,143.3L57.4,143.3z"/>
					<path id="XMLID_00000004505418151609149800000000894623193628376208_" class="st1" d="M51.8,126.1c0.2,0.1,0.3,0.3,0.3,0.6
						c0,0.3-0.2,0.5-0.5,0.5c-0.2,0-0.3-0.1-0.5-0.1c0,0,0,0-0.1,0l0,0c-0.4-0.1-0.8-0.2-1-0.5c-0.1-0.1-0.1-0.1-0.2-0.2
						c-0.2-0.2-0.2-0.3-0.5-0.3c-0.1,0-0.1,0-0.2-0.1c-0.3-0.1-0.6-0.2-0.7-0.5c-0.1-0.2,0-0.4,0.1-0.6c0.2-0.4,0.5-0.4,0.6-0.4
						c0.5,0,0.9,0.4,1.4,0.9c0.3,0.2,0.5,0.5,0.7,0.6c0,0,0.1,0,0.1,0C51.5,125.9,51.6,126,51.8,126.1L51.8,126.1z M51.6,126.6
						c0-0.1-0.1-0.2-0.4-0.2c-0.1,0-0.1,0-0.2,0c-0.3-0.1-0.6-0.4-0.9-0.7c-0.3-0.3-0.8-0.7-1-0.7c0,0-0.1,0-0.2,0.2
						c-0.1,0.1-0.1,0.2-0.1,0.2c0,0.1,0.3,0.1,0.4,0.2c0.1,0,0.1,0,0.2,0.1c0.4,0.1,0.5,0.3,0.7,0.5c0,0.1,0.1,0.1,0.2,0.2
						c0.2,0.2,0.5,0.3,0.9,0.4l0,0c0,0,0,0,0.1,0C51.4,126.7,51.5,126.7,51.6,126.6C51.6,126.7,51.6,126.7,51.6,126.6
						C51.6,126.7,51.6,126.7,51.6,126.6L51.6,126.6z"/>
					<path id="XMLID_00000143606703468757491320000003553994173240844438_" class="st1" d="M49.5,162.6l0.6,6.7
						c-0.1,0-0.3,0.1-0.5,0.1c-1.2,0-2.4-0.1-3.6-0.1c-1.1,0-2.2,0-3.2,0c-0.3,0-0.6-0.1-0.8-0.1l1.5-6.8c1.2,0.1,2.4,0.2,3.7,0.2
						C48,162.7,48.7,162.7,49.5,162.6L49.5,162.6z"/>
					<path id="XMLID_00000149380646538760128960000004923308668594921602_" class="st1" d="M48.7,126.2c0.1,0.1,0.1,0.3,0.1,0.5
						c-0.1,0.3-0.3,0.5-0.6,0.5c-0.1,0-0.2,0-0.3,0c-0.1,0-0.2,0-0.2,0c0,0,0,0,0,0c-0.2,0-0.2,0.1-0.3,0.2
						c-0.1,0.1-0.2,0.2-0.3,0.3c-0.2,0.1-0.5,0.2-0.8,0.2c-0.3,0-0.6-0.1-0.9-0.2c-0.2-0.1-0.5-0.3-0.6-0.6c0-0.1,0-0.3,0.2-0.5
						c0.1-0.2,0.3-0.2,0.5-0.2c0.1,0,0.3,0,0.4,0.1c0.1,0,0.2,0.1,0.3,0.1c0.1,0,0.1,0,0.2-0.1c0,0,0.1-0.1,0.1-0.1
						c0.1-0.1,0.2-0.3,0.5-0.4c0,0,0.1,0,0.2,0c0.2,0,0.3,0,0.5,0.1c0.1,0,0.2,0,0.3,0.1c0,0,0.1,0,0.1,0
						C48.2,125.9,48.6,126,48.7,126.2L48.7,126.2z M48.3,126.6c0-0.1,0-0.1,0-0.1c0-0.1-0.3-0.1-0.4-0.1c-0.1,0-0.1,0-0.2,0
						c-0.1,0-0.2,0-0.3-0.1c-0.1,0-0.3-0.1-0.4-0.1c0,0,0,0-0.1,0c-0.1,0-0.1,0-0.1,0c0,0,0,0,0,0c0,0.1-0.1,0.2-0.2,0.3
						c-0.1,0.1-0.3,0.2-0.5,0.2c-0.2,0-0.3,0-0.4-0.1c-0.1,0-0.2-0.1-0.3-0.1c-0.1,0-0.1,0-0.2,0.1c0,0,0,0.1,0,0.1
						c0,0,0,0.1,0.4,0.3c0.2,0.1,0.4,0.2,0.6,0.2c0.2,0,0.4,0,0.5-0.1c0.1-0.1,0.2-0.1,0.2-0.2c0.1-0.1,0.3-0.3,0.6-0.3
						c0,0,0.1,0,0.1,0c0.1,0,0.2,0,0.3,0c0.1,0,0.2,0,0.2,0C48.3,126.7,48.3,126.7,48.3,126.6z"/>
					<path id="XMLID_00000111913454367550464780000006679986115382914183_" class="st1" d="M42.2,131.1c0.1,0,0.2,0.1,0.3,0.1
						c-0.3,0-0.5-0.1-0.7-0.2l0,0C41.9,131,42,131.1,42.2,131.1z"/>
					<path id="XMLID_00000176742854952437963040000004810826610605240481_" class="st1" d="M38.6,132c-0.1,0.1-0.2,0.3-0.4,0.4
						c0.1-0.1,0.1-0.2,0.2-0.3C38.5,132.1,38.5,132,38.6,132z"/>
					<path id="XMLID_00000158748933577759943290000002469707469343374259_" class="st1" d="M36.2,157.4l-0.5,0
						c0-0.3-0.1-0.4-0.2-0.6c0.2,0.1,0.4,0.3,0.7,0.4C36.2,157.3,36.2,157.4,36.2,157.4L36.2,157.4z"/>
					<path id="XMLID_00000013911577076811636780000015315820671640627876_" class="st1" d="M35.7,156.3c0.2,0.2,0.4,0.5,0.5,1
						c-0.2-0.1-0.5-0.3-0.7-0.4c-0.1-0.1-0.1-0.2-0.2-0.2c-0.1-0.2-0.3-0.4-0.4-0.6c-0.3-0.7,0-1,0.2-1.2c0.1-0.2,0.2-0.2,0.2-0.5
						c0-0.2-0.2-0.3-0.4-0.5c-0.3-0.2-0.6-0.6-0.7-1.1c0-0.2,0-0.4,0-0.5c0-0.2,0-0.3,0-0.5c0-0.1-0.1-0.2-0.2-0.3
						c-0.1-0.1-0.3-0.3-0.3-0.5c-0.1-0.2-0.1-0.4-0.1-0.6c-0.1-0.4-0.1-0.6-0.7-0.7c-0.2,0-0.4,0.1-0.6,0.1
						c-0.4,0.1-0.9,0.3-1.3-0.2c-0.3-0.3-0.3-0.6-0.3-0.9c0-0.1,0-0.2,0-0.3c0,0-0.1-0.1-0.5-0.2c-0.1,0-0.3,0-0.5,0.1
						c-0.2,0-0.4,0.1-0.7,0.1c-0.2,0-0.4-0.1-0.5-0.1c-0.1-0.2-0.2-0.4-0.2-0.6c0.1,0,0.3,0.1,0.4,0.1c0.1,0.1,0.3,0.1,0.4,0.1
						c0.2,0,0.3,0,0.5-0.1c0.2,0,0.4-0.1,0.7-0.1c0.4,0.1,0.7,0.2,0.8,0.3c0.2,0.2,0.2,0.4,0.2,0.6c0,0.2,0,0.4,0.2,0.6
						c0.2,0.2,0.4,0.2,0.8,0.1c0.2-0.1,0.5-0.2,0.8-0.2c1,0.1,1.1,0.6,1.2,1.1c0,0.2,0.1,0.3,0.1,0.5c0,0.1,0.1,0.3,0.3,0.4
						c0.1,0.1,0.3,0.3,0.3,0.5c0.1,0.3,0.1,0.5,0,0.7c0,0.1,0,0.3,0,0.4c0.1,0.4,0.3,0.6,0.5,0.8c0.2,0.2,0.4,0.4,0.5,0.7
						c0.1,0.5-0.1,0.7-0.3,0.9c-0.2,0.2-0.3,0.3-0.1,0.7C35.4,156,35.5,156.1,35.7,156.3L35.7,156.3z"/>
					<path id="XMLID_00000162351890689923425270000002705282521002405766_" class="st1" d="M28.3,148.2
						C28.3,148.2,28.2,148.2,28.3,148.2c-0.2-0.1-0.3-0.1-0.5-0.1l-0.1-0.5c0.2,0,0.3,0,0.4,0C28.1,147.8,28.2,148,28.3,148.2
						L28.3,148.2z"/>
				</g>
			</g>
			<g id="XMLID_890_">
				<g>
					<g id="XMLID_00000010304837028323110410000018135695822030143115_">
						<path id="XMLID_00000104687283608156582860000006273930473260139655_" class="st1" d="M92.4,163.8c0,0.1,0,0.3,0,0.5
							c0,0.2,0,0.4,0,0.5c0,0.2,0,0.4,0,0.7c0,0.3,0,0.6,0,0.8c0,0.2,0,0.5,0,0.7c0,0,0,0.1,0,0.1c0,0,0,0-0.1,0c0,0-0.1,0-0.1,0
							c0,0,0-0.1,0-0.1c0-0.2,0-0.5,0-0.7c0-0.2,0-0.5,0-0.8c0-0.3,0-0.5,0-0.7c0-0.1,0-0.3,0-0.5c0-0.3,0-0.4,0-0.5
							c0,0,0-0.1,0-0.1c0,0,0,0,0.1,0C92.3,163.6,92.4,163.6,92.4,163.8C92.4,163.7,92.4,163.7,92.4,163.8L92.4,163.8z"/>
						<path id="XMLID_00000079469881027469087530000008678911364941431980_" class="st1" d="M94.1,163.6c0.3,0.8,0.8,1.7,1.3,2.7
							c0,0.1,0.1,0.3,0.3,0.5l0.1,0.1c0,0,0,0,0-0.1c0,0,0-0.2,0-0.5c0-0.1,0-0.5,0-1.1s0-1.2,0-1.6c0,0,0-0.1,0-0.1c0,0,0,0,0.1,0
							c0,0,0.1,0,0.1,0c0,0,0,0.1,0,0.1c0,0.3,0,0.6,0,0.9c0,0.3,0,0.6,0,1c0,0.4,0,0.7,0,0.9c0,0.3,0,0.5,0,0.5c0,0.1,0,0.2,0,0.3
							c0,0.1,0,0.1,0,0.1c0,0.1-0.1,0.1-0.1,0.1c0,0,0,0,0,0l0,0l0,0l0,0l0,0l0,0l0-0.1l-0.1-0.2c-0.1-0.3-0.2-0.4-0.2-0.5
							c-0.4-0.8-0.8-1.6-1.2-2.4c0,1,0,2,0,3.1c0,0,0,0.1,0,0.1c0,0,0,0-0.1,0c0,0-0.1,0-0.1,0c0,0,0-0.1,0-0.1c0-1.2,0-2.3,0-3.5
							c0,0,0-0.1,0.1-0.1c0,0,0,0,0,0C93.9,163.5,94,163.5,94.1,163.6C94,163.5,94,163.5,94.1,163.6L94.1,163.6z"/>
						<path id="XMLID_00000096044283199289905170000007453788712454348172_" class="st1" d="M97.6,163.7c0,0.4,0,1,0,1.6v0.2
							c0-0.1,0.1-0.1,0.1-0.2l0.2-0.2l0.2-0.2l0.9-1.1c0,0,0,0,0.1,0c0,0,0.1,0,0.1,0c0,0,0,0.1,0,0.1c0,0,0,0.1,0,0.1l-0.9,1.1
							l-0.1,0.1c0.1,0.1,0.2,0.4,0.4,0.8c0.2,0.4,0.4,0.8,0.6,1c0,0,0,0.1,0,0.1c0,0,0,0.1,0,0.1c0,0,0,0-0.1,0c0,0-0.1,0-0.1,0
							c-0.1-0.2-0.2-0.3-0.3-0.6l-0.4-0.7c-0.1-0.2-0.2-0.4-0.3-0.6c-0.2,0.2-0.3,0.4-0.4,0.5c0,0.5,0,0.8,0,1.1c0,0,0,0.1,0,0.1
							c0,0,0,0-0.1,0c0,0-0.1,0-0.1,0c0,0,0-0.1,0-0.1c0-0.2,0-0.5,0-0.9c0-0.4,0-0.7,0-0.7c0-0.7,0-1.2,0-1.7c0,0,0-0.1,0-0.1
							c0,0,0,0,0.1,0C97.6,163.5,97.6,163.6,97.6,163.7C97.6,163.6,97.6,163.6,97.6,163.7L97.6,163.7z"/>
					</g>
					<path id="XMLID_00000016760921651347461320000008472856798268643463_" class="st1" d="M103.7,167.5l-0.3-7.4
						c0.2-0.3,0.6-1,0.4-1.8c-0.2-0.7-0.7-1.3-1.7-1.7l-1.5-1.7c0-0.9-0.1-1.3-0.1-1.5c0.3,0,0.5-0.1,0.8-0.1l0.3-0.1l-0.2-5.2
						l-0.2-0.1c-0.1,0-2.2-1-5.4-1c-1.8,0-3.6,0.3-5.3,1l-0.2,0.1l-0.7,5.2l0.3,0.1c0,0,0.4,0.1,1.1,0.2v1.4l-1.2,1.7
						c-0.4,0.1-1.6,0.5-2,1.5c-0.3,0.6-0.1,1.4,0.4,2.2l0.2,7.8c-0.2,0.3-0.8,1.3-0.2,2.5l0,0.1l0.1,0.1c0.1,0.1,2.3,1.7,6.7,1.7h0
						c2.6,0,5.4-0.6,8.5-1.7l0.2-0.1l0-0.2C103.8,169.9,104.2,168.2,103.7,167.5L103.7,167.5z M90.4,152.6l0.6-4.1
						c1.6-0.6,3.2-0.8,4.9-0.8c2.4,0,4.3,0.6,4.9,0.8l0.2,4.1c-0.4,0.1-0.8,0.1-1.2,0.2l0.2-2.9l-0.3,0l-0.2,3
						c-0.3,0-0.5,0.1-0.8,0.1c-0.1,0-0.3,0-0.5,0l0.2-3l-0.3,0l-0.2,3.1c-0.3,0-0.6,0-0.9,0l0.2-3.1l-0.3,0l-0.2,3.1
						c-0.3,0-0.6,0-1,0l0.2-3.1l-0.3,0l-0.2,3.1c-0.3,0-0.6,0-0.8,0l0.2-3.1l-0.3,0l-0.2,3.1l0,0c-0.3,0-0.7,0-1,0l0.3-3.1l-0.3,0
						l-0.3,3.1l0.2,0c-0.5,0-0.9-0.1-1.3-0.1l0.3-2.9l-0.3,0l-0.3,2.9C91,152.7,90.6,152.6,90.4,152.6L90.4,152.6z M90.2,157.2
						l0.1,0l1.5-2.1v-1.4c0.3,0,0.7,0,1.1,0c0.8,0.1,1.7,0.1,2.7,0.1h0c1,0,2,0,3-0.1c0.6,0,1,0,1.2,0c0,0.4,0,1,0.1,1.4l0,0.1
						l1.8,2l0.1,0c0.4,0.2,0.7,0.4,0.9,0.6c-0.3,0-0.5,0-0.8,0c-0.6,0-1.1-0.1-1.7,0c-0.7,0.1-1.4-0.1-2-0.2
						c-0.4-0.1-0.9-0.2-1.4-0.2c-1-0.1-1.9,0-2.7,0c-0.4,0-0.8,0.1-1.2,0.2c-0.3,0.1-0.6,0.1-0.9,0.2c-0.6,0.1-1.1,0.1-1.7-0.1
						c0,0-0.1,0-0.1,0c-0.2-0.1-0.4-0.2-0.7-0.2C89.8,157.2,90.2,157.2,90.2,157.2L90.2,157.2z M93.8,168.4c-2.2-0.1-4-0.5-4.7-0.6
						l-0.1-6.5c0.7,0.1,2.2,0.4,4.2,0.5c0.9,0.1,1.9,0.1,3,0.1c2,0,4.3-0.2,6.5-0.7l0.2,6C99.9,168.5,96.3,168.6,93.8,168.4
						L93.8,168.4z"/>
				</g>
			</g>
			<g id="XMLID_889_">
				<g>
					<path id="XMLID_00000041275946055278824420000005904516233328952767_" class="st1" d="M178.2,170.9c0,0,0-0.7-0.1-1.8l0.2,0.1
						l0-0.9c0-0.2-0.9-20.6-1.3-29c-0.1-2.4-1.7-4.4-4.6-5.8c-2.9-1.4-6.9-2.1-11.2-2c-3.9,0.1-7.4,0.9-9.4,2.1
						c-1.8-1.2-5.2-2-9.1-2c-4.2,0-8.3,0.8-11.3,2.3c-3.2,1.6-4.9,3.8-4.9,6.3c0,0.5,0,1,0,1.5c-0.1,0.3-0.1,0.7-0.1,1.1
						c0,8.4,0.2,28.8,0.2,29l0,0.8l0.7-0.5c0,0,0.3-0.2,0.7-0.5c1.3-0.3,19.8-5.2,24.5-5.3l0,0l0,0c4.7,0.5,23.4,4.5,24.9,4.8
						l0.7,0.5L178.2,170.9L178.2,170.9z M153.2,163.7c0-0.6,0-1.1,0.1-1.7c1.5-0.3,3.1-0.4,4.8-0.3c9.1,0.3,17.3,5.4,19.2,6.7
						c0,0.7,0.1,1.2,0.1,1.6c-1-0.6-2.8-1.8-5.3-2.9c-3.4-1.6-8.5-3.5-14-3.7C156.3,163.4,154.7,163.5,153.2,163.7L153.2,163.7z
						 M153.2,164.6c1.5-0.2,3.1-0.3,4.7-0.3c5.4,0.2,10.4,2.1,13.7,3.6c1.6,0.7,2.9,1.4,3.9,2c-5.3-1.1-17.9-3.8-22.2-4.3
						C153.2,165.3,153.2,164.9,153.2,164.6L153.2,164.6z M161.3,132.4c4.1-0.1,8.1,0.6,10.8,1.9c2.6,1.3,4,2.9,4.1,5
						c0.4,7.4,1.1,24.2,1.2,28.1c-2.5-1.6-10.5-6.3-19.4-6.6c-1.6-0.1-3.2,0-4.8,0.3c0.2-4.5,0.2-8.6,0.1-12.5
						c-0.1-4.5-0.3-7.9-0.6-10.4c-0.1-0.8-0.3-2.8-0.4-3.8C154.2,133.2,157.5,132.5,161.3,132.4L161.3,132.4z M127.5,141.9
						c0-0.5,0-1.1,0-1.5c0-2.8,2.4-4.6,4.4-5.5c2.8-1.4,6.8-2.2,10.9-2.2c3.7,0,6.8,0.6,8.5,1.7l0.2,0.2c0.1,0.9,0.3,2.8,0.4,3.6
						l0,0c0.4,2.6,0.6,5.9,0.6,10.5c0,2.6,0,5.6,0,10.1c0,0.2,0,0.4,0,0.6c0,0.6,0,1.2,0,1.8l0,0l0,0c-0.6-0.1-1.2-0.1-1.8-0.1
						c-6.2-0.2-12.3,1.9-16.3,3.8c-3.1,1.4-5.5,2.9-6.6,3.7C127.7,164.9,127.5,149.8,127.5,141.9L127.5,141.9z M127.6,169.6
						c0.5-0.3,3.2-2.2,7.1-4c3.9-1.8,9.9-3.9,15.9-3.7c0.6,0,1.2,0.1,1.7,0.1c0,0.6,0,1.1,0,1.7c-0.6-0.1-1.2-0.1-1.8-0.1
						c-6.2-0.2-12.3,1.9-16.3,3.8c-3.1,1.4-5.5,2.9-6.6,3.7C127.6,170.7,127.6,170.2,127.6,169.6L127.6,169.6z M134.6,168.2
						c3.9-1.8,9.9-3.9,15.9-3.7c0.6,0,1.2,0.1,1.8,0.1l0,0.1l0,0c0,0.3-0.1,0.6-0.1,0.8c-4.2,0.3-16,3.2-21.5,4.6
						C131.8,169.6,133.1,168.9,134.6,168.2L134.6,168.2z"/>
					<path id="XMLID_00000170975446758410900780000008626152672939387543_" class="st1" d="M130.2,139.7l0.1,23.3
						c0,0,4.1-2.7,8.5-3.2c-0.4-5.8-0.5-22.3-0.5-22.3L130.2,139.7L130.2,139.7z"/>
					<path id="XMLID_00000127725275187186263540000013732556814262440099_" class="st1" d="M139.5,139.3c0.1-0.4,0.4-0.9,0.8-1
						c0.6-0.2,0.6,0.3,1.1,0.4c0.9,0.1,1.2-1,2.3-0.6c0.4,0.2,0.4,0.5,1,0.4c0.5-0.1,0.7-0.6,1.1-0.7c0.9-0.2,1.1,0.7,2.1-0.1
						c0.4,0.7,1.3,0.5,1.7-0.1"/>
					<path id="XMLID_00000166650810648199077210000009670633162882302101_" class="st1" d="M139.7,142.1c0.2-0.5,0.6-1,1.1-1.1
						c0.6-0.1,0.9,0.5,1.4,0.5c0.5,0,0.7-0.7,1.2-0.8c0.5-0.1,0.9,0.5,1.4,0.4c0.5,0,0.9-0.6,1.4-0.6c0.2,0,0.4,0.4,0.6,0.4
						c0.4,0,0.5-0.3,0.8-0.4c0.6-0.2,0.4-0.1,1.1,0c0.5,0.1,1-0.1,1.3-0.5"/>
					<path id="XMLID_00000121961629737275614550000004136440450979628171_" class="st1" d="M139.9,144.7c-0.2-1.3,2,0,2.4-0.1
						c0.5-0.1,0.7-0.7,1.2-0.8c0.6-0.2,0.8,0.4,1.4,0.5c0.7,0.1,1.1-0.4,1.7-0.6c0.8-0.3,0.8,0.1,1.5,0.2c0.7,0.1,0.8-0.6,1.4-0.7
						c0.5-0.1,0.8,0.7,1.3,0.1"/>
					<path id="XMLID_00000053541681457347004990000002991926443451936653_" class="st1" d="M140.2,147.9c0.1-0.4,0.4-0.9,0.8-1
						c0.6-0.2,0.6,0.3,1.1,0.4c0.9,0.1,1.2-1,2.3-0.6c0.4,0.2,0.4,0.5,1,0.4c0.5-0.1,0.7-0.6,1.1-0.7c0.9-0.2,1.1,0.7,2.1-0.1
						c0.4,0.7,1.3,0.5,1.7-0.1"/>
					<path id="XMLID_00000074432210119941474420000007528950552388642439_" class="st1" d="M140.4,150.7c0.2-0.5,0.6-1,1.1-1.1
						c0.6-0.1,0.9,0.5,1.4,0.5c0.5,0,0.7-0.7,1.2-0.8c0.5-0.1,0.9,0.5,1.4,0.4c0.5,0,0.9-0.6,1.4-0.6c0.2,0,0.4,0.4,0.6,0.4
						c0.4,0,0.5-0.3,0.8-0.4c0.6-0.2,0.4-0.1,1.1,0c0.5,0.1,1-0.1,1.3-0.5"/>
					<path id="XMLID_00000132771865230799827270000004552429359125614992_" class="st1" d="M140.7,153.3c-0.2-1.3,2,0,2.4-0.1
						c0.5-0.1,0.7-0.7,1.2-0.8c0.6-0.2,0.8,0.4,1.4,0.5c0.7,0.1,1.1-0.4,1.7-0.6c0.8-0.3,0.8,0.1,1.5,0.2c0.7,0.1,0.8-0.6,1.4-0.7
						c0.5-0.1,0.8,0.7,1.3,0.1"/>
					<path id="XMLID_00000138545652189103782480000000474987625598837164_" class="st1" d="M156.1,137.7c0.1-0.4,0.6-0.8,1.2-0.9
						c0.8-0.1,0.8,0.4,1.5,0.5c1.2,0.2,1.8-0.8,3.1-0.3c0.6,0.2,0.5,0.5,1.2,0.5c0.6,0,1-0.6,1.5-0.6c1.2-0.1,3.7,2.6,5.1,1.9
						c0.5,0.7,1.7,0.7,2.3,0.1"/>
					<path id="XMLID_00000018239514045075680750000000195391578903123080_" class="st1" d="M156,140.5c0.3-0.4,0.9-0.9,1.7-0.9
						c0.8,0,1.1,0.6,1.8,0.6c0.7,0,1-0.6,1.7-0.6c0.7,0,1.1,0.6,1.8,0.6c0.7,0,1.2-0.5,1.9-0.4c0.3,0,0.4,0.5,0.8,0.5
						c0.5,0.1,3,1.5,3.4,1.5c0.9-0.1,0.5,0,1.5,0.2c0.7,0.1,1.3,0,1.8-0.3"/>
					<path id="XMLID_00000034795630776591078400000008375038793989931394_" class="st1" d="M156,143.2c-0.1-1.3,2.6,0.3,3.2,0.2
						c0.7,0,1-0.6,1.7-0.7c0.8-0.1,1.1,0.5,1.8,0.6c0.9,0.2,1.5-0.3,2.3-0.4c1-0.2,3.4,2,4.3,2.2c0.9,0.1,1.2-0.5,1.9-0.5
						c0.6,0,1,0.8,1.7,0.3"/>
					<path id="XMLID_00000026885570271766322470000003560014110429007283_" class="st1" d="M156,146.4c0.1-0.4,0.6-0.8,1.2-0.9
						c0.8-0.1,0.8,0.4,1.5,0.5c1.2,0.2,1.8-0.8,3.1-0.3c0.6,0.2,0.5,0.5,1.2,0.5c0.6,0,1-0.6,1.5-0.6c1.2-0.1,3.7,2.6,5.1,1.9
						c0.5,0.7,1.7,0.7,2.3,0.1"/>
					<path id="XMLID_00000181085955630347957700000018285992046231267981_" class="st1" d="M156,149.1c0.3-0.4,0.9-0.9,1.7-0.9
						c0.8,0,1.1,0.6,1.8,0.6c0.7,0,1-0.6,1.7-0.6c0.7,0,1.1,0.6,1.8,0.6c0.7,0,1.2-0.5,1.9-0.4c0.3,0,0.4,0.5,0.8,0.5
						c0.5,0.1,3,1.5,3.4,1.5c0.9-0.1,0.5,0,1.5,0.2c0.7,0.1,1.3,0,1.8-0.3"/>
					<path id="XMLID_00000013914406909268372050000005719157757219896475_" class="st1" d="M156,151.8c-0.1-1.3,2.6,0.3,3.2,0.2
						c0.7,0,1-0.6,1.7-0.7c0.8-0.1,1.1,0.5,1.8,0.6c0.9,0.2,1.5-0.3,2.3-0.4c1-0.2,3.4,2,4.3,2.2c0.9,0.1,1.2-0.5,1.9-0.5
						c0.6,0,1,0.8,1.7,0.3"/>
					<path id="XMLID_00000044144736513394910710000013665888615482502020_" class="st1" d="M155.9,154.9c-0.1-1.3,2.6,0.3,3.2,0.2
						c0.7,0,1-0.6,1.7-0.7c0.8-0.1,1.1,0.5,1.8,0.6c0.9,0.2,1.5-0.3,2.3-0.4c1-0.2,3.4,2,4.3,2.2c0.9,0.1,1.2-0.5,1.9-0.5
						c0.6,0,1,0.8,1.7,0.3"/>
				</g>
			</g>
		</g>
		<g id="XMLID_916_">
			<g>
				<g id="XMLID_00000062176462294089172820000017263382732057596335_">
					<path class="st1" d="M156.3,92.5l-3.6-18.3l-43.9,23.1L65.7,74.2l-3.6,19.8c0,0-0.3,1.5-0.3,2.3c0,7,29.1,22.6,46.4,22.6
						c19.7,0,48.7-15.7,48.7-22.7C157,95.4,156.7,94.7,156.3,92.5z"/>
				</g>
				<g id="XMLID_00000057834165552684578250000000794405464516251307_">
					<polygon class="st1" points="109.1,94.4 41.6,58.2 109.3,39.2 176.8,58 					"/>
				</g>
				<polygon id="XMLID_00000077319482966077901510000000538796712177444021_" class="st2" points="42.1,60.3 38.1,96.9 42,103.8 
					45.9,96.9 				"/>
			</g>
		</g>
	</g>
</g>
</svg>
